<?xml version="1.0" encoding="utf-8" standalone="no"?>
<!DOCTYPE svg PUBLIC "-//W3C//DTD SVG 1.1//EN"
  "http://www.w3.org/Graphics/SVG/1.1/DTD/svg11.dtd">
<svg xmlns:xlink="http://www.w3.org/1999/xlink" width="1106.29375pt" height="674.024504pt" viewBox="0 0 1106.29375 674.024504" xmlns="http://www.w3.org/2000/svg" version="1.1">
 <metadata>
  <rdf:RDF xmlns:dc="http://purl.org/dc/elements/1.1/" xmlns:cc="http://creativecommons.org/ns#" xmlns:rdf="http://www.w3.org/1999/02/22-rdf-syntax-ns#">
   <cc:Work>
    <dc:type rdf:resource="http://purl.org/dc/dcmitype/StillImage"/>
    <dc:date>2025-09-11T15:14:20.229114</dc:date>
    <dc:format>image/svg+xml</dc:format>
    <dc:creator>
     <cc:Agent>
      <dc:title>Matplotlib v3.10.5, https://matplotlib.org/</dc:title>
     </cc:Agent>
    </dc:creator>
   </cc:Work>
  </rdf:RDF>
 </metadata>
 <defs>
  <style type="text/css">*{stroke-linejoin: round; stroke-linecap: butt}</style>
 </defs>
 <g id="figure_1">
  <g id="patch_1">
   <path d="M 0 674.024504 
L 1106.29375 674.024504 
L 1106.29375 0 
L 0 0 
z
" style="fill: #ffffff"/>
  </g>
  <g id="axes_1">
   <g id="patch_2">
    <path d="M 78.57375 579.716084 
L 1099.09375 579.716084 
L 1099.09375 42.18125 
L 78.57375 42.18125 
z
" style="fill: #ffffff"/>
   </g>
   <g id="patch_3">
    <path d="M 124.961023 579.716084 
L 135.307626 579.716084 
L 135.307626 563.634482 
L 124.961023 563.634482 
z
" clip-path="url(#pc56910fd84)" style="fill: #2e86ab; opacity: 0.8; stroke: #ffffff; stroke-linejoin: miter"/>
   </g>
   <g id="patch_4">
    <path d="M 159.449701 579.716084 
L 169.796305 579.716084 
L 169.796305 560.425702 
L 159.449701 560.425702 
z
" clip-path="url(#pc56910fd84)" style="fill: #2e86ab; opacity: 0.8; stroke: #ffffff; stroke-linejoin: miter"/>
   </g>
   <g id="patch_5">
    <path d="M 193.93838 579.716084 
L 204.284984 579.716084 
L 204.284984 558.284002 
L 193.93838 558.284002 
z
" clip-path="url(#pc56910fd84)" style="fill: #2e86ab; opacity: 0.8; stroke: #ffffff; stroke-linejoin: miter"/>
   </g>
   <g id="patch_6">
    <path d="M 228.427059 579.716084 
L 238.773662 579.716084 
L 238.773662 522.832835 
L 228.427059 522.832835 
z
" clip-path="url(#pc56910fd84)" style="fill: #2e86ab; opacity: 0.8; stroke: #ffffff; stroke-linejoin: miter"/>
   </g>
   <g id="patch_7">
    <path d="M 262.915737 579.716084 
L 273.262341 579.716084 
L 273.262341 557.096264 
L 262.915737 557.096264 
z
" clip-path="url(#pc56910fd84)" style="fill: #2e86ab; opacity: 0.8; stroke: #ffffff; stroke-linejoin: miter"/>
   </g>
   <g id="patch_8">
    <path d="M 297.404416 579.716084 
L 307.751019 579.716084 
L 307.751019 274.22973 
L 297.404416 274.22973 
z
" clip-path="url(#pc56910fd84)" style="fill: #2e86ab; opacity: 0.8; stroke: #ffffff; stroke-linejoin: miter"/>
   </g>
   <g id="patch_9">
    <path d="M 331.893094 579.716084 
L 342.239698 579.716084 
L 342.239698 553.834696 
L 331.893094 553.834696 
z
" clip-path="url(#pc56910fd84)" style="fill: #2e86ab; opacity: 0.8; stroke: #ffffff; stroke-linejoin: miter"/>
   </g>
   <g id="patch_10">
    <path d="M 366.381773 579.716084 
L 376.728377 579.716084 
L 376.728377 552.801552 
L 366.381773 552.801552 
z
" clip-path="url(#pc56910fd84)" style="fill: #2e86ab; opacity: 0.8; stroke: #ffffff; stroke-linejoin: miter"/>
   </g>
   <g id="patch_11">
    <path d="M 400.870452 579.716084 
L 411.217055 579.716084 
L 411.217055 553.193694 
L 400.870452 553.193694 
z
" clip-path="url(#pc56910fd84)" style="fill: #2e86ab; opacity: 0.8; stroke: #ffffff; stroke-linejoin: miter"/>
   </g>
   <g id="patch_12">
    <path d="M 435.35913 579.716084 
L 445.705734 579.716084 
L 445.705734 551.493154 
L 435.35913 551.493154 
z
" clip-path="url(#pc56910fd84)" style="fill: #2e86ab; opacity: 0.8; stroke: #ffffff; stroke-linejoin: miter"/>
   </g>
   <g id="patch_13">
    <path d="M 469.847809 579.716084 
L 480.194412 579.716084 
L 480.194412 548.322081 
L 469.847809 548.322081 
z
" clip-path="url(#pc56910fd84)" style="fill: #2e86ab; opacity: 0.8; stroke: #ffffff; stroke-linejoin: miter"/>
   </g>
   <g id="patch_14">
    <path d="M 504.336487 579.716084 
L 514.683091 579.716084 
L 514.683091 543.925563 
L 504.336487 543.925563 
z
" clip-path="url(#pc56910fd84)" style="fill: #2e86ab; opacity: 0.8; stroke: #ffffff; stroke-linejoin: miter"/>
   </g>
   <g id="patch_15">
    <path d="M 538.825166 579.716084 
L 549.17177 579.716084 
L 549.17177 539.042638 
L 538.825166 539.042638 
z
" clip-path="url(#pc56910fd84)" style="fill: #2e86ab; opacity: 0.8; stroke: #ffffff; stroke-linejoin: miter"/>
   </g>
   <g id="patch_16">
    <path d="M 573.313845 579.716084 
L 583.660448 579.716084 
L 583.660448 544.317705 
L 573.313845 544.317705 
z
" clip-path="url(#pc56910fd84)" style="fill: #2e86ab; opacity: 0.8; stroke: #ffffff; stroke-linejoin: miter"/>
   </g>
   <g id="patch_17">
    <path d="M 607.802523 579.716084 
L 618.149127 579.716084 
L 618.149127 548.092074 
L 607.802523 548.092074 
z
" clip-path="url(#pc56910fd84)" style="fill: #2e86ab; opacity: 0.8; stroke: #ffffff; stroke-linejoin: miter"/>
   </g>
   <g id="patch_18">
    <path d="M 642.291202 579.716084 
L 652.637805 579.716084 
L 652.637805 429.397402 
L 642.291202 429.397402 
z
" clip-path="url(#pc56910fd84)" style="fill: #2e86ab; opacity: 0.8; stroke: #ffffff; stroke-linejoin: miter"/>
   </g>
   <g id="patch_19">
    <path d="M 676.77988 579.716084 
L 687.126484 579.716084 
L 687.126484 549.811467 
L 676.77988 549.811467 
z
" clip-path="url(#pc56910fd84)" style="fill: #2e86ab; opacity: 0.8; stroke: #ffffff; stroke-linejoin: miter"/>
   </g>
   <g id="patch_20">
    <path d="M 711.268559 579.716084 
L 721.615163 579.716084 
L 721.615163 546.527276 
L 711.268559 546.527276 
z
" clip-path="url(#pc56910fd84)" style="fill: #2e86ab; opacity: 0.8; stroke: #ffffff; stroke-linejoin: miter"/>
   </g>
   <g id="patch_21">
    <path d="M 745.757238 579.716084 
L 756.103841 579.716084 
L 756.103841 546.108739 
L 745.757238 546.108739 
z
" clip-path="url(#pc56910fd84)" style="fill: #2e86ab; opacity: 0.8; stroke: #ffffff; stroke-linejoin: miter"/>
   </g>
   <g id="patch_22">
    <path d="M 780.245916 579.716084 
L 790.59252 579.716084 
L 790.59252 492.585093 
L 780.245916 492.585093 
z
" clip-path="url(#pc56910fd84)" style="fill: #2e86ab; opacity: 0.8; stroke: #ffffff; stroke-linejoin: miter"/>
   </g>
   <g id="patch_23">
    <path d="M 814.734595 579.716084 
L 825.081198 579.716084 
L 825.081198 554.566192 
L 814.734595 554.566192 
z
" clip-path="url(#pc56910fd84)" style="fill: #2e86ab; opacity: 0.8; stroke: #ffffff; stroke-linejoin: miter"/>
   </g>
   <g id="patch_24">
    <path d="M 849.223273 579.716084 
L 859.569877 579.716084 
L 859.569877 563.272504 
L 849.223273 563.272504 
z
" clip-path="url(#pc56910fd84)" style="fill: #2e86ab; opacity: 0.8; stroke: #ffffff; stroke-linejoin: miter"/>
   </g>
   <g id="patch_25">
    <path d="M 883.711952 579.716084 
L 894.058556 579.716084 
L 894.058556 551.432825 
L 883.711952 551.432825 
z
" clip-path="url(#pc56910fd84)" style="fill: #2e86ab; opacity: 0.8; stroke: #ffffff; stroke-linejoin: miter"/>
   </g>
   <g id="patch_26">
    <path d="M 918.200631 579.716084 
L 928.547234 579.716084 
L 928.547234 570.979608 
L 918.200631 570.979608 
z
" clip-path="url(#pc56910fd84)" style="fill: #2e86ab; opacity: 0.8; stroke: #ffffff; stroke-linejoin: miter"/>
   </g>
   <g id="patch_27">
    <path d="M 952.689309 579.716084 
L 963.035913 579.716084 
L 963.035913 577.020107 
L 952.689309 577.020107 
z
" clip-path="url(#pc56910fd84)" style="fill: #2e86ab; opacity: 0.8; stroke: #ffffff; stroke-linejoin: miter"/>
   </g>
   <g id="patch_28">
    <path d="M 987.177988 579.716084 
L 997.524592 579.716084 
L 997.524592 579.342795 
L 987.177988 579.342795 
z
" clip-path="url(#pc56910fd84)" style="fill: #2e86ab; opacity: 0.8; stroke: #ffffff; stroke-linejoin: miter"/>
   </g>
   <g id="patch_29">
    <path d="M 1021.666667 579.716084 
L 1032.01327 579.716084 
L 1032.01327 67.778147 
L 1021.666667 67.778147 
z
" clip-path="url(#pc56910fd84)" style="fill: #2e86ab; opacity: 0.8; stroke: #ffffff; stroke-linejoin: miter"/>
   </g>
   <g id="patch_30">
    <path d="M 135.307626 579.716084 
L 145.65423 579.716084 
L 145.65423 571.481097 
L 135.307626 571.481097 
z
" clip-path="url(#pc56910fd84)" style="fill: #a23b72; opacity: 0.8; stroke: #ffffff; stroke-linejoin: miter"/>
   </g>
   <g id="patch_31">
    <path d="M 169.796305 579.716084 
L 180.142908 579.716084 
L 180.142908 569.844657 
L 169.796305 569.844657 
z
" clip-path="url(#pc56910fd84)" style="fill: #a23b72; opacity: 0.8; stroke: #ffffff; stroke-linejoin: miter"/>
   </g>
   <g id="patch_32">
    <path d="M 204.284984 579.716084 
L 214.631587 579.716084 
L 214.631587 568.732331 
L 204.284984 568.732331 
z
" clip-path="url(#pc56910fd84)" style="fill: #a23b72; opacity: 0.8; stroke: #ffffff; stroke-linejoin: miter"/>
   </g>
   <g id="patch_33">
    <path d="M 238.773662 579.716084 
L 249.120266 579.716084 
L 249.120266 550.539193 
L 238.773662 550.539193 
z
" clip-path="url(#pc56910fd84)" style="fill: #a23b72; opacity: 0.8; stroke: #ffffff; stroke-linejoin: miter"/>
   </g>
   <g id="patch_34">
    <path d="M 273.262341 579.716084 
L 283.608944 579.716084 
L 283.608944 568.113953 
L 273.262341 568.113953 
z
" clip-path="url(#pc56910fd84)" style="fill: #a23b72; opacity: 0.8; stroke: #ffffff; stroke-linejoin: miter"/>
   </g>
   <g id="patch_35">
    <path d="M 307.751019 579.716084 
L 318.097623 579.716084 
L 318.097623 424.348571 
L 307.751019 424.348571 
z
" clip-path="url(#pc56910fd84)" style="fill: #a23b72; opacity: 0.8; stroke: #ffffff; stroke-linejoin: miter"/>
   </g>
   <g id="patch_36">
    <path d="M 342.239698 579.716084 
L 352.586302 579.716084 
L 352.586302 566.364395 
L 342.239698 566.364395 
z
" clip-path="url(#pc56910fd84)" style="fill: #a23b72; opacity: 0.8; stroke: #ffffff; stroke-linejoin: miter"/>
   </g>
   <g id="patch_37">
    <path d="M 376.728377 579.716084 
L 387.07498 579.716084 
L 387.07498 565.866676 
L 376.728377 565.866676 
z
" clip-path="url(#pc56910fd84)" style="fill: #a23b72; opacity: 0.8; stroke: #ffffff; stroke-linejoin: miter"/>
   </g>
   <g id="patch_38">
    <path d="M 411.217055 579.716084 
L 421.563659 579.716084 
L 421.563659 566.077829 
L 411.217055 566.077829 
z
" clip-path="url(#pc56910fd84)" style="fill: #a23b72; opacity: 0.8; stroke: #ffffff; stroke-linejoin: miter"/>
   </g>
   <g id="patch_39">
    <path d="M 445.705734 579.716084 
L 456.052337 579.716084 
L 456.052337 565.293545 
L 445.705734 565.293545 
z
" clip-path="url(#pc56910fd84)" style="fill: #a23b72; opacity: 0.8; stroke: #ffffff; stroke-linejoin: miter"/>
   </g>
   <g id="patch_40">
    <path d="M 480.194412 579.716084 
L 490.541016 579.716084 
L 490.541016 563.789076 
L 480.194412 563.789076 
z
" clip-path="url(#pc56910fd84)" style="fill: #a23b72; opacity: 0.8; stroke: #ffffff; stroke-linejoin: miter"/>
   </g>
   <g id="patch_41">
    <path d="M 514.683091 579.716084 
L 525.029695 579.716084 
L 525.029695 561.579505 
L 514.683091 561.579505 
z
" clip-path="url(#pc56910fd84)" style="fill: #a23b72; opacity: 0.8; stroke: #ffffff; stroke-linejoin: miter"/>
   </g>
   <g id="patch_42">
    <path d="M 549.17177 579.716084 
L 559.518373 579.716084 
L 559.518373 559.166322 
L 549.17177 559.166322 
z
" clip-path="url(#pc56910fd84)" style="fill: #a23b72; opacity: 0.8; stroke: #ffffff; stroke-linejoin: miter"/>
   </g>
   <g id="patch_43">
    <path d="M 583.660448 579.716084 
L 594.007052 579.716084 
L 594.007052 561.979189 
L 583.660448 561.979189 
z
" clip-path="url(#pc56910fd84)" style="fill: #a23b72; opacity: 0.8; stroke: #ffffff; stroke-linejoin: miter"/>
   </g>
   <g id="patch_44">
    <path d="M 618.149127 579.716084 
L 628.49573 579.716084 
L 628.49573 564.034165 
L 618.149127 564.034165 
z
" clip-path="url(#pc56910fd84)" style="fill: #a23b72; opacity: 0.8; stroke: #ffffff; stroke-linejoin: miter"/>
   </g>
   <g id="patch_45">
    <path d="M 652.637805 579.716084 
L 662.984409 579.716084 
L 662.984409 514.462106 
L 652.637805 514.462106 
z
" clip-path="url(#pc56910fd84)" style="fill: #a23b72; opacity: 0.8; stroke: #ffffff; stroke-linejoin: miter"/>
   </g>
   <g id="patch_46">
    <path d="M 687.126484 579.716084 
L 697.473088 579.716084 
L 697.473088 565.154033 
L 687.126484 565.154033 
z
" clip-path="url(#pc56910fd84)" style="fill: #a23b72; opacity: 0.8; stroke: #ffffff; stroke-linejoin: miter"/>
   </g>
   <g id="patch_47">
    <path d="M 721.615163 579.716084 
L 731.961766 579.716084 
L 731.961766 564.030394 
L 721.615163 564.030394 
z
" clip-path="url(#pc56910fd84)" style="fill: #a23b72; opacity: 0.8; stroke: #ffffff; stroke-linejoin: miter"/>
   </g>
   <g id="patch_48">
    <path d="M 756.103841 579.716084 
L 766.450445 579.716084 
L 766.450445 564.513031 
L 756.103841 564.513031 
z
" clip-path="url(#pc56910fd84)" style="fill: #a23b72; opacity: 0.8; stroke: #ffffff; stroke-linejoin: miter"/>
   </g>
   <g id="patch_49">
    <path d="M 790.59252 579.716084 
L 800.939123 579.716084 
L 800.939123 544.800342 
L 790.59252 544.800342 
z
" clip-path="url(#pc56910fd84)" style="fill: #a23b72; opacity: 0.8; stroke: #ffffff; stroke-linejoin: miter"/>
   </g>
   <g id="patch_50">
    <path d="M 825.081198 579.716084 
L 835.427802 579.716084 
L 835.427802 569.271526 
L 825.081198 569.271526 
z
" clip-path="url(#pc56910fd84)" style="fill: #a23b72; opacity: 0.8; stroke: #ffffff; stroke-linejoin: miter"/>
   </g>
   <g id="patch_51">
    <path d="M 859.569877 579.716084 
L 869.916481 579.716084 
L 869.916481 573.694439 
L 859.569877 573.694439 
z
" clip-path="url(#pc56910fd84)" style="fill: #a23b72; opacity: 0.8; stroke: #ffffff; stroke-linejoin: miter"/>
   </g>
   <g id="patch_52">
    <path d="M 894.058556 579.716084 
L 904.405159 579.716084 
L 904.405159 570.530906 
L 894.058556 570.530906 
z
" clip-path="url(#pc56910fd84)" style="fill: #a23b72; opacity: 0.8; stroke: #ffffff; stroke-linejoin: miter"/>
   </g>
   <g id="patch_53">
    <path d="M 928.547234 579.716084 
L 938.893838 579.716084 
L 938.893838 577.189783 
L 928.547234 577.189783 
z
" clip-path="url(#pc56910fd84)" style="fill: #a23b72; opacity: 0.8; stroke: #ffffff; stroke-linejoin: miter"/>
   </g>
   <g id="patch_54">
    <path d="M 963.035913 579.716084 
L 973.382516 579.716084 
L 973.382516 579.154265 
L 963.035913 579.154265 
z
" clip-path="url(#pc56910fd84)" style="fill: #a23b72; opacity: 0.8; stroke: #ffffff; stroke-linejoin: miter"/>
   </g>
   <g id="patch_55">
    <path d="M 997.524592 579.716084 
L 1007.871195 579.716084 
L 1007.871195 579.670837 
L 997.524592 579.670837 
z
" clip-path="url(#pc56910fd84)" style="fill: #a23b72; opacity: 0.8; stroke: #ffffff; stroke-linejoin: miter"/>
   </g>
   <g id="patch_56">
    <path d="M 1032.01327 579.716084 
L 1042.359874 579.716084 
L 1042.359874 330.668049 
L 1032.01327 330.668049 
z
" clip-path="url(#pc56910fd84)" style="fill: #a23b72; opacity: 0.8; stroke: #ffffff; stroke-linejoin: miter"/>
   </g>
   <g id="patch_57">
    <path d="M 145.65423 579.716084 
L 156.000833 579.716084 
L 156.000833 571.873239 
L 145.65423 571.873239 
z
" clip-path="url(#pc56910fd84)" style="fill: #f18f01; opacity: 0.8; stroke: #ffffff; stroke-linejoin: miter"/>
   </g>
   <g id="patch_58">
    <path d="M 180.142908 579.716084 
L 190.489512 579.716084 
L 190.489512 570.30467 
L 180.142908 570.30467 
z
" clip-path="url(#pc56910fd84)" style="fill: #f18f01; opacity: 0.8; stroke: #ffffff; stroke-linejoin: miter"/>
   </g>
   <g id="patch_59">
    <path d="M 214.631587 579.716084 
L 224.978191 579.716084 
L 224.978191 569.267756 
L 214.631587 569.267756 
z
" clip-path="url(#pc56910fd84)" style="fill: #f18f01; opacity: 0.8; stroke: #ffffff; stroke-linejoin: miter"/>
   </g>
   <g id="patch_60">
    <path d="M 249.120266 579.716084 
L 259.466869 579.716084 
L 259.466869 551.930544 
L 249.120266 551.930544 
z
" clip-path="url(#pc56910fd84)" style="fill: #f18f01; opacity: 0.8; stroke: #ffffff; stroke-linejoin: miter"/>
   </g>
   <g id="patch_61">
    <path d="M 283.608944 579.716084 
L 293.955548 579.716084 
L 293.955548 568.698395 
L 283.608944 568.698395 
z
" clip-path="url(#pc56910fd84)" style="fill: #f18f01; opacity: 0.8; stroke: #ffffff; stroke-linejoin: miter"/>
   </g>
   <g id="patch_62">
    <path d="M 318.097623 579.716084 
L 328.444227 579.716084 
L 328.444227 429.144772 
L 318.097623 429.144772 
z
" clip-path="url(#pc56910fd84)" style="fill: #f18f01; opacity: 0.8; stroke: #ffffff; stroke-linejoin: miter"/>
   </g>
   <g id="patch_63">
    <path d="M 352.586302 579.716084 
L 362.932905 579.716084 
L 362.932905 567.186385 
L 352.586302 567.186385 
z
" clip-path="url(#pc56910fd84)" style="fill: #f18f01; opacity: 0.8; stroke: #ffffff; stroke-linejoin: miter"/>
   </g>
   <g id="patch_64">
    <path d="M 387.07498 579.716084 
L 397.421584 579.716084 
L 397.421584 566.65096 
L 387.07498 566.65096 
z
" clip-path="url(#pc56910fd84)" style="fill: #f18f01; opacity: 0.8; stroke: #ffffff; stroke-linejoin: miter"/>
   </g>
   <g id="patch_65">
    <path d="M 421.563659 579.716084 
L 431.910262 579.716084 
L 431.910262 566.831949 
L 421.563659 566.831949 
z
" clip-path="url(#pc56910fd84)" style="fill: #f18f01; opacity: 0.8; stroke: #ffffff; stroke-linejoin: miter"/>
   </g>
   <g id="patch_66">
    <path d="M 456.052337 579.716084 
L 466.398941 579.716084 
L 466.398941 565.911923 
L 456.052337 565.911923 
z
" clip-path="url(#pc56910fd84)" style="fill: #f18f01; opacity: 0.8; stroke: #ffffff; stroke-linejoin: miter"/>
   </g>
   <g id="patch_67">
    <path d="M 490.541016 579.716084 
L 500.88762 579.716084 
L 500.88762 564.25286 
L 490.541016 564.25286 
z
" clip-path="url(#pc56910fd84)" style="fill: #f18f01; opacity: 0.8; stroke: #ffffff; stroke-linejoin: miter"/>
   </g>
   <g id="patch_68">
    <path d="M 525.029695 579.716084 
L 535.376298 579.716084 
L 535.376298 562.065913 
L 525.029695 562.065913 
z
" clip-path="url(#pc56910fd84)" style="fill: #f18f01; opacity: 0.8; stroke: #ffffff; stroke-linejoin: miter"/>
   </g>
   <g id="patch_69">
    <path d="M 559.518373 579.716084 
L 569.864977 579.716084 
L 569.864977 559.588629 
L 559.518373 559.588629 
z
" clip-path="url(#pc56910fd84)" style="fill: #f18f01; opacity: 0.8; stroke: #ffffff; stroke-linejoin: miter"/>
   </g>
   <g id="patch_70">
    <path d="M 594.007052 579.716084 
L 604.353655 579.716084 
L 604.353655 562.05083 
L 594.007052 562.05083 
z
" clip-path="url(#pc56910fd84)" style="fill: #f18f01; opacity: 0.8; stroke: #ffffff; stroke-linejoin: miter"/>
   </g>
   <g id="patch_71">
    <path d="M 628.49573 579.716084 
L 638.842334 579.716084 
L 638.842334 563.773994 
L 628.49573 563.773994 
z
" clip-path="url(#pc56910fd84)" style="fill: #f18f01; opacity: 0.8; stroke: #ffffff; stroke-linejoin: miter"/>
   </g>
   <g id="patch_72">
    <path d="M 662.984409 579.716084 
L 673.331013 579.716084 
L 673.331013 494.432686 
L 662.984409 494.432686 
z
" clip-path="url(#pc56910fd84)" style="fill: #f18f01; opacity: 0.8; stroke: #ffffff; stroke-linejoin: miter"/>
   </g>
   <g id="patch_73">
    <path d="M 697.473088 579.716084 
L 707.819691 579.716084 
L 707.819691 564.37729 
L 697.473088 564.37729 
z
" clip-path="url(#pc56910fd84)" style="fill: #f18f01; opacity: 0.8; stroke: #ffffff; stroke-linejoin: miter"/>
   </g>
   <g id="patch_74">
    <path d="M 731.961766 579.716084 
L 742.30837 579.716084 
L 742.30837 562.209195 
L 731.961766 562.209195 
z
" clip-path="url(#pc56910fd84)" style="fill: #f18f01; opacity: 0.8; stroke: #ffffff; stroke-linejoin: miter"/>
   </g>
   <g id="patch_75">
    <path d="M 766.450445 579.716084 
L 776.797048 579.716084 
L 776.797048 561.311793 
L 766.450445 561.311793 
z
" clip-path="url(#pc56910fd84)" style="fill: #f18f01; opacity: 0.8; stroke: #ffffff; stroke-linejoin: miter"/>
   </g>
   <g id="patch_76">
    <path d="M 800.939123 579.716084 
L 811.285727 579.716084 
L 811.285727 527.372635 
L 800.939123 527.372635 
z
" clip-path="url(#pc56910fd84)" style="fill: #f18f01; opacity: 0.8; stroke: #ffffff; stroke-linejoin: miter"/>
   </g>
   <g id="patch_77">
    <path d="M 835.427802 579.716084 
L 845.774406 579.716084 
L 845.774406 565.006979 
L 835.427802 565.006979 
z
" clip-path="url(#pc56910fd84)" style="fill: #f18f01; opacity: 0.8; stroke: #ffffff; stroke-linejoin: miter"/>
   </g>
   <g id="patch_78">
    <path d="M 869.916481 579.716084 
L 880.263084 579.716084 
L 880.263084 569.297921 
L 869.916481 569.297921 
z
" clip-path="url(#pc56910fd84)" style="fill: #f18f01; opacity: 0.8; stroke: #ffffff; stroke-linejoin: miter"/>
   </g>
   <g id="patch_79">
    <path d="M 904.405159 579.716084 
L 914.751763 579.716084 
L 914.751763 560.580297 
L 904.405159 560.580297 
z
" clip-path="url(#pc56910fd84)" style="fill: #f18f01; opacity: 0.8; stroke: #ffffff; stroke-linejoin: miter"/>
   </g>
   <g id="patch_80">
    <path d="M 938.893838 579.716084 
L 949.240441 579.716084 
L 949.240441 573.51345 
L 938.893838 573.51345 
z
" clip-path="url(#pc56910fd84)" style="fill: #f18f01; opacity: 0.8; stroke: #ffffff; stroke-linejoin: miter"/>
   </g>
   <g id="patch_81">
    <path d="M 973.382516 579.716084 
L 983.72912 579.716084 
L 983.72912 577.578155 
L 973.382516 577.578155 
z
" clip-path="url(#pc56910fd84)" style="fill: #f18f01; opacity: 0.8; stroke: #ffffff; stroke-linejoin: miter"/>
   </g>
   <g id="patch_82">
    <path d="M 1007.871195 579.716084 
L 1018.217799 579.716084 
L 1018.217799 579.391813 
L 1007.871195 579.391813 
z
" clip-path="url(#pc56910fd84)" style="fill: #f18f01; opacity: 0.8; stroke: #ffffff; stroke-linejoin: miter"/>
   </g>
   <g id="patch_83">
    <path d="M 1042.359874 579.716084 
L 1052.706477 579.716084 
L 1052.706477 316.822411 
L 1042.359874 316.822411 
z
" clip-path="url(#pc56910fd84)" style="fill: #f18f01; opacity: 0.8; stroke: #ffffff; stroke-linejoin: miter"/>
   </g>
   <g id="matplotlib.axis_1">
    <g id="xtick_1">
     <g id="line2d_1">
      <defs>
       <path id="m8c1880f4f7" d="M 0 0 
L 0 3.5 
" style="stroke: #000000; stroke-width: 0.8"/>
      </defs>
      <g>
       <use xlink:href="#m8c1880f4f7" x="140.480928" y="579.716084" style="stroke: #000000; stroke-width: 0.8"/>
      </g>
     </g>
     <g id="text_1">
      <!-- 0歳～4歳 -->
      <g transform="translate(102.724078 629.216738) rotate(-45) scale(0.12 -0.12)">
       <defs>
        <path id="IPAexGothic-30" d="M 2038 4725 
Q 2881 4725 3334 3944 
Q 3694 3325 3694 2344 
Q 3694 1372 3334 741 
Q 2888 -31 2016 -31 
Q 1147 -31 700 741 
Q 341 1372 341 2350 
Q 341 3713 1000 4334 
Q 1419 4725 2038 4725 
z
M 2016 4266 
Q 1516 4266 1228 3759 
Q 934 3247 934 2344 
Q 934 1456 1222 947 
Q 1513 447 2016 447 
Q 2619 447 2909 1153 
Q 3100 1622 3100 2375 
Q 3100 3256 2806 3759 
Q 2509 4266 2016 4266 
z
" transform="scale(0.015625)"/>
        <path id="IPAexGothic-6b73" d="M 4263 2547 
Q 4366 1616 4619 1088 
Q 4981 1606 5209 2259 
L 5613 2125 
Q 5328 1313 4850 697 
Q 5222 134 5459 134 
Q 5566 134 5663 953 
L 6059 684 
Q 5959 59 5881 -128 
Q 5775 -384 5572 -384 
Q 5416 -384 5138 -194 
Q 4788 47 4556 366 
Q 4084 -125 3475 -453 
L 3178 -116 
Q 3831 206 4325 728 
Q 3994 1366 3831 2528 
L 1241 2528 
L 1241 2138 
Q 1241 1109 1119 538 
Q 994 -53 641 -513 
L 288 -178 
Q 794 413 794 1791 
L 794 2900 
L 3794 2900 
L 3781 3022 
Q 3778 3059 3766 3225 
Q 3756 3363 3750 3469 
L 484 3469 
L 484 3847 
L 1509 3847 
L 1509 4884 
L 1963 4884 
L 1963 3847 
L 2963 3847 
L 2963 5313 
L 3422 5313 
L 3422 4750 
L 5203 4750 
L 5203 4391 
L 3422 4391 
L 3422 3847 
L 5906 3847 
L 5906 3469 
L 4888 3469 
Q 5131 3344 5472 3078 
L 5228 2919 
L 5913 2919 
L 5913 2547 
L 4263 2547 
z
M 4222 2919 
L 5022 2919 
Q 4831 3094 4497 3278 
L 4778 3469 
L 4191 3469 
Q 4206 3116 4222 2919 
z
M 2834 1663 
L 2834 91 
Q 2834 -353 2394 -353 
Q 2225 -353 1969 -319 
L 1906 91 
Q 2075 44 2291 44 
Q 2419 44 2419 184 
L 2419 1663 
L 1388 1663 
L 1388 2022 
L 3781 2022 
L 3781 1663 
L 2834 1663 
z
M 1272 250 
Q 1588 747 1713 1434 
L 2116 1325 
Q 1956 503 1625 -25 
L 1272 250 
z
M 3428 403 
Q 3263 944 3025 1275 
L 3372 1447 
Q 3641 1100 3813 622 
L 3428 403 
z
" transform="scale(0.015625)"/>
        <path id="IPAexGothic-ff5e" d="M 678 2591 
Q 1259 3116 2022 3116 
Q 2559 3116 3359 2603 
Q 4019 2188 4353 2188 
Q 5056 2188 5722 2853 
L 5722 2259 
Q 5141 1734 4378 1734 
Q 3806 1734 3041 2234 
Q 2381 2663 2041 2663 
Q 1344 2663 678 1997 
L 678 2591 
z
" transform="scale(0.015625)"/>
        <path id="IPAexGothic-34" d="M 3813 1159 
L 3059 1159 
L 3059 63 
L 2547 63 
L 2547 1159 
L 197 1159 
L 197 1672 
L 2456 4678 
L 3059 4678 
L 3059 1634 
L 3813 1634 
L 3813 1159 
z
M 2578 4109 
L 2559 4109 
Q 2278 3656 2003 3284 
L 759 1634 
L 2547 1634 
L 2547 3144 
Q 2547 3481 2578 4109 
z
" transform="scale(0.015625)"/>
       </defs>
       <use xlink:href="#IPAexGothic-30"/>
       <use xlink:href="#IPAexGothic-6b73" transform="translate(62.988281 0)"/>
       <use xlink:href="#IPAexGothic-ff5e" transform="translate(162.988281 0)"/>
       <use xlink:href="#IPAexGothic-34" transform="translate(262.988281 0)"/>
       <use xlink:href="#IPAexGothic-6b73" transform="translate(325.976562 0)"/>
      </g>
     </g>
    </g>
    <g id="xtick_2">
     <g id="line2d_2">
      <g>
       <use xlink:href="#m8c1880f4f7" x="174.969607" y="579.716084" style="stroke: #000000; stroke-width: 0.8"/>
      </g>
     </g>
     <g id="text_2">
      <!-- 5歳～9歳 -->
      <g transform="translate(137.212756 629.216738) rotate(-45) scale(0.12 -0.12)">
       <defs>
        <path id="IPAexGothic-35" d="M 1178 2603 
Q 1634 2963 2172 2963 
Q 2816 2963 3241 2528 
Q 3638 2113 3638 1497 
Q 3638 938 3297 513 
Q 2869 -31 2031 -31 
Q 959 -31 469 784 
L 938 1028 
Q 1309 434 2013 434 
Q 2466 434 2769 716 
Q 3081 1013 3081 1503 
Q 3081 1966 2806 2241 
Q 2519 2528 2056 2528 
Q 1406 2528 1072 2028 
L 591 2091 
L 884 4634 
L 3406 4634 
L 3406 4153 
L 1341 4153 
L 1134 2603 
L 1178 2603 
z
" transform="scale(0.015625)"/>
        <path id="IPAexGothic-39" d="M 2984 2356 
Q 2544 1716 1813 1716 
Q 1253 1716 847 2056 
Q 366 2459 366 3163 
Q 366 3813 769 4266 
Q 1181 4725 1869 4725 
Q 2800 4725 3241 3950 
Q 3559 3378 3559 2472 
Q 3559 1250 3041 588 
Q 2553 -31 1769 -31 
Q 859 -31 391 703 
L 853 953 
Q 1156 428 1753 428 
Q 2922 428 3009 2356 
L 2984 2356 
z
M 1888 4278 
Q 1450 4278 1172 3950 
Q 922 3653 922 3200 
Q 922 2741 1159 2478 
Q 1434 2163 1906 2163 
Q 2431 2163 2728 2572 
Q 2925 2847 2925 3169 
Q 2925 3553 2694 3863 
Q 2375 4278 1888 4278 
z
" transform="scale(0.015625)"/>
       </defs>
       <use xlink:href="#IPAexGothic-35"/>
       <use xlink:href="#IPAexGothic-6b73" transform="translate(62.988281 0)"/>
       <use xlink:href="#IPAexGothic-ff5e" transform="translate(162.988281 0)"/>
       <use xlink:href="#IPAexGothic-39" transform="translate(262.988281 0)"/>
       <use xlink:href="#IPAexGothic-6b73" transform="translate(325.976562 0)"/>
      </g>
     </g>
    </g>
    <g id="xtick_3">
     <g id="line2d_3">
      <g>
       <use xlink:href="#m8c1880f4f7" x="209.458285" y="579.716084" style="stroke: #000000; stroke-width: 0.8"/>
      </g>
     </g>
     <g id="text_3">
      <!-- 10歳～14歳 -->
      <g transform="translate(161.012632 639.90554) rotate(-45) scale(0.12 -0.12)">
       <defs>
        <path id="IPAexGothic-31" d="M 2463 63 
L 1900 63 
L 1900 4103 
Q 1372 3922 788 3797 
L 684 4231 
Q 1519 4441 2106 4731 
L 2463 4731 
L 2463 63 
z
" transform="scale(0.015625)"/>
       </defs>
       <use xlink:href="#IPAexGothic-31"/>
       <use xlink:href="#IPAexGothic-30" transform="translate(62.988281 0)"/>
       <use xlink:href="#IPAexGothic-6b73" transform="translate(125.976562 0)"/>
       <use xlink:href="#IPAexGothic-ff5e" transform="translate(225.976562 0)"/>
       <use xlink:href="#IPAexGothic-31" transform="translate(325.976562 0)"/>
       <use xlink:href="#IPAexGothic-34" transform="translate(388.964844 0)"/>
       <use xlink:href="#IPAexGothic-6b73" transform="translate(451.953125 0)"/>
      </g>
     </g>
    </g>
    <g id="xtick_4">
     <g id="line2d_4">
      <g>
       <use xlink:href="#m8c1880f4f7" x="243.946964" y="579.716084" style="stroke: #000000; stroke-width: 0.8"/>
      </g>
     </g>
     <g id="text_4">
      <!-- 15歳未満 -->
      <g transform="translate(206.190113 629.216738) rotate(-45) scale(0.12 -0.12)">
       <defs>
        <path id="IPAexGothic-672a" d="M 3656 2438 
Q 4506 1213 6094 378 
L 5744 -91 
Q 4197 894 3413 2131 
L 3413 -450 
L 2938 -450 
L 2938 2078 
Q 2191 694 684 -213 
L 341 203 
Q 1834 981 2725 2438 
L 447 2438 
L 447 2853 
L 2938 2853 
L 2938 3903 
L 959 3903 
L 959 4319 
L 2938 4319 
L 2938 5309 
L 3413 5309 
L 3413 4319 
L 5434 4319 
L 5434 3903 
L 3413 3903 
L 3413 2853 
L 5947 2853 
L 5947 2438 
L 3656 2438 
z
" transform="scale(0.015625)"/>
        <path id="IPAexGothic-6e80" d="M 4106 3072 
L 4106 2578 
L 5753 2578 
L 5753 50 
Q 5753 -397 5191 -397 
Q 4763 -397 4409 -359 
L 4347 97 
Q 4794 38 5106 38 
Q 5325 38 5325 281 
L 5325 2206 
L 4100 2206 
L 4100 959 
L 4509 959 
L 4509 1853 
L 4900 1853 
L 4900 588 
L 3300 588 
L 3300 178 
L 2909 178 
L 2909 1853 
L 3300 1853 
L 3300 959 
L 3703 959 
L 3703 2206 
L 2519 2206 
L 2519 -447 
L 2091 -447 
L 2091 2578 
L 3691 2578 
L 3691 3072 
L 1778 3072 
L 1778 3456 
L 2916 3456 
L 2916 4122 
L 1944 4122 
L 1944 4494 
L 2916 4494 
L 2916 5313 
L 3356 5313 
L 3356 4494 
L 4372 4494 
L 4372 5313 
L 4813 5313 
L 4813 4494 
L 5844 4494 
L 5844 4122 
L 4813 4122 
L 4813 3456 
L 6034 3456 
L 6034 3072 
L 4106 3072 
z
M 4372 4122 
L 3356 4122 
L 3356 3456 
L 4372 3456 
L 4372 4122 
z
M 1413 3903 
Q 1081 4359 556 4769 
L 856 5100 
Q 1384 4700 1734 4275 
L 1413 3903 
z
M 1228 2381 
Q 828 2872 325 3256 
L 619 3591 
Q 1003 3322 1553 2753 
L 1228 2381 
z
M 375 -84 
Q 922 806 1297 1906 
L 1669 1619 
Q 1328 553 759 -428 
L 375 -84 
z
" transform="scale(0.015625)"/>
       </defs>
       <use xlink:href="#IPAexGothic-31"/>
       <use xlink:href="#IPAexGothic-35" transform="translate(62.988281 0)"/>
       <use xlink:href="#IPAexGothic-6b73" transform="translate(125.976562 0)"/>
       <use xlink:href="#IPAexGothic-672a" transform="translate(225.976562 0)"/>
       <use xlink:href="#IPAexGothic-6e80" transform="translate(325.976562 0)"/>
      </g>
     </g>
    </g>
    <g id="xtick_5">
     <g id="line2d_5">
      <g>
       <use xlink:href="#m8c1880f4f7" x="278.435643" y="579.716084" style="stroke: #000000; stroke-width: 0.8"/>
      </g>
     </g>
     <g id="text_5">
      <!-- 15歳～19歳 -->
      <g transform="translate(229.989989 639.90554) rotate(-45) scale(0.12 -0.12)">
       <use xlink:href="#IPAexGothic-31"/>
       <use xlink:href="#IPAexGothic-35" transform="translate(62.988281 0)"/>
       <use xlink:href="#IPAexGothic-6b73" transform="translate(125.976562 0)"/>
       <use xlink:href="#IPAexGothic-ff5e" transform="translate(225.976562 0)"/>
       <use xlink:href="#IPAexGothic-31" transform="translate(325.976562 0)"/>
       <use xlink:href="#IPAexGothic-39" transform="translate(388.964844 0)"/>
       <use xlink:href="#IPAexGothic-6b73" transform="translate(451.953125 0)"/>
      </g>
     </g>
    </g>
    <g id="xtick_6">
     <g id="line2d_6">
      <g>
       <use xlink:href="#m8c1880f4f7" x="312.924321" y="579.716084" style="stroke: #000000; stroke-width: 0.8"/>
      </g>
     </g>
     <g id="text_6">
      <!-- 15歳～64歳 -->
      <g transform="translate(264.478668 639.90554) rotate(-45) scale(0.12 -0.12)">
       <defs>
        <path id="IPAexGothic-36" d="M 1056 2328 
Q 1509 2981 2234 2981 
Q 2906 2981 3316 2513 
Q 3675 2106 3675 1522 
Q 3675 884 3272 434 
Q 2853 -31 2178 -31 
Q 1375 -31 922 581 
Q 481 1178 481 2228 
Q 481 3425 1013 4109 
Q 1494 4725 2272 4725 
Q 3191 4725 3609 4025 
L 3150 3775 
Q 2894 4266 2300 4266 
Q 1119 4266 1031 2328 
L 1056 2328 
z
M 2141 2547 
Q 1684 2547 1384 2206 
Q 1116 1900 1116 1541 
Q 1116 1156 1353 844 
Q 1672 428 2159 428 
Q 2669 428 2941 844 
Q 3125 1128 3125 1503 
Q 3125 1944 2881 2228 
Q 2600 2547 2141 2547 
z
" transform="scale(0.015625)"/>
       </defs>
       <use xlink:href="#IPAexGothic-31"/>
       <use xlink:href="#IPAexGothic-35" transform="translate(62.988281 0)"/>
       <use xlink:href="#IPAexGothic-6b73" transform="translate(125.976562 0)"/>
       <use xlink:href="#IPAexGothic-ff5e" transform="translate(225.976562 0)"/>
       <use xlink:href="#IPAexGothic-36" transform="translate(325.976562 0)"/>
       <use xlink:href="#IPAexGothic-34" transform="translate(388.964844 0)"/>
       <use xlink:href="#IPAexGothic-6b73" transform="translate(451.953125 0)"/>
      </g>
     </g>
    </g>
    <g id="xtick_7">
     <g id="line2d_7">
      <g>
       <use xlink:href="#m8c1880f4f7" x="347.413" y="579.716084" style="stroke: #000000; stroke-width: 0.8"/>
      </g>
     </g>
     <g id="text_7">
      <!-- 20歳～24歳 -->
      <g transform="translate(298.967346 639.90554) rotate(-45) scale(0.12 -0.12)">
       <defs>
        <path id="IPAexGothic-32" d="M 3659 63 
L 447 63 
L 447 594 
Q 825 1475 1894 2203 
L 2072 2322 
Q 2619 2697 2791 2906 
Q 2988 3153 2988 3444 
Q 2988 3772 2756 4003 
Q 2500 4259 2084 4259 
Q 1250 4259 991 3328 
L 497 3506 
Q 853 4725 2116 4725 
Q 2806 4725 3216 4316 
Q 3575 3947 3575 3425 
Q 3575 3038 3344 2722 
Q 3131 2416 2366 1938 
L 2231 1856 
Q 1256 1253 978 569 
L 3659 569 
L 3659 63 
z
" transform="scale(0.015625)"/>
       </defs>
       <use xlink:href="#IPAexGothic-32"/>
       <use xlink:href="#IPAexGothic-30" transform="translate(62.988281 0)"/>
       <use xlink:href="#IPAexGothic-6b73" transform="translate(125.976562 0)"/>
       <use xlink:href="#IPAexGothic-ff5e" transform="translate(225.976562 0)"/>
       <use xlink:href="#IPAexGothic-32" transform="translate(325.976562 0)"/>
       <use xlink:href="#IPAexGothic-34" transform="translate(388.964844 0)"/>
       <use xlink:href="#IPAexGothic-6b73" transform="translate(451.953125 0)"/>
      </g>
     </g>
    </g>
    <g id="xtick_8">
     <g id="line2d_8">
      <g>
       <use xlink:href="#m8c1880f4f7" x="381.901678" y="579.716084" style="stroke: #000000; stroke-width: 0.8"/>
      </g>
     </g>
     <g id="text_8">
      <!-- 25歳～29歳 -->
      <g transform="translate(333.456025 639.90554) rotate(-45) scale(0.12 -0.12)">
       <use xlink:href="#IPAexGothic-32"/>
       <use xlink:href="#IPAexGothic-35" transform="translate(62.988281 0)"/>
       <use xlink:href="#IPAexGothic-6b73" transform="translate(125.976562 0)"/>
       <use xlink:href="#IPAexGothic-ff5e" transform="translate(225.976562 0)"/>
       <use xlink:href="#IPAexGothic-32" transform="translate(325.976562 0)"/>
       <use xlink:href="#IPAexGothic-39" transform="translate(388.964844 0)"/>
       <use xlink:href="#IPAexGothic-6b73" transform="translate(451.953125 0)"/>
      </g>
     </g>
    </g>
    <g id="xtick_9">
     <g id="line2d_9">
      <g>
       <use xlink:href="#m8c1880f4f7" x="416.390357" y="579.716084" style="stroke: #000000; stroke-width: 0.8"/>
      </g>
     </g>
     <g id="text_9">
      <!-- 30歳～34歳 -->
      <g transform="translate(367.944704 639.90554) rotate(-45) scale(0.12 -0.12)">
       <defs>
        <path id="IPAexGothic-33" d="M 2381 2419 
Q 3506 2216 3506 1278 
Q 3506 716 3128 356 
Q 2709 -31 1944 -31 
Q 797 -31 288 881 
L 756 1131 
Q 1109 441 1938 441 
Q 2425 441 2694 691 
Q 2950 928 2950 1291 
Q 2950 1719 2566 1978 
Q 2216 2213 1644 2213 
L 1363 2213 
L 1363 2669 
L 1656 2669 
Q 2231 2669 2534 2888 
Q 2859 3119 2859 3509 
Q 2859 3934 2494 4138 
Q 2259 4278 1931 4278 
Q 1238 4278 903 3578 
L 434 3803 
Q 897 4725 1938 4725 
Q 2597 4725 3006 4394 
Q 3416 4069 3416 3534 
Q 3416 3028 3019 2706 
Q 2763 2500 2381 2444 
L 2381 2419 
z
" transform="scale(0.015625)"/>
       </defs>
       <use xlink:href="#IPAexGothic-33"/>
       <use xlink:href="#IPAexGothic-30" transform="translate(62.988281 0)"/>
       <use xlink:href="#IPAexGothic-6b73" transform="translate(125.976562 0)"/>
       <use xlink:href="#IPAexGothic-ff5e" transform="translate(225.976562 0)"/>
       <use xlink:href="#IPAexGothic-33" transform="translate(325.976562 0)"/>
       <use xlink:href="#IPAexGothic-34" transform="translate(388.964844 0)"/>
       <use xlink:href="#IPAexGothic-6b73" transform="translate(451.953125 0)"/>
      </g>
     </g>
    </g>
    <g id="xtick_10">
     <g id="line2d_10">
      <g>
       <use xlink:href="#m8c1880f4f7" x="450.879036" y="579.716084" style="stroke: #000000; stroke-width: 0.8"/>
      </g>
     </g>
     <g id="text_10">
      <!-- 35歳～39歳 -->
      <g transform="translate(402.433382 639.90554) rotate(-45) scale(0.12 -0.12)">
       <use xlink:href="#IPAexGothic-33"/>
       <use xlink:href="#IPAexGothic-35" transform="translate(62.988281 0)"/>
       <use xlink:href="#IPAexGothic-6b73" transform="translate(125.976562 0)"/>
       <use xlink:href="#IPAexGothic-ff5e" transform="translate(225.976562 0)"/>
       <use xlink:href="#IPAexGothic-33" transform="translate(325.976562 0)"/>
       <use xlink:href="#IPAexGothic-39" transform="translate(388.964844 0)"/>
       <use xlink:href="#IPAexGothic-6b73" transform="translate(451.953125 0)"/>
      </g>
     </g>
    </g>
    <g id="xtick_11">
     <g id="line2d_11">
      <g>
       <use xlink:href="#m8c1880f4f7" x="485.367714" y="579.716084" style="stroke: #000000; stroke-width: 0.8"/>
      </g>
     </g>
     <g id="text_11">
      <!-- 40歳～44歳 -->
      <g transform="translate(436.922061 639.90554) rotate(-45) scale(0.12 -0.12)">
       <use xlink:href="#IPAexGothic-34"/>
       <use xlink:href="#IPAexGothic-30" transform="translate(62.988281 0)"/>
       <use xlink:href="#IPAexGothic-6b73" transform="translate(125.976562 0)"/>
       <use xlink:href="#IPAexGothic-ff5e" transform="translate(225.976562 0)"/>
       <use xlink:href="#IPAexGothic-34" transform="translate(325.976562 0)"/>
       <use xlink:href="#IPAexGothic-34" transform="translate(388.964844 0)"/>
       <use xlink:href="#IPAexGothic-6b73" transform="translate(451.953125 0)"/>
      </g>
     </g>
    </g>
    <g id="xtick_12">
     <g id="line2d_12">
      <g>
       <use xlink:href="#m8c1880f4f7" x="519.856393" y="579.716084" style="stroke: #000000; stroke-width: 0.8"/>
      </g>
     </g>
     <g id="text_12">
      <!-- 45歳～49歳 -->
      <g transform="translate(471.410739 639.90554) rotate(-45) scale(0.12 -0.12)">
       <use xlink:href="#IPAexGothic-34"/>
       <use xlink:href="#IPAexGothic-35" transform="translate(62.988281 0)"/>
       <use xlink:href="#IPAexGothic-6b73" transform="translate(125.976562 0)"/>
       <use xlink:href="#IPAexGothic-ff5e" transform="translate(225.976562 0)"/>
       <use xlink:href="#IPAexGothic-34" transform="translate(325.976562 0)"/>
       <use xlink:href="#IPAexGothic-39" transform="translate(388.964844 0)"/>
       <use xlink:href="#IPAexGothic-6b73" transform="translate(451.953125 0)"/>
      </g>
     </g>
    </g>
    <g id="xtick_13">
     <g id="line2d_13">
      <g>
       <use xlink:href="#m8c1880f4f7" x="554.345071" y="579.716084" style="stroke: #000000; stroke-width: 0.8"/>
      </g>
     </g>
     <g id="text_13">
      <!-- 50歳～54歳 -->
      <g transform="translate(505.899418 639.90554) rotate(-45) scale(0.12 -0.12)">
       <use xlink:href="#IPAexGothic-35"/>
       <use xlink:href="#IPAexGothic-30" transform="translate(62.988281 0)"/>
       <use xlink:href="#IPAexGothic-6b73" transform="translate(125.976562 0)"/>
       <use xlink:href="#IPAexGothic-ff5e" transform="translate(225.976562 0)"/>
       <use xlink:href="#IPAexGothic-35" transform="translate(325.976562 0)"/>
       <use xlink:href="#IPAexGothic-34" transform="translate(388.964844 0)"/>
       <use xlink:href="#IPAexGothic-6b73" transform="translate(451.953125 0)"/>
      </g>
     </g>
    </g>
    <g id="xtick_14">
     <g id="line2d_14">
      <g>
       <use xlink:href="#m8c1880f4f7" x="588.83375" y="579.716084" style="stroke: #000000; stroke-width: 0.8"/>
      </g>
     </g>
     <g id="text_14">
      <!-- 55歳～59歳 -->
      <g transform="translate(540.388097 639.90554) rotate(-45) scale(0.12 -0.12)">
       <use xlink:href="#IPAexGothic-35"/>
       <use xlink:href="#IPAexGothic-35" transform="translate(62.988281 0)"/>
       <use xlink:href="#IPAexGothic-6b73" transform="translate(125.976562 0)"/>
       <use xlink:href="#IPAexGothic-ff5e" transform="translate(225.976562 0)"/>
       <use xlink:href="#IPAexGothic-35" transform="translate(325.976562 0)"/>
       <use xlink:href="#IPAexGothic-39" transform="translate(388.964844 0)"/>
       <use xlink:href="#IPAexGothic-6b73" transform="translate(451.953125 0)"/>
      </g>
     </g>
    </g>
    <g id="xtick_15">
     <g id="line2d_15">
      <g>
       <use xlink:href="#m8c1880f4f7" x="623.322429" y="579.716084" style="stroke: #000000; stroke-width: 0.8"/>
      </g>
     </g>
     <g id="text_15">
      <!-- 60歳～64歳 -->
      <g transform="translate(574.876775 639.90554) rotate(-45) scale(0.12 -0.12)">
       <use xlink:href="#IPAexGothic-36"/>
       <use xlink:href="#IPAexGothic-30" transform="translate(62.988281 0)"/>
       <use xlink:href="#IPAexGothic-6b73" transform="translate(125.976562 0)"/>
       <use xlink:href="#IPAexGothic-ff5e" transform="translate(225.976562 0)"/>
       <use xlink:href="#IPAexGothic-36" transform="translate(325.976562 0)"/>
       <use xlink:href="#IPAexGothic-34" transform="translate(388.964844 0)"/>
       <use xlink:href="#IPAexGothic-6b73" transform="translate(451.953125 0)"/>
      </g>
     </g>
    </g>
    <g id="xtick_16">
     <g id="line2d_16">
      <g>
       <use xlink:href="#m8c1880f4f7" x="657.811107" y="579.716084" style="stroke: #000000; stroke-width: 0.8"/>
      </g>
     </g>
     <g id="text_16">
      <!-- 65歳以上 -->
      <g transform="translate(620.054257 629.216738) rotate(-45) scale(0.12 -0.12)">
       <defs>
        <path id="IPAexGothic-4ee5" d="M 4509 1119 
Q 3834 188 2281 -378 
L 1981 38 
Q 3888 672 4359 1819 
Q 4700 2659 4700 4372 
L 4700 4978 
L 5181 4978 
L 5181 4459 
Q 5181 2416 4738 1503 
Q 5478 956 6141 256 
L 5763 -159 
Q 5191 556 4509 1119 
z
M 1581 1106 
Q 2331 1463 3175 2003 
L 3297 1600 
Q 2063 744 591 128 
L 341 581 
Q 863 784 1122 897 
L 1044 4922 
L 1519 4922 
L 1581 1106 
z
M 3344 3009 
Q 2856 3716 2259 4250 
L 2619 4563 
Q 3300 3972 3725 3353 
L 3344 3009 
z
" transform="scale(0.015625)"/>
        <path id="IPAexGothic-4e0a" d="M 3259 3366 
L 5475 3366 
L 5475 2913 
L 3259 2913 
L 3259 556 
L 5991 556 
L 5991 103 
L 391 103 
L 391 556 
L 2772 556 
L 2772 5050 
L 3259 5050 
L 3259 3366 
z
" transform="scale(0.015625)"/>
       </defs>
       <use xlink:href="#IPAexGothic-36"/>
       <use xlink:href="#IPAexGothic-35" transform="translate(62.988281 0)"/>
       <use xlink:href="#IPAexGothic-6b73" transform="translate(125.976562 0)"/>
       <use xlink:href="#IPAexGothic-4ee5" transform="translate(225.976562 0)"/>
       <use xlink:href="#IPAexGothic-4e0a" transform="translate(325.976562 0)"/>
      </g>
     </g>
    </g>
    <g id="xtick_17">
     <g id="line2d_17">
      <g>
       <use xlink:href="#m8c1880f4f7" x="692.299786" y="579.716084" style="stroke: #000000; stroke-width: 0.8"/>
      </g>
     </g>
     <g id="text_17">
      <!-- 65歳～69歳 -->
      <g transform="translate(643.854132 639.90554) rotate(-45) scale(0.12 -0.12)">
       <use xlink:href="#IPAexGothic-36"/>
       <use xlink:href="#IPAexGothic-35" transform="translate(62.988281 0)"/>
       <use xlink:href="#IPAexGothic-6b73" transform="translate(125.976562 0)"/>
       <use xlink:href="#IPAexGothic-ff5e" transform="translate(225.976562 0)"/>
       <use xlink:href="#IPAexGothic-36" transform="translate(325.976562 0)"/>
       <use xlink:href="#IPAexGothic-39" transform="translate(388.964844 0)"/>
       <use xlink:href="#IPAexGothic-6b73" transform="translate(451.953125 0)"/>
      </g>
     </g>
    </g>
    <g id="xtick_18">
     <g id="line2d_18">
      <g>
       <use xlink:href="#m8c1880f4f7" x="726.788464" y="579.716084" style="stroke: #000000; stroke-width: 0.8"/>
      </g>
     </g>
     <g id="text_18">
      <!-- 70歳～74歳 -->
      <g transform="translate(678.342811 639.90554) rotate(-45) scale(0.12 -0.12)">
       <defs>
        <path id="IPAexGothic-37" d="M 3597 4263 
Q 2238 2106 1778 63 
L 1131 63 
Q 1581 1834 2950 4128 
L 428 4128 
L 428 4634 
L 3597 4634 
L 3597 4263 
z
" transform="scale(0.015625)"/>
       </defs>
       <use xlink:href="#IPAexGothic-37"/>
       <use xlink:href="#IPAexGothic-30" transform="translate(62.988281 0)"/>
       <use xlink:href="#IPAexGothic-6b73" transform="translate(125.976562 0)"/>
       <use xlink:href="#IPAexGothic-ff5e" transform="translate(225.976562 0)"/>
       <use xlink:href="#IPAexGothic-37" transform="translate(325.976562 0)"/>
       <use xlink:href="#IPAexGothic-34" transform="translate(388.964844 0)"/>
       <use xlink:href="#IPAexGothic-6b73" transform="translate(451.953125 0)"/>
      </g>
     </g>
    </g>
    <g id="xtick_19">
     <g id="line2d_19">
      <g>
       <use xlink:href="#m8c1880f4f7" x="761.277143" y="579.716084" style="stroke: #000000; stroke-width: 0.8"/>
      </g>
     </g>
     <g id="text_19">
      <!-- 75歳～79歳 -->
      <g transform="translate(712.83149 639.90554) rotate(-45) scale(0.12 -0.12)">
       <use xlink:href="#IPAexGothic-37"/>
       <use xlink:href="#IPAexGothic-35" transform="translate(62.988281 0)"/>
       <use xlink:href="#IPAexGothic-6b73" transform="translate(125.976562 0)"/>
       <use xlink:href="#IPAexGothic-ff5e" transform="translate(225.976562 0)"/>
       <use xlink:href="#IPAexGothic-37" transform="translate(325.976562 0)"/>
       <use xlink:href="#IPAexGothic-39" transform="translate(388.964844 0)"/>
       <use xlink:href="#IPAexGothic-6b73" transform="translate(451.953125 0)"/>
      </g>
     </g>
    </g>
    <g id="xtick_20">
     <g id="line2d_20">
      <g>
       <use xlink:href="#m8c1880f4f7" x="795.765822" y="579.716084" style="stroke: #000000; stroke-width: 0.8"/>
      </g>
     </g>
     <g id="text_20">
      <!-- うち75歳以上 -->
      <g transform="translate(741.038408 646.1873) rotate(-45) scale(0.12 -0.12)">
       <defs>
        <path id="IPAexGothic-3046" d="M 3897 4025 
Q 3203 4456 2144 4728 
L 2381 5166 
Q 3353 4928 4166 4481 
L 3897 4025 
z
M 1172 3050 
Q 2872 3628 3566 3628 
Q 4269 3628 4603 3181 
Q 4847 2850 4847 2253 
Q 4847 372 2619 -275 
L 2278 159 
Q 3356 397 3881 994 
Q 4328 1503 4328 2228 
Q 4328 3181 3534 3181 
Q 2909 3181 1397 2553 
L 1172 3050 
z
" transform="scale(0.015625)"/>
        <path id="IPAexGothic-3061" d="M 684 4084 
Q 1250 4038 2131 4038 
Q 2269 4706 2328 5113 
L 2809 5044 
Q 2709 4494 2616 4056 
Q 3625 4103 4575 4300 
L 4634 3841 
Q 3650 3663 2509 3616 
Q 2281 2638 2003 1913 
Q 2956 2644 3956 2644 
Q 4522 2644 4891 2425 
Q 5447 2109 5447 1466 
Q 5447 -66 2425 -159 
L 2206 294 
Q 4941 344 4941 1472 
Q 4941 2234 3878 2234 
Q 3228 2234 2522 1819 
Q 2091 1563 1766 1216 
L 1356 1509 
Q 1756 2484 2028 3597 
Q 1122 3597 703 3622 
L 684 4084 
z
" transform="scale(0.015625)"/>
       </defs>
       <use xlink:href="#IPAexGothic-3046"/>
       <use xlink:href="#IPAexGothic-3061" transform="translate(100 0)"/>
       <use xlink:href="#IPAexGothic-37" transform="translate(200 0)"/>
       <use xlink:href="#IPAexGothic-35" transform="translate(262.988281 0)"/>
       <use xlink:href="#IPAexGothic-6b73" transform="translate(325.976562 0)"/>
       <use xlink:href="#IPAexGothic-4ee5" transform="translate(425.976562 0)"/>
       <use xlink:href="#IPAexGothic-4e0a" transform="translate(525.976562 0)"/>
      </g>
     </g>
    </g>
    <g id="xtick_21">
     <g id="line2d_21">
      <g>
       <use xlink:href="#m8c1880f4f7" x="830.2545" y="579.716084" style="stroke: #000000; stroke-width: 0.8"/>
      </g>
     </g>
     <g id="text_21">
      <!-- 80歳～84歳 -->
      <g transform="translate(781.808847 639.90554) rotate(-45) scale(0.12 -0.12)">
       <defs>
        <path id="IPAexGothic-38" d="M 2541 2425 
Q 3700 2031 3700 1197 
Q 3700 541 3100 197 
Q 2663 -56 2016 -56 
Q 1366 -56 928 197 
Q 347 531 347 1178 
Q 347 1988 1409 2381 
L 1409 2400 
Q 481 2734 481 3509 
Q 481 4100 981 4456 
Q 1406 4756 2019 4756 
Q 2703 4756 3131 4403 
Q 3553 4069 3553 3566 
Q 3553 2706 2541 2444 
L 2541 2425 
z
M 2022 2625 
Q 2997 2856 2997 3528 
Q 2997 3916 2675 4150 
Q 2413 4347 2016 4347 
Q 1606 4347 1331 4128 
Q 1050 3897 1050 3522 
Q 1050 3150 1350 2925 
Q 1494 2809 1722 2722 
Q 1984 2616 2022 2625 
z
M 1978 2209 
Q 922 1931 922 1216 
Q 922 775 1313 556 
Q 1606 391 2009 391 
Q 2575 391 2881 697 
Q 3106 922 3106 1250 
Q 3106 1594 2794 1850 
Q 2609 1994 2350 2100 
Q 2047 2222 1978 2209 
z
" transform="scale(0.015625)"/>
       </defs>
       <use xlink:href="#IPAexGothic-38"/>
       <use xlink:href="#IPAexGothic-30" transform="translate(62.988281 0)"/>
       <use xlink:href="#IPAexGothic-6b73" transform="translate(125.976562 0)"/>
       <use xlink:href="#IPAexGothic-ff5e" transform="translate(225.976562 0)"/>
       <use xlink:href="#IPAexGothic-38" transform="translate(325.976562 0)"/>
       <use xlink:href="#IPAexGothic-34" transform="translate(388.964844 0)"/>
       <use xlink:href="#IPAexGothic-6b73" transform="translate(451.953125 0)"/>
      </g>
     </g>
    </g>
    <g id="xtick_22">
     <g id="line2d_22">
      <g>
       <use xlink:href="#m8c1880f4f7" x="864.743179" y="579.716084" style="stroke: #000000; stroke-width: 0.8"/>
      </g>
     </g>
     <g id="text_22">
      <!-- 85歳～89歳 -->
      <g transform="translate(816.297526 639.90554) rotate(-45) scale(0.12 -0.12)">
       <use xlink:href="#IPAexGothic-38"/>
       <use xlink:href="#IPAexGothic-35" transform="translate(62.988281 0)"/>
       <use xlink:href="#IPAexGothic-6b73" transform="translate(125.976562 0)"/>
       <use xlink:href="#IPAexGothic-ff5e" transform="translate(225.976562 0)"/>
       <use xlink:href="#IPAexGothic-38" transform="translate(325.976562 0)"/>
       <use xlink:href="#IPAexGothic-39" transform="translate(388.964844 0)"/>
       <use xlink:href="#IPAexGothic-6b73" transform="translate(451.953125 0)"/>
      </g>
     </g>
    </g>
    <g id="xtick_23">
     <g id="line2d_23">
      <g>
       <use xlink:href="#m8c1880f4f7" x="899.231857" y="579.716084" style="stroke: #000000; stroke-width: 0.8"/>
      </g>
     </g>
     <g id="text_23">
      <!-- うち85歳以上 -->
      <g transform="translate(844.504444 646.1873) rotate(-45) scale(0.12 -0.12)">
       <use xlink:href="#IPAexGothic-3046"/>
       <use xlink:href="#IPAexGothic-3061" transform="translate(100 0)"/>
       <use xlink:href="#IPAexGothic-38" transform="translate(200 0)"/>
       <use xlink:href="#IPAexGothic-35" transform="translate(262.988281 0)"/>
       <use xlink:href="#IPAexGothic-6b73" transform="translate(325.976562 0)"/>
       <use xlink:href="#IPAexGothic-4ee5" transform="translate(425.976562 0)"/>
       <use xlink:href="#IPAexGothic-4e0a" transform="translate(525.976562 0)"/>
      </g>
     </g>
    </g>
    <g id="xtick_24">
     <g id="line2d_24">
      <g>
       <use xlink:href="#m8c1880f4f7" x="933.720536" y="579.716084" style="stroke: #000000; stroke-width: 0.8"/>
      </g>
     </g>
     <g id="text_24">
      <!-- 90歳～94歳 -->
      <g transform="translate(885.274883 639.90554) rotate(-45) scale(0.12 -0.12)">
       <use xlink:href="#IPAexGothic-39"/>
       <use xlink:href="#IPAexGothic-30" transform="translate(62.988281 0)"/>
       <use xlink:href="#IPAexGothic-6b73" transform="translate(125.976562 0)"/>
       <use xlink:href="#IPAexGothic-ff5e" transform="translate(225.976562 0)"/>
       <use xlink:href="#IPAexGothic-39" transform="translate(325.976562 0)"/>
       <use xlink:href="#IPAexGothic-34" transform="translate(388.964844 0)"/>
       <use xlink:href="#IPAexGothic-6b73" transform="translate(451.953125 0)"/>
      </g>
     </g>
    </g>
    <g id="xtick_25">
     <g id="line2d_25">
      <g>
       <use xlink:href="#m8c1880f4f7" x="968.209215" y="579.716084" style="stroke: #000000; stroke-width: 0.8"/>
      </g>
     </g>
     <g id="text_25">
      <!-- 95歳～99歳 -->
      <g transform="translate(919.763561 639.90554) rotate(-45) scale(0.12 -0.12)">
       <use xlink:href="#IPAexGothic-39"/>
       <use xlink:href="#IPAexGothic-35" transform="translate(62.988281 0)"/>
       <use xlink:href="#IPAexGothic-6b73" transform="translate(125.976562 0)"/>
       <use xlink:href="#IPAexGothic-ff5e" transform="translate(225.976562 0)"/>
       <use xlink:href="#IPAexGothic-39" transform="translate(325.976562 0)"/>
       <use xlink:href="#IPAexGothic-39" transform="translate(388.964844 0)"/>
       <use xlink:href="#IPAexGothic-6b73" transform="translate(451.953125 0)"/>
      </g>
     </g>
    </g>
    <g id="xtick_26">
     <g id="line2d_26">
      <g>
       <use xlink:href="#m8c1880f4f7" x="1002.697893" y="579.716084" style="stroke: #000000; stroke-width: 0.8"/>
      </g>
     </g>
     <g id="text_26">
      <!-- 100歳以上 -->
      <g transform="translate(959.596641 634.561139) rotate(-45) scale(0.12 -0.12)">
       <use xlink:href="#IPAexGothic-31"/>
       <use xlink:href="#IPAexGothic-30" transform="translate(62.988281 0)"/>
       <use xlink:href="#IPAexGothic-30" transform="translate(125.976562 0)"/>
       <use xlink:href="#IPAexGothic-6b73" transform="translate(188.964844 0)"/>
       <use xlink:href="#IPAexGothic-4ee5" transform="translate(288.964844 0)"/>
       <use xlink:href="#IPAexGothic-4e0a" transform="translate(388.964844 0)"/>
      </g>
     </g>
    </g>
    <g id="xtick_27">
     <g id="line2d_27">
      <g>
       <use xlink:href="#m8c1880f4f7" x="1037.186572" y="579.716084" style="stroke: #000000; stroke-width: 0.8"/>
      </g>
     </g>
     <g id="text_27">
      <!-- 総数 -->
      <g transform="translate(1018.603806 610.042653) rotate(-45) scale(0.12 -0.12)">
       <defs>
        <path id="IPAexGothic-7dcf" d="M 1247 3084 
Q 819 3691 384 4128 
L 666 4422 
Q 781 4306 916 4153 
Q 1281 4684 1541 5331 
L 1956 5119 
Q 1541 4356 1159 3859 
Q 1319 3647 1472 3425 
Q 1906 4094 2138 4550 
L 2522 4313 
Q 1872 3228 1313 2572 
L 1631 2591 
Q 2013 2613 2200 2631 
Q 2075 2919 1950 3150 
L 2297 3297 
Q 2606 2763 2822 2106 
L 2444 1919 
Q 2347 2231 2316 2316 
Q 2228 2294 1778 2234 
L 1778 -447 
L 1363 -447 
L 1363 2181 
L 1300 2175 
Q 1009 2144 434 2106 
L 288 2534 
Q 700 2544 863 2553 
Q 953 2678 1106 2891 
Q 1209 3031 1247 3084 
z
M 3409 2669 
Q 3819 3419 4063 4191 
L 4472 4072 
Q 4184 3253 3866 2681 
Q 4953 2734 5113 2753 
Q 4928 3034 4672 3372 
L 4991 3572 
Q 5491 3031 5900 2328 
L 5509 2059 
Q 5309 2434 5306 2438 
Q 4334 2303 2963 2228 
L 2828 2663 
Q 3141 2663 3297 2669 
L 3409 2669 
z
M 359 197 
Q 588 863 653 1759 
L 1063 1709 
Q 994 684 769 -13 
L 359 197 
z
M 2253 434 
Q 2128 1213 1944 1759 
L 2303 1869 
Q 2500 1438 2675 616 
L 2253 434 
z
M 2738 3563 
Q 3322 4222 3641 5163 
L 4025 5028 
Q 3697 3997 3041 3244 
L 2738 3563 
z
M 5709 3444 
Q 4950 4144 4500 5038 
L 4850 5216 
Q 5328 4403 6047 3803 
L 5709 3444 
z
M 2706 91 
Q 2963 725 3028 1503 
L 3431 1422 
Q 3334 431 3084 -153 
L 2706 91 
z
M 3675 1619 
L 4091 1619 
L 4091 250 
Q 4091 84 4194 56 
Q 4253 31 4431 31 
Q 4825 31 4872 191 
Q 4906 322 4916 813 
L 5331 678 
Q 5322 -144 5128 -275 
Q 4966 -391 4425 -391 
Q 3978 -391 3847 -306 
Q 3675 -203 3675 63 
L 3675 1619 
z
M 5753 38 
Q 5463 894 5150 1403 
L 5509 1575 
Q 5931 919 6138 263 
L 5753 38 
z
M 4647 1178 
Q 4309 1656 3922 1972 
L 4231 2222 
Q 4672 1897 4978 1478 
L 4647 1178 
z
" transform="scale(0.015625)"/>
        <path id="IPAexGothic-6570" d="M 2847 1553 
Q 2741 1006 2425 534 
Q 2625 441 3091 203 
L 2809 -188 
Q 2541 0 2144 209 
Q 1569 -291 703 -500 
L 422 -125 
Q 1263 19 1747 406 
Q 1222 650 734 816 
Q 975 1172 1147 1503 
L 1172 1553 
L 359 1553 
L 359 1925 
L 1344 1925 
Q 1406 2066 1569 2475 
L 1691 2450 
L 1691 3372 
Q 1250 2738 550 2303 
L 275 2663 
Q 1019 3013 1528 3641 
L 378 3641 
L 378 4006 
L 1691 4006 
L 1691 5313 
L 2113 5313 
L 2113 4006 
L 3297 4006 
L 3297 3641 
L 2113 3641 
L 2113 3513 
Q 2659 3291 3175 2963 
L 2956 2584 
Q 2553 2922 2113 3159 
L 2113 2372 
L 1966 2372 
Q 1928 2288 1872 2141 
Q 1806 1975 1784 1925 
L 3378 1925 
L 3378 1553 
L 2847 1553 
z
M 2419 1553 
L 1613 1553 
Q 1478 1269 1313 997 
Q 1559 909 2047 703 
Q 2313 1047 2419 1553 
z
M 4363 1163 
Q 3953 1781 3738 2638 
Q 3575 2281 3428 2016 
L 3103 2406 
Q 3675 3444 3916 5291 
L 4363 5200 
Q 4284 4666 4197 4197 
L 6009 4197 
L 6009 3775 
L 5503 3775 
Q 5397 2275 4869 1191 
Q 5419 503 6144 75 
L 5822 -378 
Q 5188 106 4631 788 
Q 4113 34 3341 -463 
L 3031 -78 
Q 3888 406 4363 1163 
z
M 4588 1594 
Q 4938 2388 5059 3775 
L 4100 3775 
Q 4041 3519 3972 3288 
Q 3981 3250 3991 3194 
Q 4175 2256 4588 1594 
z
M 1003 4116 
Q 878 4544 638 4934 
L 1053 5094 
Q 1247 4788 1438 4269 
L 1003 4116 
z
M 2316 4269 
Q 2550 4688 2688 5131 
L 3128 4997 
Q 2966 4588 2675 4128 
L 2316 4269 
z
" transform="scale(0.015625)"/>
       </defs>
       <use xlink:href="#IPAexGothic-7dcf"/>
       <use xlink:href="#IPAexGothic-6570" transform="translate(100 0)"/>
      </g>
     </g>
    </g>
    <g id="text_28">
     <!-- 年齢階級 -->
     <g transform="translate(556.83375 663.784504) scale(0.16 -0.16)">
      <defs>
       <path id="IPAexGothic-5e74" d="M 1772 4159 
Q 1444 3422 875 2803 
L 528 3166 
Q 1322 3941 1631 5259 
L 2109 5156 
Q 1994 4759 1931 4563 
L 5694 4563 
L 5694 4159 
L 3756 4159 
L 3756 3128 
L 5434 3128 
L 5434 2725 
L 3756 2725 
L 3756 1509 
L 6078 1509 
L 6078 1094 
L 3756 1094 
L 3756 -450 
L 3275 -450 
L 3275 1094 
L 447 1094 
L 447 1509 
L 1534 1509 
L 1534 3128 
L 3275 3128 
L 3275 4159 
L 1772 4159 
z
M 3275 2725 
L 1994 2725 
L 1994 1509 
L 3275 1509 
L 3275 2725 
z
" transform="scale(0.015625)"/>
       <path id="IPAexGothic-9f62" d="M 2094 4709 
L 2956 4709 
L 2956 4350 
L 2094 4350 
L 2094 3744 
L 3397 3744 
L 3397 3372 
L 244 3372 
L 244 3744 
L 866 3744 
L 866 4819 
L 1250 4819 
L 1250 3744 
L 1703 3744 
L 1703 5313 
L 2094 5313 
L 2094 4709 
z
M 872 2100 
L 1659 2100 
L 1659 3219 
L 2019 3219 
L 2019 2100 
L 2797 2100 
L 2797 3219 
L 3181 3219 
L 3181 2878 
L 3231 2931 
Q 3944 3719 4338 5209 
L 4794 5209 
Q 5306 3847 6234 2969 
L 5978 2559 
Q 5656 2891 5338 3322 
L 5338 2975 
L 3988 2975 
L 3988 3256 
Q 3728 2828 3422 2484 
L 3181 2872 
L 3181 -416 
L 2797 -416 
L 2797 -178 
L 872 -178 
L 872 -447 
L 481 -447 
L 481 3219 
L 872 3219 
L 872 2100 
z
M 1600 1759 
L 872 1759 
L 872 188 
L 2797 188 
L 2797 1759 
L 2019 1759 
L 2019 1534 
Q 2413 1303 2750 1013 
L 2522 713 
Q 2325 947 2019 1197 
L 2019 316 
L 1659 316 
L 1659 1331 
Q 1444 856 1094 488 
L 884 813 
Q 1322 1194 1600 1759 
z
M 5306 3366 
Q 4831 4034 4581 4722 
Q 4428 4066 4050 3366 
L 5306 3366 
z
M 5888 2338 
L 5888 538 
Q 5888 91 5450 91 
Q 5203 91 4916 141 
L 4863 556 
Q 5163 500 5350 500 
Q 5491 500 5491 684 
L 5491 1947 
L 4622 1947 
L 4622 -447 
L 4213 -447 
L 4213 1947 
L 3469 1947 
L 3469 2338 
L 5888 2338 
z
M 1216 2194 
Q 1116 2634 959 2969 
L 1291 3066 
Q 1441 2775 1553 2297 
L 1216 2194 
z
M 2091 2316 
Q 2284 2753 2359 3091 
L 2725 2969 
Q 2556 2506 2375 2203 
L 2091 2316 
z
" transform="scale(0.015625)"/>
       <path id="IPAexGothic-968e" d="M 2575 3150 
L 2575 5209 
L 2978 5209 
L 2978 4384 
L 3981 4384 
L 3981 4000 
L 2978 4000 
L 2978 3213 
Q 3478 3291 4009 3406 
L 4034 3053 
Q 3066 2797 2184 2675 
L 2044 3078 
Q 2113 3088 2244 3103 
Q 2391 3122 2447 3128 
L 2575 3150 
z
M 1588 3059 
Q 2191 2303 2191 1413 
Q 2191 1100 2122 919 
Q 2003 650 1613 650 
Q 1372 650 1122 691 
L 1050 1144 
Q 1309 1084 1538 1084 
Q 1763 1084 1763 1463 
Q 1763 2244 1159 3038 
Q 1519 3806 1691 4588 
L 909 4588 
L 909 -450 
L 488 -450 
L 488 4991 
L 1984 4991 
L 2209 4800 
Q 1931 3772 1588 3059 
z
M 4591 4275 
Q 5175 4438 5666 4716 
L 5959 4369 
Q 5338 4084 4591 3916 
L 4591 3378 
Q 4591 3128 5031 3128 
Q 5497 3128 5563 3225 
Q 5644 3322 5653 3866 
L 6075 3744 
Q 6047 3131 5941 2950 
Q 5794 2725 5072 2725 
Q 4594 2725 4413 2797 
Q 4188 2884 4188 3194 
L 4188 5209 
L 4591 5209 
L 4591 4275 
z
M 3619 2259 
Q 3672 2441 3728 2766 
L 4206 2681 
Q 4109 2403 4053 2259 
L 5666 2259 
L 5666 -447 
L 5238 -447 
L 5238 -122 
L 2984 -122 
L 2984 -447 
L 2556 -447 
L 2556 2259 
L 3619 2259 
z
M 2984 1888 
L 2984 1275 
L 5238 1275 
L 5238 1888 
L 2984 1888 
z
M 2984 916 
L 2984 250 
L 5238 250 
L 5238 916 
L 2984 916 
z
" transform="scale(0.015625)"/>
       <path id="IPAexGothic-7d1a" d="M 3622 2816 
Q 3594 2019 3494 1469 
Q 3284 338 2644 -513 
L 2319 -181 
Q 3003 716 3156 2059 
Q 3263 3041 3272 4525 
L 2716 4525 
L 2716 4928 
L 5050 4928 
L 5269 4728 
Q 5069 3675 4897 3128 
L 5728 3128 
Q 5547 1897 5025 997 
Q 5497 478 6138 50 
L 5825 -378 
Q 5191 125 4769 613 
Q 4269 -44 3559 -506 
L 3266 -131 
Q 4056 319 4500 953 
Q 3928 1716 3622 2816 
z
M 3650 4191 
Q 3891 2522 4738 1344 
Q 5059 1941 5209 2738 
L 4341 2738 
Q 4638 3650 4781 4525 
L 3656 4525 
L 3656 4434 
Q 3650 4409 3650 4191 
z
M 1313 3066 
Q 872 3691 444 4109 
L 744 4422 
Q 894 4263 969 4178 
Q 1341 4684 1622 5325 
L 2050 5113 
Q 1597 4363 1213 3884 
Q 1394 3656 1550 3419 
Q 1897 3922 2241 4556 
L 2638 4331 
Q 1959 3238 1378 2559 
Q 1838 2584 2400 2631 
Q 2303 2878 2159 3150 
L 2491 3309 
Q 2813 2769 3022 2069 
L 2644 1875 
Q 2591 2081 2509 2322 
Q 2328 2284 1978 2241 
L 1884 2228 
L 1884 -447 
L 1463 -447 
L 1463 2175 
L 1372 2163 
Q 1025 2122 456 2081 
L 322 2522 
Q 528 2528 925 2541 
Q 1081 2750 1313 3066 
z
M 403 213 
Q 656 884 725 1759 
L 1134 1709 
Q 1047 700 825 -19 
L 403 213 
z
M 2406 672 
Q 2253 1313 2034 1806 
L 2388 1941 
Q 2625 1509 2809 891 
L 2406 672 
z
" transform="scale(0.015625)"/>
      </defs>
      <use xlink:href="#IPAexGothic-5e74"/>
      <use xlink:href="#IPAexGothic-9f62" transform="translate(100 0)"/>
      <use xlink:href="#IPAexGothic-968e" transform="translate(200 0)"/>
      <use xlink:href="#IPAexGothic-7d1a" transform="translate(300 0)"/>
     </g>
    </g>
   </g>
   <g id="matplotlib.axis_2">
    <g id="ytick_1">
     <g id="line2d_28">
      <path d="M 78.57375 579.716084 
L 1099.09375 579.716084 
" clip-path="url(#pc56910fd84)" style="fill: none; stroke-dasharray: 2.96,1.28; stroke-dashoffset: 0; stroke: #b0b0b0; stroke-opacity: 0.3; stroke-width: 0.8"/>
     </g>
     <g id="line2d_29">
      <defs>
       <path id="m974be81d2c" d="M 0 0 
L -3.5 0 
" style="stroke: #000000; stroke-width: 0.8"/>
      </defs>
      <g>
       <use xlink:href="#m974be81d2c" x="78.57375" y="579.716084" style="stroke: #000000; stroke-width: 0.8"/>
      </g>
     </g>
     <g id="text_29">
      <!-- 0 -->
      <g transform="translate(64.015625 584.210459) scale(0.12 -0.12)">
       <use xlink:href="#IPAexGothic-30"/>
      </g>
     </g>
    </g>
    <g id="ytick_2">
     <g id="line2d_30">
      <path d="M 78.57375 504.304113 
L 1099.09375 504.304113 
" clip-path="url(#pc56910fd84)" style="fill: none; stroke-dasharray: 2.96,1.28; stroke-dashoffset: 0; stroke: #b0b0b0; stroke-opacity: 0.3; stroke-width: 0.8"/>
     </g>
     <g id="line2d_31">
      <g>
       <use xlink:href="#m974be81d2c" x="78.57375" y="504.304113" style="stroke: #000000; stroke-width: 0.8"/>
      </g>
     </g>
     <g id="text_30">
      <!-- 20000 -->
      <g transform="translate(33.783125 508.798488) scale(0.12 -0.12)">
       <use xlink:href="#IPAexGothic-32"/>
       <use xlink:href="#IPAexGothic-30" transform="translate(62.988281 0)"/>
       <use xlink:href="#IPAexGothic-30" transform="translate(125.976562 0)"/>
       <use xlink:href="#IPAexGothic-30" transform="translate(188.964844 0)"/>
       <use xlink:href="#IPAexGothic-30" transform="translate(251.953125 0)"/>
      </g>
     </g>
    </g>
    <g id="ytick_3">
     <g id="line2d_32">
      <path d="M 78.57375 428.892142 
L 1099.09375 428.892142 
" clip-path="url(#pc56910fd84)" style="fill: none; stroke-dasharray: 2.96,1.28; stroke-dashoffset: 0; stroke: #b0b0b0; stroke-opacity: 0.3; stroke-width: 0.8"/>
     </g>
     <g id="line2d_33">
      <g>
       <use xlink:href="#m974be81d2c" x="78.57375" y="428.892142" style="stroke: #000000; stroke-width: 0.8"/>
      </g>
     </g>
     <g id="text_31">
      <!-- 40000 -->
      <g transform="translate(33.783125 433.386517) scale(0.12 -0.12)">
       <use xlink:href="#IPAexGothic-34"/>
       <use xlink:href="#IPAexGothic-30" transform="translate(62.988281 0)"/>
       <use xlink:href="#IPAexGothic-30" transform="translate(125.976562 0)"/>
       <use xlink:href="#IPAexGothic-30" transform="translate(188.964844 0)"/>
       <use xlink:href="#IPAexGothic-30" transform="translate(251.953125 0)"/>
      </g>
     </g>
    </g>
    <g id="ytick_4">
     <g id="line2d_34">
      <path d="M 78.57375 353.480171 
L 1099.09375 353.480171 
" clip-path="url(#pc56910fd84)" style="fill: none; stroke-dasharray: 2.96,1.28; stroke-dashoffset: 0; stroke: #b0b0b0; stroke-opacity: 0.3; stroke-width: 0.8"/>
     </g>
     <g id="line2d_35">
      <g>
       <use xlink:href="#m974be81d2c" x="78.57375" y="353.480171" style="stroke: #000000; stroke-width: 0.8"/>
      </g>
     </g>
     <g id="text_32">
      <!-- 60000 -->
      <g transform="translate(33.783125 357.974546) scale(0.12 -0.12)">
       <use xlink:href="#IPAexGothic-36"/>
       <use xlink:href="#IPAexGothic-30" transform="translate(62.988281 0)"/>
       <use xlink:href="#IPAexGothic-30" transform="translate(125.976562 0)"/>
       <use xlink:href="#IPAexGothic-30" transform="translate(188.964844 0)"/>
       <use xlink:href="#IPAexGothic-30" transform="translate(251.953125 0)"/>
      </g>
     </g>
    </g>
    <g id="ytick_5">
     <g id="line2d_36">
      <path d="M 78.57375 278.068199 
L 1099.09375 278.068199 
" clip-path="url(#pc56910fd84)" style="fill: none; stroke-dasharray: 2.96,1.28; stroke-dashoffset: 0; stroke: #b0b0b0; stroke-opacity: 0.3; stroke-width: 0.8"/>
     </g>
     <g id="line2d_37">
      <g>
       <use xlink:href="#m974be81d2c" x="78.57375" y="278.068199" style="stroke: #000000; stroke-width: 0.8"/>
      </g>
     </g>
     <g id="text_33">
      <!-- 80000 -->
      <g transform="translate(33.783125 282.562574) scale(0.12 -0.12)">
       <use xlink:href="#IPAexGothic-38"/>
       <use xlink:href="#IPAexGothic-30" transform="translate(62.988281 0)"/>
       <use xlink:href="#IPAexGothic-30" transform="translate(125.976562 0)"/>
       <use xlink:href="#IPAexGothic-30" transform="translate(188.964844 0)"/>
       <use xlink:href="#IPAexGothic-30" transform="translate(251.953125 0)"/>
      </g>
     </g>
    </g>
    <g id="ytick_6">
     <g id="line2d_38">
      <path d="M 78.57375 202.656228 
L 1099.09375 202.656228 
" clip-path="url(#pc56910fd84)" style="fill: none; stroke-dasharray: 2.96,1.28; stroke-dashoffset: 0; stroke: #b0b0b0; stroke-opacity: 0.3; stroke-width: 0.8"/>
     </g>
     <g id="line2d_39">
      <g>
       <use xlink:href="#m974be81d2c" x="78.57375" y="202.656228" style="stroke: #000000; stroke-width: 0.8"/>
      </g>
     </g>
     <g id="text_34">
      <!-- 100000 -->
      <g transform="translate(26.225 207.150603) scale(0.12 -0.12)">
       <use xlink:href="#IPAexGothic-31"/>
       <use xlink:href="#IPAexGothic-30" transform="translate(62.988281 0)"/>
       <use xlink:href="#IPAexGothic-30" transform="translate(125.976562 0)"/>
       <use xlink:href="#IPAexGothic-30" transform="translate(188.964844 0)"/>
       <use xlink:href="#IPAexGothic-30" transform="translate(251.953125 0)"/>
       <use xlink:href="#IPAexGothic-30" transform="translate(314.941406 0)"/>
      </g>
     </g>
    </g>
    <g id="ytick_7">
     <g id="line2d_40">
      <path d="M 78.57375 127.244257 
L 1099.09375 127.244257 
" clip-path="url(#pc56910fd84)" style="fill: none; stroke-dasharray: 2.96,1.28; stroke-dashoffset: 0; stroke: #b0b0b0; stroke-opacity: 0.3; stroke-width: 0.8"/>
     </g>
     <g id="line2d_41">
      <g>
       <use xlink:href="#m974be81d2c" x="78.57375" y="127.244257" style="stroke: #000000; stroke-width: 0.8"/>
      </g>
     </g>
     <g id="text_35">
      <!-- 120000 -->
      <g transform="translate(26.225 131.738632) scale(0.12 -0.12)">
       <use xlink:href="#IPAexGothic-31"/>
       <use xlink:href="#IPAexGothic-32" transform="translate(62.988281 0)"/>
       <use xlink:href="#IPAexGothic-30" transform="translate(125.976562 0)"/>
       <use xlink:href="#IPAexGothic-30" transform="translate(188.964844 0)"/>
       <use xlink:href="#IPAexGothic-30" transform="translate(251.953125 0)"/>
       <use xlink:href="#IPAexGothic-30" transform="translate(314.941406 0)"/>
      </g>
     </g>
    </g>
    <g id="ytick_8">
     <g id="line2d_42">
      <path d="M 78.57375 51.832286 
L 1099.09375 51.832286 
" clip-path="url(#pc56910fd84)" style="fill: none; stroke-dasharray: 2.96,1.28; stroke-dashoffset: 0; stroke: #b0b0b0; stroke-opacity: 0.3; stroke-width: 0.8"/>
     </g>
     <g id="line2d_43">
      <g>
       <use xlink:href="#m974be81d2c" x="78.57375" y="51.832286" style="stroke: #000000; stroke-width: 0.8"/>
      </g>
     </g>
     <g id="text_36">
      <!-- 140000 -->
      <g transform="translate(26.225 56.326661) scale(0.12 -0.12)">
       <use xlink:href="#IPAexGothic-31"/>
       <use xlink:href="#IPAexGothic-34" transform="translate(62.988281 0)"/>
       <use xlink:href="#IPAexGothic-30" transform="translate(125.976562 0)"/>
       <use xlink:href="#IPAexGothic-30" transform="translate(188.964844 0)"/>
       <use xlink:href="#IPAexGothic-30" transform="translate(251.953125 0)"/>
       <use xlink:href="#IPAexGothic-30" transform="translate(314.941406 0)"/>
      </g>
     </g>
    </g>
    <g id="text_37">
     <!-- 人口（人） -->
     <g transform="translate(19.185 350.948667) rotate(-90) scale(0.16 -0.16)">
      <defs>
       <path id="IPAexGothic-4eba" d="M 3434 5081 
L 3434 4659 
Q 3434 3131 4050 2069 
Q 4669 994 6022 275 
L 5644 -197 
Q 4359 588 3641 1863 
Q 3394 2300 3225 3009 
Q 2822 766 819 -325 
L 441 97 
Q 1856 759 2438 1972 
Q 2919 2959 2919 4634 
L 2919 5081 
L 3434 5081 
z
" transform="scale(0.015625)"/>
       <path id="IPAexGothic-53e3" d="M 5425 4500 
L 5425 -56 
L 4913 -56 
L 4913 391 
L 1478 391 
L 1478 -97 
L 966 -97 
L 966 4500 
L 5425 4500 
z
M 1478 4047 
L 1478 838 
L 4913 838 
L 4913 4047 
L 1478 4047 
z
" transform="scale(0.015625)"/>
       <path id="IPAexGothic-ff08" d="M 5419 -434 
Q 4197 769 4197 2438 
Q 4197 4097 5419 5300 
L 5919 5300 
Q 4678 4078 4678 2425 
Q 4678 788 5919 -434 
L 5419 -434 
z
" transform="scale(0.015625)"/>
       <path id="IPAexGothic-ff09" d="M 481 -434 
Q 1722 788 1722 2431 
Q 1722 4066 481 5300 
L 981 5300 
Q 2203 4097 2203 2431 
Q 2203 769 981 -434 
L 481 -434 
z
" transform="scale(0.015625)"/>
      </defs>
      <use xlink:href="#IPAexGothic-4eba"/>
      <use xlink:href="#IPAexGothic-53e3" transform="translate(100 0)"/>
      <use xlink:href="#IPAexGothic-ff08" transform="translate(200 0)"/>
      <use xlink:href="#IPAexGothic-4eba" transform="translate(300 0)"/>
      <use xlink:href="#IPAexGothic-ff09" transform="translate(400 0)"/>
     </g>
    </g>
   </g>
   <g id="patch_84">
    <path d="M 78.57375 579.716084 
L 78.57375 42.18125 
" style="fill: none; stroke: #000000; stroke-width: 0.8; stroke-linejoin: miter; stroke-linecap: square"/>
   </g>
   <g id="patch_85">
    <path d="M 1099.09375 579.716084 
L 1099.09375 42.18125 
" style="fill: none; stroke: #000000; stroke-width: 0.8; stroke-linejoin: miter; stroke-linecap: square"/>
   </g>
   <g id="patch_86">
    <path d="M 78.57375 579.716084 
L 1099.09375 579.716084 
" style="fill: none; stroke: #000000; stroke-width: 0.8; stroke-linejoin: miter; stroke-linecap: square"/>
   </g>
   <g id="patch_87">
    <path d="M 78.57375 42.18125 
L 1099.09375 42.18125 
" style="fill: none; stroke: #000000; stroke-width: 0.8; stroke-linejoin: miter; stroke-linecap: square"/>
   </g>
   <g id="text_38">
    <!-- 年齢階級別の人口分布（男女計・男子・女子） -->
    <g transform="translate(378.83375 22.18125) scale(0.2 -0.2)">
     <defs>
      <path id="IPAexGothic-5225" d="M 1922 2963 
Q 1906 2453 1894 2209 
L 3341 2209 
Q 3313 550 3175 63 
Q 3059 -366 2413 -366 
Q 2072 -366 1753 -313 
L 1691 134 
Q 2084 63 2413 63 
Q 2694 63 2759 319 
Q 2856 722 2888 1753 
Q 2888 1800 2894 1819 
L 1863 1819 
Q 1709 350 700 -481 
L 353 -147 
Q 1075 403 1306 1256 
Q 1450 1822 1478 2963 
L 700 2963 
L 700 4984 
L 3278 4984 
L 3278 2963 
L 1922 2963 
z
M 1141 4588 
L 1141 3353 
L 2838 3353 
L 2838 4588 
L 1141 4588 
z
M 3972 4597 
L 4425 4597 
L 4425 1159 
L 3972 1159 
L 3972 4597 
z
M 5309 5044 
L 5763 5044 
L 5763 191 
Q 5763 -141 5581 -263 
Q 5438 -359 5116 -359 
Q 4688 -359 4253 -313 
L 4156 178 
Q 4625 116 5072 116 
Q 5309 116 5309 353 
L 5309 5044 
z
" transform="scale(0.015625)"/>
      <path id="IPAexGothic-306e" d="M 3119 469 
Q 5275 766 5275 2425 
Q 5275 3453 4413 3925 
Q 4041 4116 3547 4159 
Q 3394 2525 2850 1400 
Q 2322 306 1722 306 
Q 1384 306 1084 666 
Q 609 1244 609 2003 
Q 609 3025 1397 3794 
Q 2184 4563 3431 4563 
Q 4306 4563 4928 4122 
Q 5813 3506 5813 2425 
Q 5813 438 3431 6 
L 3119 469 
z
M 3053 4147 
Q 2378 4044 1891 3641 
Q 1097 2981 1097 1991 
Q 1097 1366 1434 978 
Q 1581 813 1719 813 
Q 2022 813 2416 1625 
Q 2909 2638 3053 4147 
z
" transform="scale(0.015625)"/>
      <path id="IPAexGothic-5206" d="M 3031 2431 
Q 2916 1378 2528 759 
Q 1991 -81 941 -469 
L 625 -53 
Q 2356 488 2541 2431 
L 1375 2431 
L 1375 2772 
Q 1044 2431 653 2156 
L 313 2534 
Q 1600 3425 2219 5056 
L 2688 4875 
Q 2200 3672 1453 2847 
L 4966 2847 
Q 4878 559 4741 94 
Q 4666 -163 4459 -250 
Q 4288 -322 3941 -322 
Q 3525 -322 2981 -263 
L 2884 256 
Q 3441 138 3844 138 
Q 4213 138 4281 438 
Q 4388 931 4472 2431 
L 3031 2431 
z
M 5747 2303 
Q 4416 3238 3506 4934 
L 3934 5113 
Q 4747 3572 6084 2747 
L 5747 2303 
z
" transform="scale(0.015625)"/>
      <path id="IPAexGothic-5e03" d="M 3228 2741 
L 3228 3584 
L 3688 3584 
L 3688 2741 
L 5500 2741 
L 5500 750 
Q 5500 475 5353 369 
Q 5228 272 4900 272 
Q 4625 272 4269 291 
L 4188 775 
Q 4600 713 4834 713 
Q 5047 713 5047 956 
L 5047 2325 
L 3688 2325 
L 3688 -447 
L 3228 -447 
L 3228 2325 
L 2056 2325 
L 2056 91 
L 1603 91 
L 1603 2228 
Q 1159 1747 622 1313 
L 303 1691 
Q 1544 2625 2144 3847 
L 516 3847 
L 516 4275 
L 2338 4275 
Q 2506 4684 2656 5228 
L 3150 5153 
Q 2988 4581 2856 4275 
L 5984 4275 
L 5984 3847 
L 2669 3847 
Q 2369 3231 2009 2741 
L 3228 2741 
z
" transform="scale(0.015625)"/>
      <path id="IPAexGothic-7537" d="M 3306 2572 
L 3306 2003 
L 5666 2003 
Q 5569 419 5466 103 
Q 5322 -331 4691 -331 
Q 4181 -331 3569 -281 
L 3494 206 
Q 4116 103 4597 103 
Q 4953 103 5031 391 
Q 5131 759 5178 1594 
L 3269 1594 
Q 3138 775 2550 281 
Q 1975 -197 928 -475 
L 628 -63 
Q 2631 428 2794 1544 
L 647 1544 
L 647 1953 
L 2838 1953 
L 2838 2572 
L 1063 2572 
L 1063 4978 
L 5331 4978 
L 5331 2572 
L 3306 2572 
z
M 1516 4606 
L 1516 3969 
L 2956 3969 
L 2956 4606 
L 1516 4606 
z
M 1516 3609 
L 1516 2944 
L 2956 2944 
L 2956 3609 
L 1516 3609 
z
M 4878 2944 
L 4878 3609 
L 3397 3609 
L 3397 2944 
L 4878 2944 
z
M 4878 3969 
L 4878 4606 
L 3397 4606 
L 3397 3969 
L 4878 3969 
z
" transform="scale(0.015625)"/>
      <path id="IPAexGothic-5973" d="M 1869 1659 
Q 1816 1553 1600 1172 
L 1159 1353 
Q 1744 2413 2088 3266 
L 481 3266 
L 481 3700 
L 2259 3700 
Q 2538 4419 2741 5197 
L 3228 5081 
Q 2988 4238 2778 3700 
L 5916 3700 
L 5916 3266 
L 4822 3266 
Q 4813 3253 4813 3222 
Q 4575 2003 3950 1166 
Q 4828 731 5800 169 
L 5403 -266 
Q 4622 263 3631 809 
Q 2672 -53 788 -331 
L 519 103 
Q 2313 322 3194 1031 
Q 2678 1300 2003 1603 
L 1869 1659 
z
M 2056 2031 
L 2228 1953 
Q 2947 1659 3522 1372 
Q 3534 1397 3547 1409 
Q 4050 2063 4309 3209 
L 4328 3266 
L 2613 3266 
Q 2378 2666 2056 2031 
z
" transform="scale(0.015625)"/>
      <path id="IPAexGothic-8a08" d="M 2853 1684 
L 2853 -416 
L 2413 -416 
L 2413 -128 
L 1088 -128 
L 1088 -447 
L 647 -447 
L 647 1684 
L 2853 1684 
z
M 1088 1300 
L 1088 256 
L 2413 256 
L 2413 1300 
L 1088 1300 
z
M 4322 3225 
L 4322 5178 
L 4781 5178 
L 4781 3225 
L 6063 3225 
L 6063 2797 
L 4781 2797 
L 4781 -447 
L 4322 -447 
L 4322 2797 
L 3063 2797 
L 3063 3225 
L 4322 3225 
z
M 781 5044 
L 2722 5044 
L 2722 4647 
L 781 4647 
L 781 5044 
z
M 384 4206 
L 3150 4206 
L 3150 3803 
L 384 3803 
L 384 4206 
z
M 781 3359 
L 2722 3359 
L 2722 2963 
L 781 2963 
L 781 3359 
z
M 781 2522 
L 2722 2522 
L 2722 2125 
L 781 2125 
L 781 2522 
z
" transform="scale(0.015625)"/>
      <path id="IPAexGothic-30fb" d="M 2772 2859 
L 3628 2859 
L 3628 2003 
L 2772 2003 
L 2772 2859 
z
" transform="scale(0.015625)"/>
      <path id="IPAexGothic-5b50" d="M 3481 3263 
L 3481 2566 
L 5938 2566 
L 5938 2125 
L 3519 2125 
L 3519 206 
Q 3519 -56 3425 -172 
Q 3306 -325 2897 -325 
Q 2569 -325 1944 -269 
L 1847 263 
Q 2409 181 2763 181 
Q 3025 181 3025 416 
L 3025 2125 
L 453 2125 
L 453 2566 
L 2988 2566 
L 2988 3488 
Q 3784 3844 4509 4366 
L 1113 4366 
L 1113 4794 
L 5150 4794 
L 5431 4500 
Q 4466 3788 3481 3263 
z
" transform="scale(0.015625)"/>
     </defs>
     <use xlink:href="#IPAexGothic-5e74"/>
     <use xlink:href="#IPAexGothic-9f62" transform="translate(100 0)"/>
     <use xlink:href="#IPAexGothic-968e" transform="translate(200 0)"/>
     <use xlink:href="#IPAexGothic-7d1a" transform="translate(300 0)"/>
     <use xlink:href="#IPAexGothic-5225" transform="translate(400 0)"/>
     <use xlink:href="#IPAexGothic-306e" transform="translate(500 0)"/>
     <use xlink:href="#IPAexGothic-4eba" transform="translate(600 0)"/>
     <use xlink:href="#IPAexGothic-53e3" transform="translate(700 0)"/>
     <use xlink:href="#IPAexGothic-5206" transform="translate(800 0)"/>
     <use xlink:href="#IPAexGothic-5e03" transform="translate(900 0)"/>
     <use xlink:href="#IPAexGothic-ff08" transform="translate(1000 0)"/>
     <use xlink:href="#IPAexGothic-7537" transform="translate(1100 0)"/>
     <use xlink:href="#IPAexGothic-5973" transform="translate(1200 0)"/>
     <use xlink:href="#IPAexGothic-8a08" transform="translate(1300 0)"/>
     <use xlink:href="#IPAexGothic-30fb" transform="translate(1400 0)"/>
     <use xlink:href="#IPAexGothic-7537" transform="translate(1500 0)"/>
     <use xlink:href="#IPAexGothic-5b50" transform="translate(1600 0)"/>
     <use xlink:href="#IPAexGothic-30fb" transform="translate(1700 0)"/>
     <use xlink:href="#IPAexGothic-5973" transform="translate(1800 0)"/>
     <use xlink:href="#IPAexGothic-5b50" transform="translate(1900 0)"/>
     <use xlink:href="#IPAexGothic-ff09" transform="translate(2000 0)"/>
    </g>
   </g>
   <g id="legend_1">
    <g id="patch_88">
     <path d="M 1002.49375 113.821875 
L 1089.29375 113.821875 
Q 1092.09375 113.821875 1092.09375 111.021875 
L 1092.09375 51.98125 
Q 1092.09375 49.18125 1089.29375 49.18125 
L 1002.49375 49.18125 
Q 999.69375 49.18125 999.69375 51.98125 
L 999.69375 111.021875 
Q 999.69375 113.821875 1002.49375 113.821875 
z
" style="fill: #ffffff; opacity: 0.9; stroke: #cccccc; stroke-linejoin: miter"/>
    </g>
    <g id="patch_89">
     <path d="M 1005.29375 65.268125 
L 1033.29375 65.268125 
L 1033.29375 55.468125 
L 1005.29375 55.468125 
z
" style="fill: #2e86ab; opacity: 0.8; stroke: #ffffff; stroke-linejoin: miter"/>
    </g>
    <g id="text_39">
     <!-- 男女計 -->
     <g transform="translate(1044.49375 65.268125) scale(0.14 -0.14)">
      <use xlink:href="#IPAexGothic-7537"/>
      <use xlink:href="#IPAexGothic-5973" transform="translate(100 0)"/>
      <use xlink:href="#IPAexGothic-8a08" transform="translate(200 0)"/>
     </g>
    </g>
    <g id="patch_90">
     <path d="M 1005.29375 85.415 
L 1033.29375 85.415 
L 1033.29375 75.615 
L 1005.29375 75.615 
z
" style="fill: #a23b72; opacity: 0.8; stroke: #ffffff; stroke-linejoin: miter"/>
    </g>
    <g id="text_40">
     <!-- 男子 -->
     <g transform="translate(1044.49375 85.415) scale(0.14 -0.14)">
      <use xlink:href="#IPAexGothic-7537"/>
      <use xlink:href="#IPAexGothic-5b50" transform="translate(100 0)"/>
     </g>
    </g>
    <g id="patch_91">
     <path d="M 1005.29375 105.561875 
L 1033.29375 105.561875 
L 1033.29375 95.761875 
L 1005.29375 95.761875 
z
" style="fill: #f18f01; opacity: 0.8; stroke: #ffffff; stroke-linejoin: miter"/>
    </g>
    <g id="text_41">
     <!-- 女子 -->
     <g transform="translate(1044.49375 105.561875) scale(0.14 -0.14)">
      <use xlink:href="#IPAexGothic-5973"/>
      <use xlink:href="#IPAexGothic-5b50" transform="translate(100 0)"/>
     </g>
    </g>
   </g>
  </g>
 </g>
 <defs>
  <clipPath id="pc56910fd84">
   <rect x="78.57375" y="42.18125" width="1020.52" height="537.534834"/>
  </clipPath>
 </defs>
</svg>
