<?xml version="1.0" encoding="utf-8" standalone="no"?>
<!DOCTYPE svg PUBLIC "-//W3C//DTD SVG 1.1//EN"
  "http://www.w3.org/Graphics/SVG/1.1/DTD/svg11.dtd">
<svg xmlns:xlink="http://www.w3.org/1999/xlink" width="1106.29375pt" height="674.024504pt" viewBox="0 0 1106.29375 674.024504" xmlns="http://www.w3.org/2000/svg" version="1.1">
 <metadata>
  <rdf:RDF xmlns:dc="http://purl.org/dc/elements/1.1/" xmlns:cc="http://creativecommons.org/ns#" xmlns:rdf="http://www.w3.org/1999/02/22-rdf-syntax-ns#">
   <cc:Work>
    <dc:type rdf:resource="http://purl.org/dc/dcmitype/StillImage"/>
    <dc:date>2025-09-11T15:14:02.476943</dc:date>
    <dc:format>image/svg+xml</dc:format>
    <dc:creator>
     <cc:Agent>
      <dc:title>Matplotlib v3.10.5, https://matplotlib.org/</dc:title>
     </cc:Agent>
    </dc:creator>
   </cc:Work>
  </rdf:RDF>
 </metadata>
 <defs>
  <style type="text/css">*{stroke-linejoin: round; stroke-linecap: butt}</style>
 </defs>
 <g id="figure_1">
  <g id="patch_1">
   <path d="M 0 674.024504 
L 1106.29375 674.024504 
L 1106.29375 0 
L 0 0 
z
" style="fill: #ffffff"/>
  </g>
  <g id="axes_1">
   <g id="patch_2">
    <path d="M 78.57375 579.716084 
L 1099.09375 579.716084 
L 1099.09375 42.18125 
L 78.57375 42.18125 
z
" style="fill: #ffffff"/>
   </g>
   <g id="patch_3">
    <path d="M 124.961023 579.716084 
L 145.887612 579.716084 
L 145.887612 563.634482 
L 124.961023 563.634482 
z
" clip-path="url(#p3de085058b)" style="fill: #b7d4ea; opacity: 0.8; stroke: #b7d4ea; stroke-width: 2; stroke-linejoin: miter"/>
   </g>
   <g id="patch_4">
    <path d="M 159.838671 579.716084 
L 180.765261 579.716084 
L 180.765261 560.425702 
L 159.838671 560.425702 
z
" clip-path="url(#p3de085058b)" style="fill: #aed1e7; opacity: 0.8; stroke: #aed1e7; stroke-width: 2; stroke-linejoin: miter"/>
   </g>
   <g id="patch_5">
    <path d="M 194.71632 579.716084 
L 215.642909 579.716084 
L 215.642909 558.284002 
L 194.71632 558.284002 
z
" clip-path="url(#p3de085058b)" style="fill: #a5cde3; opacity: 0.8; stroke: #a5cde3; stroke-width: 2; stroke-linejoin: miter"/>
   </g>
   <g id="patch_6">
    <path d="M 229.593969 579.716084 
L 250.520558 579.716084 
L 250.520558 522.832835 
L 229.593969 522.832835 
z
" clip-path="url(#p3de085058b)" style="fill: #9dcae1; opacity: 0.8; stroke: #9dcae1; stroke-width: 2; stroke-linejoin: miter"/>
   </g>
   <g id="patch_7">
    <path d="M 264.471617 579.716084 
L 285.398207 579.716084 
L 285.398207 557.096264 
L 264.471617 557.096264 
z
" clip-path="url(#p3de085058b)" style="fill: #92c4de; opacity: 0.8; stroke: #92c4de; stroke-width: 2; stroke-linejoin: miter"/>
   </g>
   <g id="patch_8">
    <path d="M 299.349266 579.716084 
L 320.275855 579.716084 
L 320.275855 274.22973 
L 299.349266 274.22973 
z
" clip-path="url(#p3de085058b)" style="fill: #89bedc; opacity: 0.8; stroke: #89bedc; stroke-width: 2; stroke-linejoin: miter"/>
   </g>
   <g id="patch_9">
    <path d="M 334.226915 579.716084 
L 355.153504 579.716084 
L 355.153504 553.834696 
L 334.226915 553.834696 
z
" clip-path="url(#p3de085058b)" style="fill: #7db8da; opacity: 0.8; stroke: #7db8da; stroke-width: 2; stroke-linejoin: miter"/>
   </g>
   <g id="patch_10">
    <path d="M 369.104563 579.716084 
L 390.031153 579.716084 
L 390.031153 552.801552 
L 369.104563 552.801552 
z
" clip-path="url(#p3de085058b)" style="fill: #72b2d8; opacity: 0.8; stroke: #72b2d8; stroke-width: 2; stroke-linejoin: miter"/>
   </g>
   <g id="patch_11">
    <path d="M 403.982212 579.716084 
L 424.908801 579.716084 
L 424.908801 553.193694 
L 403.982212 553.193694 
z
" clip-path="url(#p3de085058b)" style="fill: #69add5; opacity: 0.8; stroke: #69add5; stroke-width: 2; stroke-linejoin: miter"/>
   </g>
   <g id="patch_12">
    <path d="M 438.859861 579.716084 
L 459.78645 579.716084 
L 459.78645 551.493154 
L 438.859861 551.493154 
z
" clip-path="url(#p3de085058b)" style="fill: #60a7d2; opacity: 0.8; stroke: #60a7d2; stroke-width: 2; stroke-linejoin: miter"/>
   </g>
   <g id="patch_13">
    <path d="M 473.737509 579.716084 
L 494.664099 579.716084 
L 494.664099 548.322081 
L 473.737509 548.322081 
z
" clip-path="url(#p3de085058b)" style="fill: #57a0ce; opacity: 0.8; stroke: #57a0ce; stroke-width: 2; stroke-linejoin: miter"/>
   </g>
   <g id="patch_14">
    <path d="M 508.615158 579.716084 
L 529.541747 579.716084 
L 529.541747 543.925563 
L 508.615158 543.925563 
z
" clip-path="url(#p3de085058b)" style="fill: #4f9bcb; opacity: 0.8; stroke: #4f9bcb; stroke-width: 2; stroke-linejoin: miter"/>
   </g>
   <g id="patch_15">
    <path d="M 543.492807 579.716084 
L 564.419396 579.716084 
L 564.419396 539.042638 
L 543.492807 539.042638 
z
" clip-path="url(#p3de085058b)" style="fill: #4695c8; opacity: 0.8; stroke: #4695c8; stroke-width: 2; stroke-linejoin: miter"/>
   </g>
   <g id="patch_16">
    <path d="M 578.370455 579.716084 
L 599.297045 579.716084 
L 599.297045 544.317705 
L 578.370455 544.317705 
z
" clip-path="url(#p3de085058b)" style="fill: #3e8ec4; opacity: 0.8; stroke: #3e8ec4; stroke-width: 2; stroke-linejoin: miter"/>
   </g>
   <g id="patch_17">
    <path d="M 613.248104 579.716084 
L 634.174693 579.716084 
L 634.174693 548.092074 
L 613.248104 548.092074 
z
" clip-path="url(#p3de085058b)" style="fill: #3888c1; opacity: 0.8; stroke: #3888c1; stroke-width: 2; stroke-linejoin: miter"/>
   </g>
   <g id="patch_18">
    <path d="M 648.125753 579.716084 
L 669.052342 579.716084 
L 669.052342 429.397402 
L 648.125753 429.397402 
z
" clip-path="url(#p3de085058b)" style="fill: #3181bd; opacity: 0.8; stroke: #3181bd; stroke-width: 2; stroke-linejoin: miter"/>
   </g>
   <g id="patch_19">
    <path d="M 683.003401 579.716084 
L 703.929991 579.716084 
L 703.929991 549.811467 
L 683.003401 549.811467 
z
" clip-path="url(#p3de085058b)" style="fill: #2b7bba; opacity: 0.8; stroke: #2b7bba; stroke-width: 2; stroke-linejoin: miter"/>
   </g>
   <g id="patch_20">
    <path d="M 717.88105 579.716084 
L 738.807639 579.716084 
L 738.807639 546.527276 
L 717.88105 546.527276 
z
" clip-path="url(#p3de085058b)" style="fill: #2373b6; opacity: 0.8; stroke: #2373b6; stroke-width: 2; stroke-linejoin: miter"/>
   </g>
   <g id="patch_21">
    <path d="M 752.758699 579.716084 
L 773.685288 579.716084 
L 773.685288 546.108739 
L 752.758699 546.108739 
z
" clip-path="url(#p3de085058b)" style="fill: #1d6cb1; opacity: 0.8; stroke: #1d6cb1; stroke-width: 2; stroke-linejoin: miter"/>
   </g>
   <g id="patch_22">
    <path d="M 787.636347 579.716084 
L 808.562937 579.716084 
L 808.562937 492.585093 
L 787.636347 492.585093 
z
" clip-path="url(#p3de085058b)" style="fill: #1966ad; opacity: 0.8; stroke: #1966ad; stroke-width: 2; stroke-linejoin: miter"/>
   </g>
   <g id="patch_23">
    <path d="M 822.513996 579.716084 
L 843.440585 579.716084 
L 843.440585 554.566192 
L 822.513996 554.566192 
z
" clip-path="url(#p3de085058b)" style="fill: #135fa7; opacity: 0.8; stroke: #135fa7; stroke-width: 2; stroke-linejoin: miter"/>
   </g>
   <g id="patch_24">
    <path d="M 857.391645 579.716084 
L 878.318234 579.716084 
L 878.318234 563.272504 
L 857.391645 563.272504 
z
" clip-path="url(#p3de085058b)" style="fill: #0e58a2; opacity: 0.8; stroke: #0e58a2; stroke-width: 2; stroke-linejoin: miter"/>
   </g>
   <g id="patch_25">
    <path d="M 892.269293 579.716084 
L 913.195883 579.716084 
L 913.195883 551.432825 
L 892.269293 551.432825 
z
" clip-path="url(#p3de085058b)" style="fill: #09529d; opacity: 0.8; stroke: #09529d; stroke-width: 2; stroke-linejoin: miter"/>
   </g>
   <g id="patch_26">
    <path d="M 927.146942 579.716084 
L 948.073531 579.716084 
L 948.073531 570.979608 
L 927.146942 570.979608 
z
" clip-path="url(#p3de085058b)" style="fill: #084b93; opacity: 0.8; stroke: #084b93; stroke-width: 2; stroke-linejoin: miter"/>
   </g>
   <g id="patch_27">
    <path d="M 962.024591 579.716084 
L 982.95118 579.716084 
L 982.95118 577.020107 
L 962.024591 577.020107 
z
" clip-path="url(#p3de085058b)" style="fill: #084488; opacity: 0.8; stroke: #084488; stroke-width: 2; stroke-linejoin: miter"/>
   </g>
   <g id="patch_28">
    <path d="M 996.902239 579.716084 
L 1017.828829 579.716084 
L 1017.828829 579.342795 
L 996.902239 579.342795 
z
" clip-path="url(#p3de085058b)" style="fill: #083d7f; opacity: 0.8; stroke: #083d7f; stroke-width: 2; stroke-linejoin: miter"/>
   </g>
   <g id="patch_29">
    <path d="M 1031.779888 579.716084 
L 1052.706477 579.716084 
L 1052.706477 67.778147 
L 1031.779888 67.778147 
z
" clip-path="url(#p3de085058b)" style="fill: #083674; opacity: 0.8; stroke: #083674; stroke-width: 2; stroke-linejoin: miter"/>
   </g>
   <g id="matplotlib.axis_1">
    <g id="xtick_1">
     <g id="line2d_1">
      <defs>
       <path id="m87c336e520" d="M 0 0 
L 0 3.5 
" style="stroke: #000000; stroke-width: 0.8"/>
      </defs>
      <g>
       <use xlink:href="#m87c336e520" x="135.424317" y="579.716084" style="stroke: #000000; stroke-width: 0.8"/>
      </g>
     </g>
     <g id="text_1">
      <!-- 0歳～4歳 -->
      <g transform="translate(97.667467 629.216738) rotate(-45) scale(0.12 -0.12)">
       <defs>
        <path id="IPAexGothic-30" d="M 2038 4725 
Q 2881 4725 3334 3944 
Q 3694 3325 3694 2344 
Q 3694 1372 3334 741 
Q 2888 -31 2016 -31 
Q 1147 -31 700 741 
Q 341 1372 341 2350 
Q 341 3713 1000 4334 
Q 1419 4725 2038 4725 
z
M 2016 4266 
Q 1516 4266 1228 3759 
Q 934 3247 934 2344 
Q 934 1456 1222 947 
Q 1513 447 2016 447 
Q 2619 447 2909 1153 
Q 3100 1622 3100 2375 
Q 3100 3256 2806 3759 
Q 2509 4266 2016 4266 
z
" transform="scale(0.015625)"/>
        <path id="IPAexGothic-6b73" d="M 4263 2547 
Q 4366 1616 4619 1088 
Q 4981 1606 5209 2259 
L 5613 2125 
Q 5328 1313 4850 697 
Q 5222 134 5459 134 
Q 5566 134 5663 953 
L 6059 684 
Q 5959 59 5881 -128 
Q 5775 -384 5572 -384 
Q 5416 -384 5138 -194 
Q 4788 47 4556 366 
Q 4084 -125 3475 -453 
L 3178 -116 
Q 3831 206 4325 728 
Q 3994 1366 3831 2528 
L 1241 2528 
L 1241 2138 
Q 1241 1109 1119 538 
Q 994 -53 641 -513 
L 288 -178 
Q 794 413 794 1791 
L 794 2900 
L 3794 2900 
L 3781 3022 
Q 3778 3059 3766 3225 
Q 3756 3363 3750 3469 
L 484 3469 
L 484 3847 
L 1509 3847 
L 1509 4884 
L 1963 4884 
L 1963 3847 
L 2963 3847 
L 2963 5313 
L 3422 5313 
L 3422 4750 
L 5203 4750 
L 5203 4391 
L 3422 4391 
L 3422 3847 
L 5906 3847 
L 5906 3469 
L 4888 3469 
Q 5131 3344 5472 3078 
L 5228 2919 
L 5913 2919 
L 5913 2547 
L 4263 2547 
z
M 4222 2919 
L 5022 2919 
Q 4831 3094 4497 3278 
L 4778 3469 
L 4191 3469 
Q 4206 3116 4222 2919 
z
M 2834 1663 
L 2834 91 
Q 2834 -353 2394 -353 
Q 2225 -353 1969 -319 
L 1906 91 
Q 2075 44 2291 44 
Q 2419 44 2419 184 
L 2419 1663 
L 1388 1663 
L 1388 2022 
L 3781 2022 
L 3781 1663 
L 2834 1663 
z
M 1272 250 
Q 1588 747 1713 1434 
L 2116 1325 
Q 1956 503 1625 -25 
L 1272 250 
z
M 3428 403 
Q 3263 944 3025 1275 
L 3372 1447 
Q 3641 1100 3813 622 
L 3428 403 
z
" transform="scale(0.015625)"/>
        <path id="IPAexGothic-ff5e" d="M 678 2591 
Q 1259 3116 2022 3116 
Q 2559 3116 3359 2603 
Q 4019 2188 4353 2188 
Q 5056 2188 5722 2853 
L 5722 2259 
Q 5141 1734 4378 1734 
Q 3806 1734 3041 2234 
Q 2381 2663 2041 2663 
Q 1344 2663 678 1997 
L 678 2591 
z
" transform="scale(0.015625)"/>
        <path id="IPAexGothic-34" d="M 3813 1159 
L 3059 1159 
L 3059 63 
L 2547 63 
L 2547 1159 
L 197 1159 
L 197 1672 
L 2456 4678 
L 3059 4678 
L 3059 1634 
L 3813 1634 
L 3813 1159 
z
M 2578 4109 
L 2559 4109 
Q 2278 3656 2003 3284 
L 759 1634 
L 2547 1634 
L 2547 3144 
Q 2547 3481 2578 4109 
z
" transform="scale(0.015625)"/>
       </defs>
       <use xlink:href="#IPAexGothic-30"/>
       <use xlink:href="#IPAexGothic-6b73" transform="translate(62.988281 0)"/>
       <use xlink:href="#IPAexGothic-ff5e" transform="translate(162.988281 0)"/>
       <use xlink:href="#IPAexGothic-34" transform="translate(262.988281 0)"/>
       <use xlink:href="#IPAexGothic-6b73" transform="translate(325.976562 0)"/>
      </g>
     </g>
    </g>
    <g id="xtick_2">
     <g id="line2d_2">
      <g>
       <use xlink:href="#m87c336e520" x="170.301966" y="579.716084" style="stroke: #000000; stroke-width: 0.8"/>
      </g>
     </g>
     <g id="text_2">
      <!-- 5歳～9歳 -->
      <g transform="translate(132.545116 629.216738) rotate(-45) scale(0.12 -0.12)">
       <defs>
        <path id="IPAexGothic-35" d="M 1178 2603 
Q 1634 2963 2172 2963 
Q 2816 2963 3241 2528 
Q 3638 2113 3638 1497 
Q 3638 938 3297 513 
Q 2869 -31 2031 -31 
Q 959 -31 469 784 
L 938 1028 
Q 1309 434 2013 434 
Q 2466 434 2769 716 
Q 3081 1013 3081 1503 
Q 3081 1966 2806 2241 
Q 2519 2528 2056 2528 
Q 1406 2528 1072 2028 
L 591 2091 
L 884 4634 
L 3406 4634 
L 3406 4153 
L 1341 4153 
L 1134 2603 
L 1178 2603 
z
" transform="scale(0.015625)"/>
        <path id="IPAexGothic-39" d="M 2984 2356 
Q 2544 1716 1813 1716 
Q 1253 1716 847 2056 
Q 366 2459 366 3163 
Q 366 3813 769 4266 
Q 1181 4725 1869 4725 
Q 2800 4725 3241 3950 
Q 3559 3378 3559 2472 
Q 3559 1250 3041 588 
Q 2553 -31 1769 -31 
Q 859 -31 391 703 
L 853 953 
Q 1156 428 1753 428 
Q 2922 428 3009 2356 
L 2984 2356 
z
M 1888 4278 
Q 1450 4278 1172 3950 
Q 922 3653 922 3200 
Q 922 2741 1159 2478 
Q 1434 2163 1906 2163 
Q 2431 2163 2728 2572 
Q 2925 2847 2925 3169 
Q 2925 3553 2694 3863 
Q 2375 4278 1888 4278 
z
" transform="scale(0.015625)"/>
       </defs>
       <use xlink:href="#IPAexGothic-35"/>
       <use xlink:href="#IPAexGothic-6b73" transform="translate(62.988281 0)"/>
       <use xlink:href="#IPAexGothic-ff5e" transform="translate(162.988281 0)"/>
       <use xlink:href="#IPAexGothic-39" transform="translate(262.988281 0)"/>
       <use xlink:href="#IPAexGothic-6b73" transform="translate(325.976562 0)"/>
      </g>
     </g>
    </g>
    <g id="xtick_3">
     <g id="line2d_3">
      <g>
       <use xlink:href="#m87c336e520" x="205.179615" y="579.716084" style="stroke: #000000; stroke-width: 0.8"/>
      </g>
     </g>
     <g id="text_3">
      <!-- 10歳～14歳 -->
      <g transform="translate(156.733961 639.90554) rotate(-45) scale(0.12 -0.12)">
       <defs>
        <path id="IPAexGothic-31" d="M 2463 63 
L 1900 63 
L 1900 4103 
Q 1372 3922 788 3797 
L 684 4231 
Q 1519 4441 2106 4731 
L 2463 4731 
L 2463 63 
z
" transform="scale(0.015625)"/>
       </defs>
       <use xlink:href="#IPAexGothic-31"/>
       <use xlink:href="#IPAexGothic-30" transform="translate(62.988281 0)"/>
       <use xlink:href="#IPAexGothic-6b73" transform="translate(125.976562 0)"/>
       <use xlink:href="#IPAexGothic-ff5e" transform="translate(225.976562 0)"/>
       <use xlink:href="#IPAexGothic-31" transform="translate(325.976562 0)"/>
       <use xlink:href="#IPAexGothic-34" transform="translate(388.964844 0)"/>
       <use xlink:href="#IPAexGothic-6b73" transform="translate(451.953125 0)"/>
      </g>
     </g>
    </g>
    <g id="xtick_4">
     <g id="line2d_4">
      <g>
       <use xlink:href="#m87c336e520" x="240.057263" y="579.716084" style="stroke: #000000; stroke-width: 0.8"/>
      </g>
     </g>
     <g id="text_4">
      <!-- 15歳未満 -->
      <g transform="translate(202.300413 629.216738) rotate(-45) scale(0.12 -0.12)">
       <defs>
        <path id="IPAexGothic-672a" d="M 3656 2438 
Q 4506 1213 6094 378 
L 5744 -91 
Q 4197 894 3413 2131 
L 3413 -450 
L 2938 -450 
L 2938 2078 
Q 2191 694 684 -213 
L 341 203 
Q 1834 981 2725 2438 
L 447 2438 
L 447 2853 
L 2938 2853 
L 2938 3903 
L 959 3903 
L 959 4319 
L 2938 4319 
L 2938 5309 
L 3413 5309 
L 3413 4319 
L 5434 4319 
L 5434 3903 
L 3413 3903 
L 3413 2853 
L 5947 2853 
L 5947 2438 
L 3656 2438 
z
" transform="scale(0.015625)"/>
        <path id="IPAexGothic-6e80" d="M 4106 3072 
L 4106 2578 
L 5753 2578 
L 5753 50 
Q 5753 -397 5191 -397 
Q 4763 -397 4409 -359 
L 4347 97 
Q 4794 38 5106 38 
Q 5325 38 5325 281 
L 5325 2206 
L 4100 2206 
L 4100 959 
L 4509 959 
L 4509 1853 
L 4900 1853 
L 4900 588 
L 3300 588 
L 3300 178 
L 2909 178 
L 2909 1853 
L 3300 1853 
L 3300 959 
L 3703 959 
L 3703 2206 
L 2519 2206 
L 2519 -447 
L 2091 -447 
L 2091 2578 
L 3691 2578 
L 3691 3072 
L 1778 3072 
L 1778 3456 
L 2916 3456 
L 2916 4122 
L 1944 4122 
L 1944 4494 
L 2916 4494 
L 2916 5313 
L 3356 5313 
L 3356 4494 
L 4372 4494 
L 4372 5313 
L 4813 5313 
L 4813 4494 
L 5844 4494 
L 5844 4122 
L 4813 4122 
L 4813 3456 
L 6034 3456 
L 6034 3072 
L 4106 3072 
z
M 4372 4122 
L 3356 4122 
L 3356 3456 
L 4372 3456 
L 4372 4122 
z
M 1413 3903 
Q 1081 4359 556 4769 
L 856 5100 
Q 1384 4700 1734 4275 
L 1413 3903 
z
M 1228 2381 
Q 828 2872 325 3256 
L 619 3591 
Q 1003 3322 1553 2753 
L 1228 2381 
z
M 375 -84 
Q 922 806 1297 1906 
L 1669 1619 
Q 1328 553 759 -428 
L 375 -84 
z
" transform="scale(0.015625)"/>
       </defs>
       <use xlink:href="#IPAexGothic-31"/>
       <use xlink:href="#IPAexGothic-35" transform="translate(62.988281 0)"/>
       <use xlink:href="#IPAexGothic-6b73" transform="translate(125.976562 0)"/>
       <use xlink:href="#IPAexGothic-672a" transform="translate(225.976562 0)"/>
       <use xlink:href="#IPAexGothic-6e80" transform="translate(325.976562 0)"/>
      </g>
     </g>
    </g>
    <g id="xtick_5">
     <g id="line2d_5">
      <g>
       <use xlink:href="#m87c336e520" x="274.934912" y="579.716084" style="stroke: #000000; stroke-width: 0.8"/>
      </g>
     </g>
     <g id="text_5">
      <!-- 15歳～19歳 -->
      <g transform="translate(226.489259 639.90554) rotate(-45) scale(0.12 -0.12)">
       <use xlink:href="#IPAexGothic-31"/>
       <use xlink:href="#IPAexGothic-35" transform="translate(62.988281 0)"/>
       <use xlink:href="#IPAexGothic-6b73" transform="translate(125.976562 0)"/>
       <use xlink:href="#IPAexGothic-ff5e" transform="translate(225.976562 0)"/>
       <use xlink:href="#IPAexGothic-31" transform="translate(325.976562 0)"/>
       <use xlink:href="#IPAexGothic-39" transform="translate(388.964844 0)"/>
       <use xlink:href="#IPAexGothic-6b73" transform="translate(451.953125 0)"/>
      </g>
     </g>
    </g>
    <g id="xtick_6">
     <g id="line2d_6">
      <g>
       <use xlink:href="#m87c336e520" x="309.812561" y="579.716084" style="stroke: #000000; stroke-width: 0.8"/>
      </g>
     </g>
     <g id="text_6">
      <!-- 15歳～64歳 -->
      <g transform="translate(261.366907 639.90554) rotate(-45) scale(0.12 -0.12)">
       <defs>
        <path id="IPAexGothic-36" d="M 1056 2328 
Q 1509 2981 2234 2981 
Q 2906 2981 3316 2513 
Q 3675 2106 3675 1522 
Q 3675 884 3272 434 
Q 2853 -31 2178 -31 
Q 1375 -31 922 581 
Q 481 1178 481 2228 
Q 481 3425 1013 4109 
Q 1494 4725 2272 4725 
Q 3191 4725 3609 4025 
L 3150 3775 
Q 2894 4266 2300 4266 
Q 1119 4266 1031 2328 
L 1056 2328 
z
M 2141 2547 
Q 1684 2547 1384 2206 
Q 1116 1900 1116 1541 
Q 1116 1156 1353 844 
Q 1672 428 2159 428 
Q 2669 428 2941 844 
Q 3125 1128 3125 1503 
Q 3125 1944 2881 2228 
Q 2600 2547 2141 2547 
z
" transform="scale(0.015625)"/>
       </defs>
       <use xlink:href="#IPAexGothic-31"/>
       <use xlink:href="#IPAexGothic-35" transform="translate(62.988281 0)"/>
       <use xlink:href="#IPAexGothic-6b73" transform="translate(125.976562 0)"/>
       <use xlink:href="#IPAexGothic-ff5e" transform="translate(225.976562 0)"/>
       <use xlink:href="#IPAexGothic-36" transform="translate(325.976562 0)"/>
       <use xlink:href="#IPAexGothic-34" transform="translate(388.964844 0)"/>
       <use xlink:href="#IPAexGothic-6b73" transform="translate(451.953125 0)"/>
      </g>
     </g>
    </g>
    <g id="xtick_7">
     <g id="line2d_7">
      <g>
       <use xlink:href="#m87c336e520" x="344.690209" y="579.716084" style="stroke: #000000; stroke-width: 0.8"/>
      </g>
     </g>
     <g id="text_7">
      <!-- 20歳～24歳 -->
      <g transform="translate(296.244556 639.90554) rotate(-45) scale(0.12 -0.12)">
       <defs>
        <path id="IPAexGothic-32" d="M 3659 63 
L 447 63 
L 447 594 
Q 825 1475 1894 2203 
L 2072 2322 
Q 2619 2697 2791 2906 
Q 2988 3153 2988 3444 
Q 2988 3772 2756 4003 
Q 2500 4259 2084 4259 
Q 1250 4259 991 3328 
L 497 3506 
Q 853 4725 2116 4725 
Q 2806 4725 3216 4316 
Q 3575 3947 3575 3425 
Q 3575 3038 3344 2722 
Q 3131 2416 2366 1938 
L 2231 1856 
Q 1256 1253 978 569 
L 3659 569 
L 3659 63 
z
" transform="scale(0.015625)"/>
       </defs>
       <use xlink:href="#IPAexGothic-32"/>
       <use xlink:href="#IPAexGothic-30" transform="translate(62.988281 0)"/>
       <use xlink:href="#IPAexGothic-6b73" transform="translate(125.976562 0)"/>
       <use xlink:href="#IPAexGothic-ff5e" transform="translate(225.976562 0)"/>
       <use xlink:href="#IPAexGothic-32" transform="translate(325.976562 0)"/>
       <use xlink:href="#IPAexGothic-34" transform="translate(388.964844 0)"/>
       <use xlink:href="#IPAexGothic-6b73" transform="translate(451.953125 0)"/>
      </g>
     </g>
    </g>
    <g id="xtick_8">
     <g id="line2d_8">
      <g>
       <use xlink:href="#m87c336e520" x="379.567858" y="579.716084" style="stroke: #000000; stroke-width: 0.8"/>
      </g>
     </g>
     <g id="text_8">
      <!-- 25歳～29歳 -->
      <g transform="translate(331.122205 639.90554) rotate(-45) scale(0.12 -0.12)">
       <use xlink:href="#IPAexGothic-32"/>
       <use xlink:href="#IPAexGothic-35" transform="translate(62.988281 0)"/>
       <use xlink:href="#IPAexGothic-6b73" transform="translate(125.976562 0)"/>
       <use xlink:href="#IPAexGothic-ff5e" transform="translate(225.976562 0)"/>
       <use xlink:href="#IPAexGothic-32" transform="translate(325.976562 0)"/>
       <use xlink:href="#IPAexGothic-39" transform="translate(388.964844 0)"/>
       <use xlink:href="#IPAexGothic-6b73" transform="translate(451.953125 0)"/>
      </g>
     </g>
    </g>
    <g id="xtick_9">
     <g id="line2d_9">
      <g>
       <use xlink:href="#m87c336e520" x="414.445507" y="579.716084" style="stroke: #000000; stroke-width: 0.8"/>
      </g>
     </g>
     <g id="text_9">
      <!-- 30歳～34歳 -->
      <g transform="translate(365.999853 639.90554) rotate(-45) scale(0.12 -0.12)">
       <defs>
        <path id="IPAexGothic-33" d="M 2381 2419 
Q 3506 2216 3506 1278 
Q 3506 716 3128 356 
Q 2709 -31 1944 -31 
Q 797 -31 288 881 
L 756 1131 
Q 1109 441 1938 441 
Q 2425 441 2694 691 
Q 2950 928 2950 1291 
Q 2950 1719 2566 1978 
Q 2216 2213 1644 2213 
L 1363 2213 
L 1363 2669 
L 1656 2669 
Q 2231 2669 2534 2888 
Q 2859 3119 2859 3509 
Q 2859 3934 2494 4138 
Q 2259 4278 1931 4278 
Q 1238 4278 903 3578 
L 434 3803 
Q 897 4725 1938 4725 
Q 2597 4725 3006 4394 
Q 3416 4069 3416 3534 
Q 3416 3028 3019 2706 
Q 2763 2500 2381 2444 
L 2381 2419 
z
" transform="scale(0.015625)"/>
       </defs>
       <use xlink:href="#IPAexGothic-33"/>
       <use xlink:href="#IPAexGothic-30" transform="translate(62.988281 0)"/>
       <use xlink:href="#IPAexGothic-6b73" transform="translate(125.976562 0)"/>
       <use xlink:href="#IPAexGothic-ff5e" transform="translate(225.976562 0)"/>
       <use xlink:href="#IPAexGothic-33" transform="translate(325.976562 0)"/>
       <use xlink:href="#IPAexGothic-34" transform="translate(388.964844 0)"/>
       <use xlink:href="#IPAexGothic-6b73" transform="translate(451.953125 0)"/>
      </g>
     </g>
    </g>
    <g id="xtick_10">
     <g id="line2d_10">
      <g>
       <use xlink:href="#m87c336e520" x="449.323155" y="579.716084" style="stroke: #000000; stroke-width: 0.8"/>
      </g>
     </g>
     <g id="text_10">
      <!-- 35歳～39歳 -->
      <g transform="translate(400.877502 639.90554) rotate(-45) scale(0.12 -0.12)">
       <use xlink:href="#IPAexGothic-33"/>
       <use xlink:href="#IPAexGothic-35" transform="translate(62.988281 0)"/>
       <use xlink:href="#IPAexGothic-6b73" transform="translate(125.976562 0)"/>
       <use xlink:href="#IPAexGothic-ff5e" transform="translate(225.976562 0)"/>
       <use xlink:href="#IPAexGothic-33" transform="translate(325.976562 0)"/>
       <use xlink:href="#IPAexGothic-39" transform="translate(388.964844 0)"/>
       <use xlink:href="#IPAexGothic-6b73" transform="translate(451.953125 0)"/>
      </g>
     </g>
    </g>
    <g id="xtick_11">
     <g id="line2d_11">
      <g>
       <use xlink:href="#m87c336e520" x="484.200804" y="579.716084" style="stroke: #000000; stroke-width: 0.8"/>
      </g>
     </g>
     <g id="text_11">
      <!-- 40歳～44歳 -->
      <g transform="translate(435.755151 639.90554) rotate(-45) scale(0.12 -0.12)">
       <use xlink:href="#IPAexGothic-34"/>
       <use xlink:href="#IPAexGothic-30" transform="translate(62.988281 0)"/>
       <use xlink:href="#IPAexGothic-6b73" transform="translate(125.976562 0)"/>
       <use xlink:href="#IPAexGothic-ff5e" transform="translate(225.976562 0)"/>
       <use xlink:href="#IPAexGothic-34" transform="translate(325.976562 0)"/>
       <use xlink:href="#IPAexGothic-34" transform="translate(388.964844 0)"/>
       <use xlink:href="#IPAexGothic-6b73" transform="translate(451.953125 0)"/>
      </g>
     </g>
    </g>
    <g id="xtick_12">
     <g id="line2d_12">
      <g>
       <use xlink:href="#m87c336e520" x="519.078453" y="579.716084" style="stroke: #000000; stroke-width: 0.8"/>
      </g>
     </g>
     <g id="text_12">
      <!-- 45歳～49歳 -->
      <g transform="translate(470.632799 639.90554) rotate(-45) scale(0.12 -0.12)">
       <use xlink:href="#IPAexGothic-34"/>
       <use xlink:href="#IPAexGothic-35" transform="translate(62.988281 0)"/>
       <use xlink:href="#IPAexGothic-6b73" transform="translate(125.976562 0)"/>
       <use xlink:href="#IPAexGothic-ff5e" transform="translate(225.976562 0)"/>
       <use xlink:href="#IPAexGothic-34" transform="translate(325.976562 0)"/>
       <use xlink:href="#IPAexGothic-39" transform="translate(388.964844 0)"/>
       <use xlink:href="#IPAexGothic-6b73" transform="translate(451.953125 0)"/>
      </g>
     </g>
    </g>
    <g id="xtick_13">
     <g id="line2d_13">
      <g>
       <use xlink:href="#m87c336e520" x="553.956101" y="579.716084" style="stroke: #000000; stroke-width: 0.8"/>
      </g>
     </g>
     <g id="text_13">
      <!-- 50歳～54歳 -->
      <g transform="translate(505.510448 639.90554) rotate(-45) scale(0.12 -0.12)">
       <use xlink:href="#IPAexGothic-35"/>
       <use xlink:href="#IPAexGothic-30" transform="translate(62.988281 0)"/>
       <use xlink:href="#IPAexGothic-6b73" transform="translate(125.976562 0)"/>
       <use xlink:href="#IPAexGothic-ff5e" transform="translate(225.976562 0)"/>
       <use xlink:href="#IPAexGothic-35" transform="translate(325.976562 0)"/>
       <use xlink:href="#IPAexGothic-34" transform="translate(388.964844 0)"/>
       <use xlink:href="#IPAexGothic-6b73" transform="translate(451.953125 0)"/>
      </g>
     </g>
    </g>
    <g id="xtick_14">
     <g id="line2d_14">
      <g>
       <use xlink:href="#m87c336e520" x="588.83375" y="579.716084" style="stroke: #000000; stroke-width: 0.8"/>
      </g>
     </g>
     <g id="text_14">
      <!-- 55歳～59歳 -->
      <g transform="translate(540.388097 639.90554) rotate(-45) scale(0.12 -0.12)">
       <use xlink:href="#IPAexGothic-35"/>
       <use xlink:href="#IPAexGothic-35" transform="translate(62.988281 0)"/>
       <use xlink:href="#IPAexGothic-6b73" transform="translate(125.976562 0)"/>
       <use xlink:href="#IPAexGothic-ff5e" transform="translate(225.976562 0)"/>
       <use xlink:href="#IPAexGothic-35" transform="translate(325.976562 0)"/>
       <use xlink:href="#IPAexGothic-39" transform="translate(388.964844 0)"/>
       <use xlink:href="#IPAexGothic-6b73" transform="translate(451.953125 0)"/>
      </g>
     </g>
    </g>
    <g id="xtick_15">
     <g id="line2d_15">
      <g>
       <use xlink:href="#m87c336e520" x="623.711399" y="579.716084" style="stroke: #000000; stroke-width: 0.8"/>
      </g>
     </g>
     <g id="text_15">
      <!-- 60歳～64歳 -->
      <g transform="translate(575.265745 639.90554) rotate(-45) scale(0.12 -0.12)">
       <use xlink:href="#IPAexGothic-36"/>
       <use xlink:href="#IPAexGothic-30" transform="translate(62.988281 0)"/>
       <use xlink:href="#IPAexGothic-6b73" transform="translate(125.976562 0)"/>
       <use xlink:href="#IPAexGothic-ff5e" transform="translate(225.976562 0)"/>
       <use xlink:href="#IPAexGothic-36" transform="translate(325.976562 0)"/>
       <use xlink:href="#IPAexGothic-34" transform="translate(388.964844 0)"/>
       <use xlink:href="#IPAexGothic-6b73" transform="translate(451.953125 0)"/>
      </g>
     </g>
    </g>
    <g id="xtick_16">
     <g id="line2d_16">
      <g>
       <use xlink:href="#m87c336e520" x="658.589047" y="579.716084" style="stroke: #000000; stroke-width: 0.8"/>
      </g>
     </g>
     <g id="text_16">
      <!-- 65歳以上 -->
      <g transform="translate(620.832197 629.216738) rotate(-45) scale(0.12 -0.12)">
       <defs>
        <path id="IPAexGothic-4ee5" d="M 4509 1119 
Q 3834 188 2281 -378 
L 1981 38 
Q 3888 672 4359 1819 
Q 4700 2659 4700 4372 
L 4700 4978 
L 5181 4978 
L 5181 4459 
Q 5181 2416 4738 1503 
Q 5478 956 6141 256 
L 5763 -159 
Q 5191 556 4509 1119 
z
M 1581 1106 
Q 2331 1463 3175 2003 
L 3297 1600 
Q 2063 744 591 128 
L 341 581 
Q 863 784 1122 897 
L 1044 4922 
L 1519 4922 
L 1581 1106 
z
M 3344 3009 
Q 2856 3716 2259 4250 
L 2619 4563 
Q 3300 3972 3725 3353 
L 3344 3009 
z
" transform="scale(0.015625)"/>
        <path id="IPAexGothic-4e0a" d="M 3259 3366 
L 5475 3366 
L 5475 2913 
L 3259 2913 
L 3259 556 
L 5991 556 
L 5991 103 
L 391 103 
L 391 556 
L 2772 556 
L 2772 5050 
L 3259 5050 
L 3259 3366 
z
" transform="scale(0.015625)"/>
       </defs>
       <use xlink:href="#IPAexGothic-36"/>
       <use xlink:href="#IPAexGothic-35" transform="translate(62.988281 0)"/>
       <use xlink:href="#IPAexGothic-6b73" transform="translate(125.976562 0)"/>
       <use xlink:href="#IPAexGothic-4ee5" transform="translate(225.976562 0)"/>
       <use xlink:href="#IPAexGothic-4e0a" transform="translate(325.976562 0)"/>
      </g>
     </g>
    </g>
    <g id="xtick_17">
     <g id="line2d_17">
      <g>
       <use xlink:href="#m87c336e520" x="693.466696" y="579.716084" style="stroke: #000000; stroke-width: 0.8"/>
      </g>
     </g>
     <g id="text_17">
      <!-- 65歳～69歳 -->
      <g transform="translate(645.021043 639.90554) rotate(-45) scale(0.12 -0.12)">
       <use xlink:href="#IPAexGothic-36"/>
       <use xlink:href="#IPAexGothic-35" transform="translate(62.988281 0)"/>
       <use xlink:href="#IPAexGothic-6b73" transform="translate(125.976562 0)"/>
       <use xlink:href="#IPAexGothic-ff5e" transform="translate(225.976562 0)"/>
       <use xlink:href="#IPAexGothic-36" transform="translate(325.976562 0)"/>
       <use xlink:href="#IPAexGothic-39" transform="translate(388.964844 0)"/>
       <use xlink:href="#IPAexGothic-6b73" transform="translate(451.953125 0)"/>
      </g>
     </g>
    </g>
    <g id="xtick_18">
     <g id="line2d_18">
      <g>
       <use xlink:href="#m87c336e520" x="728.344345" y="579.716084" style="stroke: #000000; stroke-width: 0.8"/>
      </g>
     </g>
     <g id="text_18">
      <!-- 70歳～74歳 -->
      <g transform="translate(679.898691 639.90554) rotate(-45) scale(0.12 -0.12)">
       <defs>
        <path id="IPAexGothic-37" d="M 3597 4263 
Q 2238 2106 1778 63 
L 1131 63 
Q 1581 1834 2950 4128 
L 428 4128 
L 428 4634 
L 3597 4634 
L 3597 4263 
z
" transform="scale(0.015625)"/>
       </defs>
       <use xlink:href="#IPAexGothic-37"/>
       <use xlink:href="#IPAexGothic-30" transform="translate(62.988281 0)"/>
       <use xlink:href="#IPAexGothic-6b73" transform="translate(125.976562 0)"/>
       <use xlink:href="#IPAexGothic-ff5e" transform="translate(225.976562 0)"/>
       <use xlink:href="#IPAexGothic-37" transform="translate(325.976562 0)"/>
       <use xlink:href="#IPAexGothic-34" transform="translate(388.964844 0)"/>
       <use xlink:href="#IPAexGothic-6b73" transform="translate(451.953125 0)"/>
      </g>
     </g>
    </g>
    <g id="xtick_19">
     <g id="line2d_19">
      <g>
       <use xlink:href="#m87c336e520" x="763.221993" y="579.716084" style="stroke: #000000; stroke-width: 0.8"/>
      </g>
     </g>
     <g id="text_19">
      <!-- 75歳～79歳 -->
      <g transform="translate(714.77634 639.90554) rotate(-45) scale(0.12 -0.12)">
       <use xlink:href="#IPAexGothic-37"/>
       <use xlink:href="#IPAexGothic-35" transform="translate(62.988281 0)"/>
       <use xlink:href="#IPAexGothic-6b73" transform="translate(125.976562 0)"/>
       <use xlink:href="#IPAexGothic-ff5e" transform="translate(225.976562 0)"/>
       <use xlink:href="#IPAexGothic-37" transform="translate(325.976562 0)"/>
       <use xlink:href="#IPAexGothic-39" transform="translate(388.964844 0)"/>
       <use xlink:href="#IPAexGothic-6b73" transform="translate(451.953125 0)"/>
      </g>
     </g>
    </g>
    <g id="xtick_20">
     <g id="line2d_20">
      <g>
       <use xlink:href="#m87c336e520" x="798.099642" y="579.716084" style="stroke: #000000; stroke-width: 0.8"/>
      </g>
     </g>
     <g id="text_20">
      <!-- うち75歳以上 -->
      <g transform="translate(743.372229 646.1873) rotate(-45) scale(0.12 -0.12)">
       <defs>
        <path id="IPAexGothic-3046" d="M 3897 4025 
Q 3203 4456 2144 4728 
L 2381 5166 
Q 3353 4928 4166 4481 
L 3897 4025 
z
M 1172 3050 
Q 2872 3628 3566 3628 
Q 4269 3628 4603 3181 
Q 4847 2850 4847 2253 
Q 4847 372 2619 -275 
L 2278 159 
Q 3356 397 3881 994 
Q 4328 1503 4328 2228 
Q 4328 3181 3534 3181 
Q 2909 3181 1397 2553 
L 1172 3050 
z
" transform="scale(0.015625)"/>
        <path id="IPAexGothic-3061" d="M 684 4084 
Q 1250 4038 2131 4038 
Q 2269 4706 2328 5113 
L 2809 5044 
Q 2709 4494 2616 4056 
Q 3625 4103 4575 4300 
L 4634 3841 
Q 3650 3663 2509 3616 
Q 2281 2638 2003 1913 
Q 2956 2644 3956 2644 
Q 4522 2644 4891 2425 
Q 5447 2109 5447 1466 
Q 5447 -66 2425 -159 
L 2206 294 
Q 4941 344 4941 1472 
Q 4941 2234 3878 2234 
Q 3228 2234 2522 1819 
Q 2091 1563 1766 1216 
L 1356 1509 
Q 1756 2484 2028 3597 
Q 1122 3597 703 3622 
L 684 4084 
z
" transform="scale(0.015625)"/>
       </defs>
       <use xlink:href="#IPAexGothic-3046"/>
       <use xlink:href="#IPAexGothic-3061" transform="translate(100 0)"/>
       <use xlink:href="#IPAexGothic-37" transform="translate(200 0)"/>
       <use xlink:href="#IPAexGothic-35" transform="translate(262.988281 0)"/>
       <use xlink:href="#IPAexGothic-6b73" transform="translate(325.976562 0)"/>
       <use xlink:href="#IPAexGothic-4ee5" transform="translate(425.976562 0)"/>
       <use xlink:href="#IPAexGothic-4e0a" transform="translate(525.976562 0)"/>
      </g>
     </g>
    </g>
    <g id="xtick_21">
     <g id="line2d_21">
      <g>
       <use xlink:href="#m87c336e520" x="832.977291" y="579.716084" style="stroke: #000000; stroke-width: 0.8"/>
      </g>
     </g>
     <g id="text_21">
      <!-- 80歳～84歳 -->
      <g transform="translate(784.531637 639.90554) rotate(-45) scale(0.12 -0.12)">
       <defs>
        <path id="IPAexGothic-38" d="M 2541 2425 
Q 3700 2031 3700 1197 
Q 3700 541 3100 197 
Q 2663 -56 2016 -56 
Q 1366 -56 928 197 
Q 347 531 347 1178 
Q 347 1988 1409 2381 
L 1409 2400 
Q 481 2734 481 3509 
Q 481 4100 981 4456 
Q 1406 4756 2019 4756 
Q 2703 4756 3131 4403 
Q 3553 4069 3553 3566 
Q 3553 2706 2541 2444 
L 2541 2425 
z
M 2022 2625 
Q 2997 2856 2997 3528 
Q 2997 3916 2675 4150 
Q 2413 4347 2016 4347 
Q 1606 4347 1331 4128 
Q 1050 3897 1050 3522 
Q 1050 3150 1350 2925 
Q 1494 2809 1722 2722 
Q 1984 2616 2022 2625 
z
M 1978 2209 
Q 922 1931 922 1216 
Q 922 775 1313 556 
Q 1606 391 2009 391 
Q 2575 391 2881 697 
Q 3106 922 3106 1250 
Q 3106 1594 2794 1850 
Q 2609 1994 2350 2100 
Q 2047 2222 1978 2209 
z
" transform="scale(0.015625)"/>
       </defs>
       <use xlink:href="#IPAexGothic-38"/>
       <use xlink:href="#IPAexGothic-30" transform="translate(62.988281 0)"/>
       <use xlink:href="#IPAexGothic-6b73" transform="translate(125.976562 0)"/>
       <use xlink:href="#IPAexGothic-ff5e" transform="translate(225.976562 0)"/>
       <use xlink:href="#IPAexGothic-38" transform="translate(325.976562 0)"/>
       <use xlink:href="#IPAexGothic-34" transform="translate(388.964844 0)"/>
       <use xlink:href="#IPAexGothic-6b73" transform="translate(451.953125 0)"/>
      </g>
     </g>
    </g>
    <g id="xtick_22">
     <g id="line2d_22">
      <g>
       <use xlink:href="#m87c336e520" x="867.854939" y="579.716084" style="stroke: #000000; stroke-width: 0.8"/>
      </g>
     </g>
     <g id="text_22">
      <!-- 85歳～89歳 -->
      <g transform="translate(819.409286 639.90554) rotate(-45) scale(0.12 -0.12)">
       <use xlink:href="#IPAexGothic-38"/>
       <use xlink:href="#IPAexGothic-35" transform="translate(62.988281 0)"/>
       <use xlink:href="#IPAexGothic-6b73" transform="translate(125.976562 0)"/>
       <use xlink:href="#IPAexGothic-ff5e" transform="translate(225.976562 0)"/>
       <use xlink:href="#IPAexGothic-38" transform="translate(325.976562 0)"/>
       <use xlink:href="#IPAexGothic-39" transform="translate(388.964844 0)"/>
       <use xlink:href="#IPAexGothic-6b73" transform="translate(451.953125 0)"/>
      </g>
     </g>
    </g>
    <g id="xtick_23">
     <g id="line2d_23">
      <g>
       <use xlink:href="#m87c336e520" x="902.732588" y="579.716084" style="stroke: #000000; stroke-width: 0.8"/>
      </g>
     </g>
     <g id="text_23">
      <!-- うち85歳以上 -->
      <g transform="translate(848.005175 646.1873) rotate(-45) scale(0.12 -0.12)">
       <use xlink:href="#IPAexGothic-3046"/>
       <use xlink:href="#IPAexGothic-3061" transform="translate(100 0)"/>
       <use xlink:href="#IPAexGothic-38" transform="translate(200 0)"/>
       <use xlink:href="#IPAexGothic-35" transform="translate(262.988281 0)"/>
       <use xlink:href="#IPAexGothic-6b73" transform="translate(325.976562 0)"/>
       <use xlink:href="#IPAexGothic-4ee5" transform="translate(425.976562 0)"/>
       <use xlink:href="#IPAexGothic-4e0a" transform="translate(525.976562 0)"/>
      </g>
     </g>
    </g>
    <g id="xtick_24">
     <g id="line2d_24">
      <g>
       <use xlink:href="#m87c336e520" x="937.610237" y="579.716084" style="stroke: #000000; stroke-width: 0.8"/>
      </g>
     </g>
     <g id="text_24">
      <!-- 90歳～94歳 -->
      <g transform="translate(889.164583 639.90554) rotate(-45) scale(0.12 -0.12)">
       <use xlink:href="#IPAexGothic-39"/>
       <use xlink:href="#IPAexGothic-30" transform="translate(62.988281 0)"/>
       <use xlink:href="#IPAexGothic-6b73" transform="translate(125.976562 0)"/>
       <use xlink:href="#IPAexGothic-ff5e" transform="translate(225.976562 0)"/>
       <use xlink:href="#IPAexGothic-39" transform="translate(325.976562 0)"/>
       <use xlink:href="#IPAexGothic-34" transform="translate(388.964844 0)"/>
       <use xlink:href="#IPAexGothic-6b73" transform="translate(451.953125 0)"/>
      </g>
     </g>
    </g>
    <g id="xtick_25">
     <g id="line2d_25">
      <g>
       <use xlink:href="#m87c336e520" x="972.487885" y="579.716084" style="stroke: #000000; stroke-width: 0.8"/>
      </g>
     </g>
     <g id="text_25">
      <!-- 95歳～99歳 -->
      <g transform="translate(924.042232 639.90554) rotate(-45) scale(0.12 -0.12)">
       <use xlink:href="#IPAexGothic-39"/>
       <use xlink:href="#IPAexGothic-35" transform="translate(62.988281 0)"/>
       <use xlink:href="#IPAexGothic-6b73" transform="translate(125.976562 0)"/>
       <use xlink:href="#IPAexGothic-ff5e" transform="translate(225.976562 0)"/>
       <use xlink:href="#IPAexGothic-39" transform="translate(325.976562 0)"/>
       <use xlink:href="#IPAexGothic-39" transform="translate(388.964844 0)"/>
       <use xlink:href="#IPAexGothic-6b73" transform="translate(451.953125 0)"/>
      </g>
     </g>
    </g>
    <g id="xtick_26">
     <g id="line2d_26">
      <g>
       <use xlink:href="#m87c336e520" x="1007.365534" y="579.716084" style="stroke: #000000; stroke-width: 0.8"/>
      </g>
     </g>
     <g id="text_26">
      <!-- 100歳以上 -->
      <g transform="translate(964.264282 634.561139) rotate(-45) scale(0.12 -0.12)">
       <use xlink:href="#IPAexGothic-31"/>
       <use xlink:href="#IPAexGothic-30" transform="translate(62.988281 0)"/>
       <use xlink:href="#IPAexGothic-30" transform="translate(125.976562 0)"/>
       <use xlink:href="#IPAexGothic-6b73" transform="translate(188.964844 0)"/>
       <use xlink:href="#IPAexGothic-4ee5" transform="translate(288.964844 0)"/>
       <use xlink:href="#IPAexGothic-4e0a" transform="translate(388.964844 0)"/>
      </g>
     </g>
    </g>
    <g id="xtick_27">
     <g id="line2d_27">
      <g>
       <use xlink:href="#m87c336e520" x="1042.243183" y="579.716084" style="stroke: #000000; stroke-width: 0.8"/>
      </g>
     </g>
     <g id="text_27">
      <!-- 総数 -->
      <g transform="translate(1023.660416 610.042653) rotate(-45) scale(0.12 -0.12)">
       <defs>
        <path id="IPAexGothic-7dcf" d="M 1247 3084 
Q 819 3691 384 4128 
L 666 4422 
Q 781 4306 916 4153 
Q 1281 4684 1541 5331 
L 1956 5119 
Q 1541 4356 1159 3859 
Q 1319 3647 1472 3425 
Q 1906 4094 2138 4550 
L 2522 4313 
Q 1872 3228 1313 2572 
L 1631 2591 
Q 2013 2613 2200 2631 
Q 2075 2919 1950 3150 
L 2297 3297 
Q 2606 2763 2822 2106 
L 2444 1919 
Q 2347 2231 2316 2316 
Q 2228 2294 1778 2234 
L 1778 -447 
L 1363 -447 
L 1363 2181 
L 1300 2175 
Q 1009 2144 434 2106 
L 288 2534 
Q 700 2544 863 2553 
Q 953 2678 1106 2891 
Q 1209 3031 1247 3084 
z
M 3409 2669 
Q 3819 3419 4063 4191 
L 4472 4072 
Q 4184 3253 3866 2681 
Q 4953 2734 5113 2753 
Q 4928 3034 4672 3372 
L 4991 3572 
Q 5491 3031 5900 2328 
L 5509 2059 
Q 5309 2434 5306 2438 
Q 4334 2303 2963 2228 
L 2828 2663 
Q 3141 2663 3297 2669 
L 3409 2669 
z
M 359 197 
Q 588 863 653 1759 
L 1063 1709 
Q 994 684 769 -13 
L 359 197 
z
M 2253 434 
Q 2128 1213 1944 1759 
L 2303 1869 
Q 2500 1438 2675 616 
L 2253 434 
z
M 2738 3563 
Q 3322 4222 3641 5163 
L 4025 5028 
Q 3697 3997 3041 3244 
L 2738 3563 
z
M 5709 3444 
Q 4950 4144 4500 5038 
L 4850 5216 
Q 5328 4403 6047 3803 
L 5709 3444 
z
M 2706 91 
Q 2963 725 3028 1503 
L 3431 1422 
Q 3334 431 3084 -153 
L 2706 91 
z
M 3675 1619 
L 4091 1619 
L 4091 250 
Q 4091 84 4194 56 
Q 4253 31 4431 31 
Q 4825 31 4872 191 
Q 4906 322 4916 813 
L 5331 678 
Q 5322 -144 5128 -275 
Q 4966 -391 4425 -391 
Q 3978 -391 3847 -306 
Q 3675 -203 3675 63 
L 3675 1619 
z
M 5753 38 
Q 5463 894 5150 1403 
L 5509 1575 
Q 5931 919 6138 263 
L 5753 38 
z
M 4647 1178 
Q 4309 1656 3922 1972 
L 4231 2222 
Q 4672 1897 4978 1478 
L 4647 1178 
z
" transform="scale(0.015625)"/>
        <path id="IPAexGothic-6570" d="M 2847 1553 
Q 2741 1006 2425 534 
Q 2625 441 3091 203 
L 2809 -188 
Q 2541 0 2144 209 
Q 1569 -291 703 -500 
L 422 -125 
Q 1263 19 1747 406 
Q 1222 650 734 816 
Q 975 1172 1147 1503 
L 1172 1553 
L 359 1553 
L 359 1925 
L 1344 1925 
Q 1406 2066 1569 2475 
L 1691 2450 
L 1691 3372 
Q 1250 2738 550 2303 
L 275 2663 
Q 1019 3013 1528 3641 
L 378 3641 
L 378 4006 
L 1691 4006 
L 1691 5313 
L 2113 5313 
L 2113 4006 
L 3297 4006 
L 3297 3641 
L 2113 3641 
L 2113 3513 
Q 2659 3291 3175 2963 
L 2956 2584 
Q 2553 2922 2113 3159 
L 2113 2372 
L 1966 2372 
Q 1928 2288 1872 2141 
Q 1806 1975 1784 1925 
L 3378 1925 
L 3378 1553 
L 2847 1553 
z
M 2419 1553 
L 1613 1553 
Q 1478 1269 1313 997 
Q 1559 909 2047 703 
Q 2313 1047 2419 1553 
z
M 4363 1163 
Q 3953 1781 3738 2638 
Q 3575 2281 3428 2016 
L 3103 2406 
Q 3675 3444 3916 5291 
L 4363 5200 
Q 4284 4666 4197 4197 
L 6009 4197 
L 6009 3775 
L 5503 3775 
Q 5397 2275 4869 1191 
Q 5419 503 6144 75 
L 5822 -378 
Q 5188 106 4631 788 
Q 4113 34 3341 -463 
L 3031 -78 
Q 3888 406 4363 1163 
z
M 4588 1594 
Q 4938 2388 5059 3775 
L 4100 3775 
Q 4041 3519 3972 3288 
Q 3981 3250 3991 3194 
Q 4175 2256 4588 1594 
z
M 1003 4116 
Q 878 4544 638 4934 
L 1053 5094 
Q 1247 4788 1438 4269 
L 1003 4116 
z
M 2316 4269 
Q 2550 4688 2688 5131 
L 3128 4997 
Q 2966 4588 2675 4128 
L 2316 4269 
z
" transform="scale(0.015625)"/>
       </defs>
       <use xlink:href="#IPAexGothic-7dcf"/>
       <use xlink:href="#IPAexGothic-6570" transform="translate(100 0)"/>
      </g>
     </g>
    </g>
    <g id="text_28">
     <!-- 年齢階級 -->
     <g transform="translate(556.83375 663.784504) scale(0.16 -0.16)">
      <defs>
       <path id="IPAexGothic-5e74" d="M 1772 4159 
Q 1444 3422 875 2803 
L 528 3166 
Q 1322 3941 1631 5259 
L 2109 5156 
Q 1994 4759 1931 4563 
L 5694 4563 
L 5694 4159 
L 3756 4159 
L 3756 3128 
L 5434 3128 
L 5434 2725 
L 3756 2725 
L 3756 1509 
L 6078 1509 
L 6078 1094 
L 3756 1094 
L 3756 -450 
L 3275 -450 
L 3275 1094 
L 447 1094 
L 447 1509 
L 1534 1509 
L 1534 3128 
L 3275 3128 
L 3275 4159 
L 1772 4159 
z
M 3275 2725 
L 1994 2725 
L 1994 1509 
L 3275 1509 
L 3275 2725 
z
" transform="scale(0.015625)"/>
       <path id="IPAexGothic-9f62" d="M 2094 4709 
L 2956 4709 
L 2956 4350 
L 2094 4350 
L 2094 3744 
L 3397 3744 
L 3397 3372 
L 244 3372 
L 244 3744 
L 866 3744 
L 866 4819 
L 1250 4819 
L 1250 3744 
L 1703 3744 
L 1703 5313 
L 2094 5313 
L 2094 4709 
z
M 872 2100 
L 1659 2100 
L 1659 3219 
L 2019 3219 
L 2019 2100 
L 2797 2100 
L 2797 3219 
L 3181 3219 
L 3181 2878 
L 3231 2931 
Q 3944 3719 4338 5209 
L 4794 5209 
Q 5306 3847 6234 2969 
L 5978 2559 
Q 5656 2891 5338 3322 
L 5338 2975 
L 3988 2975 
L 3988 3256 
Q 3728 2828 3422 2484 
L 3181 2872 
L 3181 -416 
L 2797 -416 
L 2797 -178 
L 872 -178 
L 872 -447 
L 481 -447 
L 481 3219 
L 872 3219 
L 872 2100 
z
M 1600 1759 
L 872 1759 
L 872 188 
L 2797 188 
L 2797 1759 
L 2019 1759 
L 2019 1534 
Q 2413 1303 2750 1013 
L 2522 713 
Q 2325 947 2019 1197 
L 2019 316 
L 1659 316 
L 1659 1331 
Q 1444 856 1094 488 
L 884 813 
Q 1322 1194 1600 1759 
z
M 5306 3366 
Q 4831 4034 4581 4722 
Q 4428 4066 4050 3366 
L 5306 3366 
z
M 5888 2338 
L 5888 538 
Q 5888 91 5450 91 
Q 5203 91 4916 141 
L 4863 556 
Q 5163 500 5350 500 
Q 5491 500 5491 684 
L 5491 1947 
L 4622 1947 
L 4622 -447 
L 4213 -447 
L 4213 1947 
L 3469 1947 
L 3469 2338 
L 5888 2338 
z
M 1216 2194 
Q 1116 2634 959 2969 
L 1291 3066 
Q 1441 2775 1553 2297 
L 1216 2194 
z
M 2091 2316 
Q 2284 2753 2359 3091 
L 2725 2969 
Q 2556 2506 2375 2203 
L 2091 2316 
z
" transform="scale(0.015625)"/>
       <path id="IPAexGothic-968e" d="M 2575 3150 
L 2575 5209 
L 2978 5209 
L 2978 4384 
L 3981 4384 
L 3981 4000 
L 2978 4000 
L 2978 3213 
Q 3478 3291 4009 3406 
L 4034 3053 
Q 3066 2797 2184 2675 
L 2044 3078 
Q 2113 3088 2244 3103 
Q 2391 3122 2447 3128 
L 2575 3150 
z
M 1588 3059 
Q 2191 2303 2191 1413 
Q 2191 1100 2122 919 
Q 2003 650 1613 650 
Q 1372 650 1122 691 
L 1050 1144 
Q 1309 1084 1538 1084 
Q 1763 1084 1763 1463 
Q 1763 2244 1159 3038 
Q 1519 3806 1691 4588 
L 909 4588 
L 909 -450 
L 488 -450 
L 488 4991 
L 1984 4991 
L 2209 4800 
Q 1931 3772 1588 3059 
z
M 4591 4275 
Q 5175 4438 5666 4716 
L 5959 4369 
Q 5338 4084 4591 3916 
L 4591 3378 
Q 4591 3128 5031 3128 
Q 5497 3128 5563 3225 
Q 5644 3322 5653 3866 
L 6075 3744 
Q 6047 3131 5941 2950 
Q 5794 2725 5072 2725 
Q 4594 2725 4413 2797 
Q 4188 2884 4188 3194 
L 4188 5209 
L 4591 5209 
L 4591 4275 
z
M 3619 2259 
Q 3672 2441 3728 2766 
L 4206 2681 
Q 4109 2403 4053 2259 
L 5666 2259 
L 5666 -447 
L 5238 -447 
L 5238 -122 
L 2984 -122 
L 2984 -447 
L 2556 -447 
L 2556 2259 
L 3619 2259 
z
M 2984 1888 
L 2984 1275 
L 5238 1275 
L 5238 1888 
L 2984 1888 
z
M 2984 916 
L 2984 250 
L 5238 250 
L 5238 916 
L 2984 916 
z
" transform="scale(0.015625)"/>
       <path id="IPAexGothic-7d1a" d="M 3622 2816 
Q 3594 2019 3494 1469 
Q 3284 338 2644 -513 
L 2319 -181 
Q 3003 716 3156 2059 
Q 3263 3041 3272 4525 
L 2716 4525 
L 2716 4928 
L 5050 4928 
L 5269 4728 
Q 5069 3675 4897 3128 
L 5728 3128 
Q 5547 1897 5025 997 
Q 5497 478 6138 50 
L 5825 -378 
Q 5191 125 4769 613 
Q 4269 -44 3559 -506 
L 3266 -131 
Q 4056 319 4500 953 
Q 3928 1716 3622 2816 
z
M 3650 4191 
Q 3891 2522 4738 1344 
Q 5059 1941 5209 2738 
L 4341 2738 
Q 4638 3650 4781 4525 
L 3656 4525 
L 3656 4434 
Q 3650 4409 3650 4191 
z
M 1313 3066 
Q 872 3691 444 4109 
L 744 4422 
Q 894 4263 969 4178 
Q 1341 4684 1622 5325 
L 2050 5113 
Q 1597 4363 1213 3884 
Q 1394 3656 1550 3419 
Q 1897 3922 2241 4556 
L 2638 4331 
Q 1959 3238 1378 2559 
Q 1838 2584 2400 2631 
Q 2303 2878 2159 3150 
L 2491 3309 
Q 2813 2769 3022 2069 
L 2644 1875 
Q 2591 2081 2509 2322 
Q 2328 2284 1978 2241 
L 1884 2228 
L 1884 -447 
L 1463 -447 
L 1463 2175 
L 1372 2163 
Q 1025 2122 456 2081 
L 322 2522 
Q 528 2528 925 2541 
Q 1081 2750 1313 3066 
z
M 403 213 
Q 656 884 725 1759 
L 1134 1709 
Q 1047 700 825 -19 
L 403 213 
z
M 2406 672 
Q 2253 1313 2034 1806 
L 2388 1941 
Q 2625 1509 2809 891 
L 2406 672 
z
" transform="scale(0.015625)"/>
      </defs>
      <use xlink:href="#IPAexGothic-5e74"/>
      <use xlink:href="#IPAexGothic-9f62" transform="translate(100 0)"/>
      <use xlink:href="#IPAexGothic-968e" transform="translate(200 0)"/>
      <use xlink:href="#IPAexGothic-7d1a" transform="translate(300 0)"/>
     </g>
    </g>
   </g>
   <g id="matplotlib.axis_2">
    <g id="ytick_1">
     <g id="line2d_28">
      <path d="M 78.57375 579.716084 
L 1099.09375 579.716084 
" clip-path="url(#p3de085058b)" style="fill: none; stroke-dasharray: 2.96,1.28; stroke-dashoffset: 0; stroke: #b0b0b0; stroke-opacity: 0.3; stroke-width: 0.8"/>
     </g>
     <g id="line2d_29">
      <defs>
       <path id="mfa28ef1ea6" d="M 0 0 
L -3.5 0 
" style="stroke: #000000; stroke-width: 0.8"/>
      </defs>
      <g>
       <use xlink:href="#mfa28ef1ea6" x="78.57375" y="579.716084" style="stroke: #000000; stroke-width: 0.8"/>
      </g>
     </g>
     <g id="text_29">
      <!-- 0 -->
      <g transform="translate(64.015625 584.210459) scale(0.12 -0.12)">
       <use xlink:href="#IPAexGothic-30"/>
      </g>
     </g>
    </g>
    <g id="ytick_2">
     <g id="line2d_30">
      <path d="M 78.57375 504.304113 
L 1099.09375 504.304113 
" clip-path="url(#p3de085058b)" style="fill: none; stroke-dasharray: 2.96,1.28; stroke-dashoffset: 0; stroke: #b0b0b0; stroke-opacity: 0.3; stroke-width: 0.8"/>
     </g>
     <g id="line2d_31">
      <g>
       <use xlink:href="#mfa28ef1ea6" x="78.57375" y="504.304113" style="stroke: #000000; stroke-width: 0.8"/>
      </g>
     </g>
     <g id="text_30">
      <!-- 20000 -->
      <g transform="translate(33.783125 508.798488) scale(0.12 -0.12)">
       <use xlink:href="#IPAexGothic-32"/>
       <use xlink:href="#IPAexGothic-30" transform="translate(62.988281 0)"/>
       <use xlink:href="#IPAexGothic-30" transform="translate(125.976562 0)"/>
       <use xlink:href="#IPAexGothic-30" transform="translate(188.964844 0)"/>
       <use xlink:href="#IPAexGothic-30" transform="translate(251.953125 0)"/>
      </g>
     </g>
    </g>
    <g id="ytick_3">
     <g id="line2d_32">
      <path d="M 78.57375 428.892142 
L 1099.09375 428.892142 
" clip-path="url(#p3de085058b)" style="fill: none; stroke-dasharray: 2.96,1.28; stroke-dashoffset: 0; stroke: #b0b0b0; stroke-opacity: 0.3; stroke-width: 0.8"/>
     </g>
     <g id="line2d_33">
      <g>
       <use xlink:href="#mfa28ef1ea6" x="78.57375" y="428.892142" style="stroke: #000000; stroke-width: 0.8"/>
      </g>
     </g>
     <g id="text_31">
      <!-- 40000 -->
      <g transform="translate(33.783125 433.386517) scale(0.12 -0.12)">
       <use xlink:href="#IPAexGothic-34"/>
       <use xlink:href="#IPAexGothic-30" transform="translate(62.988281 0)"/>
       <use xlink:href="#IPAexGothic-30" transform="translate(125.976562 0)"/>
       <use xlink:href="#IPAexGothic-30" transform="translate(188.964844 0)"/>
       <use xlink:href="#IPAexGothic-30" transform="translate(251.953125 0)"/>
      </g>
     </g>
    </g>
    <g id="ytick_4">
     <g id="line2d_34">
      <path d="M 78.57375 353.480171 
L 1099.09375 353.480171 
" clip-path="url(#p3de085058b)" style="fill: none; stroke-dasharray: 2.96,1.28; stroke-dashoffset: 0; stroke: #b0b0b0; stroke-opacity: 0.3; stroke-width: 0.8"/>
     </g>
     <g id="line2d_35">
      <g>
       <use xlink:href="#mfa28ef1ea6" x="78.57375" y="353.480171" style="stroke: #000000; stroke-width: 0.8"/>
      </g>
     </g>
     <g id="text_32">
      <!-- 60000 -->
      <g transform="translate(33.783125 357.974546) scale(0.12 -0.12)">
       <use xlink:href="#IPAexGothic-36"/>
       <use xlink:href="#IPAexGothic-30" transform="translate(62.988281 0)"/>
       <use xlink:href="#IPAexGothic-30" transform="translate(125.976562 0)"/>
       <use xlink:href="#IPAexGothic-30" transform="translate(188.964844 0)"/>
       <use xlink:href="#IPAexGothic-30" transform="translate(251.953125 0)"/>
      </g>
     </g>
    </g>
    <g id="ytick_5">
     <g id="line2d_36">
      <path d="M 78.57375 278.068199 
L 1099.09375 278.068199 
" clip-path="url(#p3de085058b)" style="fill: none; stroke-dasharray: 2.96,1.28; stroke-dashoffset: 0; stroke: #b0b0b0; stroke-opacity: 0.3; stroke-width: 0.8"/>
     </g>
     <g id="line2d_37">
      <g>
       <use xlink:href="#mfa28ef1ea6" x="78.57375" y="278.068199" style="stroke: #000000; stroke-width: 0.8"/>
      </g>
     </g>
     <g id="text_33">
      <!-- 80000 -->
      <g transform="translate(33.783125 282.562574) scale(0.12 -0.12)">
       <use xlink:href="#IPAexGothic-38"/>
       <use xlink:href="#IPAexGothic-30" transform="translate(62.988281 0)"/>
       <use xlink:href="#IPAexGothic-30" transform="translate(125.976562 0)"/>
       <use xlink:href="#IPAexGothic-30" transform="translate(188.964844 0)"/>
       <use xlink:href="#IPAexGothic-30" transform="translate(251.953125 0)"/>
      </g>
     </g>
    </g>
    <g id="ytick_6">
     <g id="line2d_38">
      <path d="M 78.57375 202.656228 
L 1099.09375 202.656228 
" clip-path="url(#p3de085058b)" style="fill: none; stroke-dasharray: 2.96,1.28; stroke-dashoffset: 0; stroke: #b0b0b0; stroke-opacity: 0.3; stroke-width: 0.8"/>
     </g>
     <g id="line2d_39">
      <g>
       <use xlink:href="#mfa28ef1ea6" x="78.57375" y="202.656228" style="stroke: #000000; stroke-width: 0.8"/>
      </g>
     </g>
     <g id="text_34">
      <!-- 100000 -->
      <g transform="translate(26.225 207.150603) scale(0.12 -0.12)">
       <use xlink:href="#IPAexGothic-31"/>
       <use xlink:href="#IPAexGothic-30" transform="translate(62.988281 0)"/>
       <use xlink:href="#IPAexGothic-30" transform="translate(125.976562 0)"/>
       <use xlink:href="#IPAexGothic-30" transform="translate(188.964844 0)"/>
       <use xlink:href="#IPAexGothic-30" transform="translate(251.953125 0)"/>
       <use xlink:href="#IPAexGothic-30" transform="translate(314.941406 0)"/>
      </g>
     </g>
    </g>
    <g id="ytick_7">
     <g id="line2d_40">
      <path d="M 78.57375 127.244257 
L 1099.09375 127.244257 
" clip-path="url(#p3de085058b)" style="fill: none; stroke-dasharray: 2.96,1.28; stroke-dashoffset: 0; stroke: #b0b0b0; stroke-opacity: 0.3; stroke-width: 0.8"/>
     </g>
     <g id="line2d_41">
      <g>
       <use xlink:href="#mfa28ef1ea6" x="78.57375" y="127.244257" style="stroke: #000000; stroke-width: 0.8"/>
      </g>
     </g>
     <g id="text_35">
      <!-- 120000 -->
      <g transform="translate(26.225 131.738632) scale(0.12 -0.12)">
       <use xlink:href="#IPAexGothic-31"/>
       <use xlink:href="#IPAexGothic-32" transform="translate(62.988281 0)"/>
       <use xlink:href="#IPAexGothic-30" transform="translate(125.976562 0)"/>
       <use xlink:href="#IPAexGothic-30" transform="translate(188.964844 0)"/>
       <use xlink:href="#IPAexGothic-30" transform="translate(251.953125 0)"/>
       <use xlink:href="#IPAexGothic-30" transform="translate(314.941406 0)"/>
      </g>
     </g>
    </g>
    <g id="ytick_8">
     <g id="line2d_42">
      <path d="M 78.57375 51.832286 
L 1099.09375 51.832286 
" clip-path="url(#p3de085058b)" style="fill: none; stroke-dasharray: 2.96,1.28; stroke-dashoffset: 0; stroke: #b0b0b0; stroke-opacity: 0.3; stroke-width: 0.8"/>
     </g>
     <g id="line2d_43">
      <g>
       <use xlink:href="#mfa28ef1ea6" x="78.57375" y="51.832286" style="stroke: #000000; stroke-width: 0.8"/>
      </g>
     </g>
     <g id="text_36">
      <!-- 140000 -->
      <g transform="translate(26.225 56.326661) scale(0.12 -0.12)">
       <use xlink:href="#IPAexGothic-31"/>
       <use xlink:href="#IPAexGothic-34" transform="translate(62.988281 0)"/>
       <use xlink:href="#IPAexGothic-30" transform="translate(125.976562 0)"/>
       <use xlink:href="#IPAexGothic-30" transform="translate(188.964844 0)"/>
       <use xlink:href="#IPAexGothic-30" transform="translate(251.953125 0)"/>
       <use xlink:href="#IPAexGothic-30" transform="translate(314.941406 0)"/>
      </g>
     </g>
    </g>
    <g id="text_37">
     <!-- 総人口（人） -->
     <g transform="translate(19.185 358.948667) rotate(-90) scale(0.16 -0.16)">
      <defs>
       <path id="IPAexGothic-4eba" d="M 3434 5081 
L 3434 4659 
Q 3434 3131 4050 2069 
Q 4669 994 6022 275 
L 5644 -197 
Q 4359 588 3641 1863 
Q 3394 2300 3225 3009 
Q 2822 766 819 -325 
L 441 97 
Q 1856 759 2438 1972 
Q 2919 2959 2919 4634 
L 2919 5081 
L 3434 5081 
z
" transform="scale(0.015625)"/>
       <path id="IPAexGothic-53e3" d="M 5425 4500 
L 5425 -56 
L 4913 -56 
L 4913 391 
L 1478 391 
L 1478 -97 
L 966 -97 
L 966 4500 
L 5425 4500 
z
M 1478 4047 
L 1478 838 
L 4913 838 
L 4913 4047 
L 1478 4047 
z
" transform="scale(0.015625)"/>
       <path id="IPAexGothic-ff08" d="M 5419 -434 
Q 4197 769 4197 2438 
Q 4197 4097 5419 5300 
L 5919 5300 
Q 4678 4078 4678 2425 
Q 4678 788 5919 -434 
L 5419 -434 
z
" transform="scale(0.015625)"/>
       <path id="IPAexGothic-ff09" d="M 481 -434 
Q 1722 788 1722 2431 
Q 1722 4066 481 5300 
L 981 5300 
Q 2203 4097 2203 2431 
Q 2203 769 981 -434 
L 481 -434 
z
" transform="scale(0.015625)"/>
      </defs>
      <use xlink:href="#IPAexGothic-7dcf"/>
      <use xlink:href="#IPAexGothic-4eba" transform="translate(100 0)"/>
      <use xlink:href="#IPAexGothic-53e3" transform="translate(200 0)"/>
      <use xlink:href="#IPAexGothic-ff08" transform="translate(300 0)"/>
      <use xlink:href="#IPAexGothic-4eba" transform="translate(400 0)"/>
      <use xlink:href="#IPAexGothic-ff09" transform="translate(500 0)"/>
     </g>
    </g>
   </g>
   <g id="patch_30">
    <path d="M 78.57375 579.716084 
L 78.57375 42.18125 
" style="fill: none; stroke: #000000; stroke-width: 0.8; stroke-linejoin: miter; stroke-linecap: square"/>
   </g>
   <g id="patch_31">
    <path d="M 1099.09375 579.716084 
L 1099.09375 42.18125 
" style="fill: none; stroke: #000000; stroke-width: 0.8; stroke-linejoin: miter; stroke-linecap: square"/>
   </g>
   <g id="patch_32">
    <path d="M 78.57375 579.716084 
L 1099.09375 579.716084 
" style="fill: none; stroke: #000000; stroke-width: 0.8; stroke-linejoin: miter; stroke-linecap: square"/>
   </g>
   <g id="patch_33">
    <path d="M 78.57375 42.18125 
L 1099.09375 42.18125 
" style="fill: none; stroke: #000000; stroke-width: 0.8; stroke-linejoin: miter; stroke-linecap: square"/>
   </g>
   <g id="text_38">
    <g id="patch_34">
     <path d="M 121.506349 561.515102 
L 149.342286 561.515102 
Q 152.342286 561.515102 152.342286 558.515102 
L 152.342286 549.124477 
Q 152.342286 546.124477 149.342286 546.124477 
L 121.506349 546.124477 
Q 118.506349 546.124477 118.506349 549.124477 
L 118.506349 558.515102 
Q 118.506349 561.515102 121.506349 561.515102 
z
" style="fill: #ffffff; opacity: 0.8; stroke: #000000; stroke-linejoin: miter"/>
    </g>
    <!-- 4,265 -->
    <g transform="translate(121.506349 556.615102) scale(0.1 -0.1)">
     <defs>
      <path id="IPAexGothic-2c" d="M 1150 728 
Q 1028 -159 563 -1006 
L 153 -897 
Q 494 -100 569 728 
L 1150 728 
z
" transform="scale(0.015625)"/>
     </defs>
     <use xlink:href="#IPAexGothic-34"/>
     <use xlink:href="#IPAexGothic-2c" transform="translate(62.988281 0)"/>
     <use xlink:href="#IPAexGothic-32" transform="translate(89.404297 0)"/>
     <use xlink:href="#IPAexGothic-36" transform="translate(152.392578 0)"/>
     <use xlink:href="#IPAexGothic-35" transform="translate(215.380859 0)"/>
    </g>
   </g>
   <g id="text_39">
    <g id="patch_35">
     <path d="M 156.383997 558.306323 
L 184.219935 558.306323 
Q 187.219935 558.306323 187.219935 555.306323 
L 187.219935 545.915698 
Q 187.219935 542.915698 184.219935 542.915698 
L 156.383997 542.915698 
Q 153.383997 542.915698 153.383997 545.915698 
L 153.383997 555.306323 
Q 153.383997 558.306323 156.383997 558.306323 
z
" style="fill: #ffffff; opacity: 0.8; stroke: #000000; stroke-linejoin: miter"/>
    </g>
    <!-- 5,116 -->
    <g transform="translate(156.383997 553.406323) scale(0.1 -0.1)">
     <use xlink:href="#IPAexGothic-35"/>
     <use xlink:href="#IPAexGothic-2c" transform="translate(62.988281 0)"/>
     <use xlink:href="#IPAexGothic-31" transform="translate(89.404297 0)"/>
     <use xlink:href="#IPAexGothic-31" transform="translate(152.392578 0)"/>
     <use xlink:href="#IPAexGothic-36" transform="translate(215.380859 0)"/>
    </g>
   </g>
   <g id="text_40">
    <g id="patch_36">
     <path d="M 191.261646 556.164623 
L 219.097583 556.164623 
Q 222.097583 556.164623 222.097583 553.164623 
L 222.097583 543.773998 
Q 222.097583 540.773998 219.097583 540.773998 
L 191.261646 540.773998 
Q 188.261646 540.773998 188.261646 543.773998 
L 188.261646 553.164623 
Q 188.261646 556.164623 191.261646 556.164623 
z
" style="fill: #ffffff; opacity: 0.8; stroke: #000000; stroke-linejoin: miter"/>
    </g>
    <!-- 5,684 -->
    <g transform="translate(191.261646 551.264623) scale(0.1 -0.1)">
     <use xlink:href="#IPAexGothic-35"/>
     <use xlink:href="#IPAexGothic-2c" transform="translate(62.988281 0)"/>
     <use xlink:href="#IPAexGothic-36" transform="translate(89.404297 0)"/>
     <use xlink:href="#IPAexGothic-38" transform="translate(152.392578 0)"/>
     <use xlink:href="#IPAexGothic-34" transform="translate(215.380859 0)"/>
    </g>
   </g>
   <g id="text_41">
    <g id="patch_37">
     <path d="M 222.990076 520.713455 
L 257.124451 520.713455 
Q 260.124451 520.713455 260.124451 517.713455 
L 260.124451 508.32283 
Q 260.124451 505.32283 257.124451 505.32283 
L 222.990076 505.32283 
Q 219.990076 505.32283 219.990076 508.32283 
L 219.990076 517.713455 
Q 219.990076 520.713455 222.990076 520.713455 
z
" style="fill: #ffffff; opacity: 0.8; stroke: #000000; stroke-linejoin: miter"/>
    </g>
    <!-- 15,086 -->
    <g transform="translate(222.990076 515.813455) scale(0.1 -0.1)">
     <use xlink:href="#IPAexGothic-31"/>
     <use xlink:href="#IPAexGothic-35" transform="translate(62.988281 0)"/>
     <use xlink:href="#IPAexGothic-2c" transform="translate(125.976562 0)"/>
     <use xlink:href="#IPAexGothic-30" transform="translate(152.392578 0)"/>
     <use xlink:href="#IPAexGothic-38" transform="translate(215.380859 0)"/>
     <use xlink:href="#IPAexGothic-36" transform="translate(278.369141 0)"/>
    </g>
   </g>
   <g id="text_42">
    <g id="patch_38">
     <path d="M 261.016943 554.976884 
L 288.852881 554.976884 
Q 291.852881 554.976884 291.852881 551.976884 
L 291.852881 542.586259 
Q 291.852881 539.586259 288.852881 539.586259 
L 261.016943 539.586259 
Q 258.016943 539.586259 258.016943 542.586259 
L 258.016943 551.976884 
Q 258.016943 554.976884 261.016943 554.976884 
z
" style="fill: #ffffff; opacity: 0.8; stroke: #000000; stroke-linejoin: miter"/>
    </g>
    <!-- 5,999 -->
    <g transform="translate(261.016943 550.076884) scale(0.1 -0.1)">
     <use xlink:href="#IPAexGothic-35"/>
     <use xlink:href="#IPAexGothic-2c" transform="translate(62.988281 0)"/>
     <use xlink:href="#IPAexGothic-39" transform="translate(89.404297 0)"/>
     <use xlink:href="#IPAexGothic-39" transform="translate(152.392578 0)"/>
     <use xlink:href="#IPAexGothic-39" transform="translate(215.380859 0)"/>
    </g>
   </g>
   <g id="text_43">
    <g id="patch_39">
     <path d="M 292.745373 272.110351 
L 326.879748 272.110351 
Q 329.879748 272.110351 329.879748 269.110351 
L 329.879748 259.719726 
Q 329.879748 256.719726 326.879748 256.719726 
L 292.745373 256.719726 
Q 289.745373 256.719726 289.745373 259.719726 
L 289.745373 269.110351 
Q 289.745373 272.110351 292.745373 272.110351 
z
" style="fill: #ffffff; opacity: 0.8; stroke: #000000; stroke-linejoin: miter"/>
    </g>
    <!-- 81,018 -->
    <g transform="translate(292.745373 267.210351) scale(0.1 -0.1)">
     <use xlink:href="#IPAexGothic-38"/>
     <use xlink:href="#IPAexGothic-31" transform="translate(62.988281 0)"/>
     <use xlink:href="#IPAexGothic-2c" transform="translate(125.976562 0)"/>
     <use xlink:href="#IPAexGothic-30" transform="translate(152.392578 0)"/>
     <use xlink:href="#IPAexGothic-31" transform="translate(215.380859 0)"/>
     <use xlink:href="#IPAexGothic-38" transform="translate(278.369141 0)"/>
    </g>
   </g>
   <g id="text_44">
    <g id="patch_40">
     <path d="M 330.772241 551.715317 
L 358.608178 551.715317 
Q 361.608178 551.715317 361.608178 548.715317 
L 361.608178 539.324692 
Q 361.608178 536.324692 358.608178 536.324692 
L 330.772241 536.324692 
Q 327.772241 536.324692 327.772241 539.324692 
L 327.772241 548.715317 
Q 327.772241 551.715317 330.772241 551.715317 
z
" style="fill: #ffffff; opacity: 0.8; stroke: #000000; stroke-linejoin: miter"/>
    </g>
    <!-- 6,864 -->
    <g transform="translate(330.772241 546.815317) scale(0.1 -0.1)">
     <use xlink:href="#IPAexGothic-36"/>
     <use xlink:href="#IPAexGothic-2c" transform="translate(62.988281 0)"/>
     <use xlink:href="#IPAexGothic-38" transform="translate(89.404297 0)"/>
     <use xlink:href="#IPAexGothic-36" transform="translate(152.392578 0)"/>
     <use xlink:href="#IPAexGothic-34" transform="translate(215.380859 0)"/>
    </g>
   </g>
   <g id="text_45">
    <g id="patch_41">
     <path d="M 365.649889 550.682173 
L 393.485827 550.682173 
Q 396.485827 550.682173 396.485827 547.682173 
L 396.485827 538.291548 
Q 396.485827 535.291548 393.485827 535.291548 
L 365.649889 535.291548 
Q 362.649889 535.291548 362.649889 538.291548 
L 362.649889 547.682173 
Q 362.649889 550.682173 365.649889 550.682173 
z
" style="fill: #ffffff; opacity: 0.8; stroke: #000000; stroke-linejoin: miter"/>
    </g>
    <!-- 7,138 -->
    <g transform="translate(365.649889 545.782173) scale(0.1 -0.1)">
     <use xlink:href="#IPAexGothic-37"/>
     <use xlink:href="#IPAexGothic-2c" transform="translate(62.988281 0)"/>
     <use xlink:href="#IPAexGothic-31" transform="translate(89.404297 0)"/>
     <use xlink:href="#IPAexGothic-33" transform="translate(152.392578 0)"/>
     <use xlink:href="#IPAexGothic-38" transform="translate(215.380859 0)"/>
    </g>
   </g>
   <g id="text_46">
    <g id="patch_42">
     <path d="M 400.527538 551.074315 
L 428.363475 551.074315 
Q 431.363475 551.074315 431.363475 548.074315 
L 431.363475 538.68369 
Q 431.363475 535.68369 428.363475 535.68369 
L 400.527538 535.68369 
Q 397.527538 535.68369 397.527538 538.68369 
L 397.527538 548.074315 
Q 397.527538 551.074315 400.527538 551.074315 
z
" style="fill: #ffffff; opacity: 0.8; stroke: #000000; stroke-linejoin: miter"/>
    </g>
    <!-- 7,034 -->
    <g transform="translate(400.527538 546.174315) scale(0.1 -0.1)">
     <use xlink:href="#IPAexGothic-37"/>
     <use xlink:href="#IPAexGothic-2c" transform="translate(62.988281 0)"/>
     <use xlink:href="#IPAexGothic-30" transform="translate(89.404297 0)"/>
     <use xlink:href="#IPAexGothic-33" transform="translate(152.392578 0)"/>
     <use xlink:href="#IPAexGothic-34" transform="translate(215.380859 0)"/>
    </g>
   </g>
   <g id="text_47">
    <g id="patch_43">
     <path d="M 435.405187 549.373775 
L 463.241124 549.373775 
Q 466.241124 549.373775 466.241124 546.373775 
L 466.241124 536.98315 
Q 466.241124 533.98315 463.241124 533.98315 
L 435.405187 533.98315 
Q 432.405187 533.98315 432.405187 536.98315 
L 432.405187 546.373775 
Q 432.405187 549.373775 435.405187 549.373775 
z
" style="fill: #ffffff; opacity: 0.8; stroke: #000000; stroke-linejoin: miter"/>
    </g>
    <!-- 7,485 -->
    <g transform="translate(435.405187 544.473775) scale(0.1 -0.1)">
     <use xlink:href="#IPAexGothic-37"/>
     <use xlink:href="#IPAexGothic-2c" transform="translate(62.988281 0)"/>
     <use xlink:href="#IPAexGothic-34" transform="translate(89.404297 0)"/>
     <use xlink:href="#IPAexGothic-38" transform="translate(152.392578 0)"/>
     <use xlink:href="#IPAexGothic-35" transform="translate(215.380859 0)"/>
    </g>
   </g>
   <g id="text_48">
    <g id="patch_44">
     <path d="M 470.282835 546.202701 
L 498.118773 546.202701 
Q 501.118773 546.202701 501.118773 543.202701 
L 501.118773 533.812076 
Q 501.118773 530.812076 498.118773 530.812076 
L 470.282835 530.812076 
Q 467.282835 530.812076 467.282835 533.812076 
L 467.282835 543.202701 
Q 467.282835 546.202701 470.282835 546.202701 
z
" style="fill: #ffffff; opacity: 0.8; stroke: #000000; stroke-linejoin: miter"/>
    </g>
    <!-- 8,326 -->
    <g transform="translate(470.282835 541.302701) scale(0.1 -0.1)">
     <use xlink:href="#IPAexGothic-38"/>
     <use xlink:href="#IPAexGothic-2c" transform="translate(62.988281 0)"/>
     <use xlink:href="#IPAexGothic-33" transform="translate(89.404297 0)"/>
     <use xlink:href="#IPAexGothic-32" transform="translate(152.392578 0)"/>
     <use xlink:href="#IPAexGothic-36" transform="translate(215.380859 0)"/>
    </g>
   </g>
   <g id="text_49">
    <g id="patch_45">
     <path d="M 505.160484 541.806184 
L 532.996421 541.806184 
Q 535.996421 541.806184 535.996421 538.806184 
L 535.996421 529.415559 
Q 535.996421 526.415559 532.996421 526.415559 
L 505.160484 526.415559 
Q 502.160484 526.415559 502.160484 529.415559 
L 502.160484 538.806184 
Q 502.160484 541.806184 505.160484 541.806184 
z
" style="fill: #ffffff; opacity: 0.8; stroke: #000000; stroke-linejoin: miter"/>
    </g>
    <!-- 9,492 -->
    <g transform="translate(505.160484 536.906184) scale(0.1 -0.1)">
     <use xlink:href="#IPAexGothic-39"/>
     <use xlink:href="#IPAexGothic-2c" transform="translate(62.988281 0)"/>
     <use xlink:href="#IPAexGothic-34" transform="translate(89.404297 0)"/>
     <use xlink:href="#IPAexGothic-39" transform="translate(152.392578 0)"/>
     <use xlink:href="#IPAexGothic-32" transform="translate(215.380859 0)"/>
    </g>
   </g>
   <g id="text_50">
    <g id="patch_46">
     <path d="M 536.888914 536.923258 
L 571.023289 536.923258 
Q 574.023289 536.923258 574.023289 533.923258 
L 574.023289 524.532633 
Q 574.023289 521.532633 571.023289 521.532633 
L 536.888914 521.532633 
Q 533.888914 521.532633 533.888914 524.532633 
L 533.888914 533.923258 
Q 533.888914 536.923258 536.888914 536.923258 
z
" style="fill: #ffffff; opacity: 0.8; stroke: #000000; stroke-linejoin: miter"/>
    </g>
    <!-- 10,787 -->
    <g transform="translate(536.888914 532.023258) scale(0.1 -0.1)">
     <use xlink:href="#IPAexGothic-31"/>
     <use xlink:href="#IPAexGothic-30" transform="translate(62.988281 0)"/>
     <use xlink:href="#IPAexGothic-2c" transform="translate(125.976562 0)"/>
     <use xlink:href="#IPAexGothic-37" transform="translate(152.392578 0)"/>
     <use xlink:href="#IPAexGothic-38" transform="translate(215.380859 0)"/>
     <use xlink:href="#IPAexGothic-37" transform="translate(278.369141 0)"/>
    </g>
   </g>
   <g id="text_51">
    <g id="patch_47">
     <path d="M 574.915781 542.198326 
L 602.751719 542.198326 
Q 605.751719 542.198326 605.751719 539.198326 
L 605.751719 529.807701 
Q 605.751719 526.807701 602.751719 526.807701 
L 574.915781 526.807701 
Q 571.915781 526.807701 571.915781 529.807701 
L 571.915781 539.198326 
Q 571.915781 542.198326 574.915781 542.198326 
z
" style="fill: #ffffff; opacity: 0.8; stroke: #000000; stroke-linejoin: miter"/>
    </g>
    <!-- 9,388 -->
    <g transform="translate(574.915781 537.298326) scale(0.1 -0.1)">
     <use xlink:href="#IPAexGothic-39"/>
     <use xlink:href="#IPAexGothic-2c" transform="translate(62.988281 0)"/>
     <use xlink:href="#IPAexGothic-33" transform="translate(89.404297 0)"/>
     <use xlink:href="#IPAexGothic-38" transform="translate(152.392578 0)"/>
     <use xlink:href="#IPAexGothic-38" transform="translate(215.380859 0)"/>
    </g>
   </g>
   <g id="text_52">
    <g id="patch_48">
     <path d="M 609.79343 545.972695 
L 637.629367 545.972695 
Q 640.629367 545.972695 640.629367 542.972695 
L 640.629367 533.58207 
Q 640.629367 530.58207 637.629367 530.58207 
L 609.79343 530.58207 
Q 606.79343 530.58207 606.79343 533.58207 
L 606.79343 542.972695 
Q 606.79343 545.972695 609.79343 545.972695 
z
" style="fill: #ffffff; opacity: 0.8; stroke: #000000; stroke-linejoin: miter"/>
    </g>
    <!-- 8,387 -->
    <g transform="translate(609.79343 541.072695) scale(0.1 -0.1)">
     <use xlink:href="#IPAexGothic-38"/>
     <use xlink:href="#IPAexGothic-2c" transform="translate(62.988281 0)"/>
     <use xlink:href="#IPAexGothic-33" transform="translate(89.404297 0)"/>
     <use xlink:href="#IPAexGothic-38" transform="translate(152.392578 0)"/>
     <use xlink:href="#IPAexGothic-37" transform="translate(215.380859 0)"/>
    </g>
   </g>
   <g id="text_53">
    <g id="patch_49">
     <path d="M 641.52186 427.278023 
L 675.656235 427.278023 
Q 678.656235 427.278023 678.656235 424.278023 
L 678.656235 414.887398 
Q 678.656235 411.887398 675.656235 411.887398 
L 641.52186 411.887398 
Q 638.52186 411.887398 638.52186 414.887398 
L 638.52186 424.278023 
Q 638.52186 427.278023 641.52186 427.278023 
z
" style="fill: #ffffff; opacity: 0.8; stroke: #000000; stroke-linejoin: miter"/>
    </g>
    <!-- 39,866 -->
    <g transform="translate(641.52186 422.378023) scale(0.1 -0.1)">
     <use xlink:href="#IPAexGothic-33"/>
     <use xlink:href="#IPAexGothic-39" transform="translate(62.988281 0)"/>
     <use xlink:href="#IPAexGothic-2c" transform="translate(125.976562 0)"/>
     <use xlink:href="#IPAexGothic-38" transform="translate(152.392578 0)"/>
     <use xlink:href="#IPAexGothic-36" transform="translate(215.380859 0)"/>
     <use xlink:href="#IPAexGothic-36" transform="translate(278.369141 0)"/>
    </g>
   </g>
   <g id="text_54">
    <g id="patch_50">
     <path d="M 679.548727 547.692088 
L 707.384665 547.692088 
Q 710.384665 547.692088 710.384665 544.692088 
L 710.384665 535.301463 
Q 710.384665 532.301463 707.384665 532.301463 
L 679.548727 532.301463 
Q 676.548727 532.301463 676.548727 535.301463 
L 676.548727 544.692088 
Q 676.548727 547.692088 679.548727 547.692088 
z
" style="fill: #ffffff; opacity: 0.8; stroke: #000000; stroke-linejoin: miter"/>
    </g>
    <!-- 7,931 -->
    <g transform="translate(679.548727 542.792088) scale(0.1 -0.1)">
     <use xlink:href="#IPAexGothic-37"/>
     <use xlink:href="#IPAexGothic-2c" transform="translate(62.988281 0)"/>
     <use xlink:href="#IPAexGothic-39" transform="translate(89.404297 0)"/>
     <use xlink:href="#IPAexGothic-33" transform="translate(152.392578 0)"/>
     <use xlink:href="#IPAexGothic-31" transform="translate(215.380859 0)"/>
    </g>
   </g>
   <g id="text_55">
    <g id="patch_51">
     <path d="M 714.426376 544.407897 
L 742.262313 544.407897 
Q 745.262313 544.407897 745.262313 541.407897 
L 745.262313 532.017272 
Q 745.262313 529.017272 742.262313 529.017272 
L 714.426376 529.017272 
Q 711.426376 529.017272 711.426376 532.017272 
L 711.426376 541.407897 
Q 711.426376 544.407897 714.426376 544.407897 
z
" style="fill: #ffffff; opacity: 0.8; stroke: #000000; stroke-linejoin: miter"/>
    </g>
    <!-- 8,802 -->
    <g transform="translate(714.426376 539.507897) scale(0.1 -0.1)">
     <use xlink:href="#IPAexGothic-38"/>
     <use xlink:href="#IPAexGothic-2c" transform="translate(62.988281 0)"/>
     <use xlink:href="#IPAexGothic-38" transform="translate(89.404297 0)"/>
     <use xlink:href="#IPAexGothic-30" transform="translate(152.392578 0)"/>
     <use xlink:href="#IPAexGothic-32" transform="translate(215.380859 0)"/>
    </g>
   </g>
   <g id="text_56">
    <g id="patch_52">
     <path d="M 749.304025 543.98936 
L 777.139962 543.98936 
Q 780.139962 543.98936 780.139962 540.98936 
L 780.139962 531.598735 
Q 780.139962 528.598735 777.139962 528.598735 
L 749.304025 528.598735 
Q 746.304025 528.598735 746.304025 531.598735 
L 746.304025 540.98936 
Q 746.304025 543.98936 749.304025 543.98936 
z
" style="fill: #ffffff; opacity: 0.8; stroke: #000000; stroke-linejoin: miter"/>
    </g>
    <!-- 8,913 -->
    <g transform="translate(749.304025 539.08936) scale(0.1 -0.1)">
     <use xlink:href="#IPAexGothic-38"/>
     <use xlink:href="#IPAexGothic-2c" transform="translate(62.988281 0)"/>
     <use xlink:href="#IPAexGothic-39" transform="translate(89.404297 0)"/>
     <use xlink:href="#IPAexGothic-31" transform="translate(152.392578 0)"/>
     <use xlink:href="#IPAexGothic-33" transform="translate(215.380859 0)"/>
    </g>
   </g>
   <g id="text_57">
    <g id="patch_53">
     <path d="M 781.032455 490.465714 
L 815.16683 490.465714 
Q 818.16683 490.465714 818.16683 487.465714 
L 818.16683 478.075089 
Q 818.16683 475.075089 815.16683 475.075089 
L 781.032455 475.075089 
Q 778.032455 475.075089 778.032455 478.075089 
L 778.032455 487.465714 
Q 778.032455 490.465714 781.032455 490.465714 
z
" style="fill: #ffffff; opacity: 0.8; stroke: #000000; stroke-linejoin: miter"/>
    </g>
    <!-- 23,108 -->
    <g transform="translate(781.032455 485.565714) scale(0.1 -0.1)">
     <use xlink:href="#IPAexGothic-32"/>
     <use xlink:href="#IPAexGothic-33" transform="translate(62.988281 0)"/>
     <use xlink:href="#IPAexGothic-2c" transform="translate(125.976562 0)"/>
     <use xlink:href="#IPAexGothic-31" transform="translate(152.392578 0)"/>
     <use xlink:href="#IPAexGothic-30" transform="translate(215.380859 0)"/>
     <use xlink:href="#IPAexGothic-38" transform="translate(278.369141 0)"/>
    </g>
   </g>
   <g id="text_58">
    <g id="patch_54">
     <path d="M 819.059322 552.446813 
L 846.895259 552.446813 
Q 849.895259 552.446813 849.895259 549.446813 
L 849.895259 540.056188 
Q 849.895259 537.056188 846.895259 537.056188 
L 819.059322 537.056188 
Q 816.059322 537.056188 816.059322 540.056188 
L 816.059322 549.446813 
Q 816.059322 552.446813 819.059322 552.446813 
z
" style="fill: #ffffff; opacity: 0.8; stroke: #000000; stroke-linejoin: miter"/>
    </g>
    <!-- 6,670 -->
    <g transform="translate(819.059322 547.546813) scale(0.1 -0.1)">
     <use xlink:href="#IPAexGothic-36"/>
     <use xlink:href="#IPAexGothic-2c" transform="translate(62.988281 0)"/>
     <use xlink:href="#IPAexGothic-36" transform="translate(89.404297 0)"/>
     <use xlink:href="#IPAexGothic-37" transform="translate(152.392578 0)"/>
     <use xlink:href="#IPAexGothic-30" transform="translate(215.380859 0)"/>
    </g>
   </g>
   <g id="text_59">
    <g id="patch_55">
     <path d="M 853.936971 561.153125 
L 881.772908 561.153125 
Q 884.772908 561.153125 884.772908 558.153125 
L 884.772908 548.7625 
Q 884.772908 545.7625 881.772908 545.7625 
L 853.936971 545.7625 
Q 850.936971 545.7625 850.936971 548.7625 
L 850.936971 558.153125 
Q 850.936971 561.153125 853.936971 561.153125 
z
" style="fill: #ffffff; opacity: 0.8; stroke: #000000; stroke-linejoin: miter"/>
    </g>
    <!-- 4,361 -->
    <g transform="translate(853.936971 556.253125) scale(0.1 -0.1)">
     <use xlink:href="#IPAexGothic-34"/>
     <use xlink:href="#IPAexGothic-2c" transform="translate(62.988281 0)"/>
     <use xlink:href="#IPAexGothic-33" transform="translate(89.404297 0)"/>
     <use xlink:href="#IPAexGothic-36" transform="translate(152.392578 0)"/>
     <use xlink:href="#IPAexGothic-31" transform="translate(215.380859 0)"/>
    </g>
   </g>
   <g id="text_60">
    <g id="patch_56">
     <path d="M 888.814619 549.313445 
L 916.650557 549.313445 
Q 919.650557 549.313445 919.650557 546.313445 
L 919.650557 536.92282 
Q 919.650557 533.92282 916.650557 533.92282 
L 888.814619 533.92282 
Q 885.814619 533.92282 885.814619 536.92282 
L 885.814619 546.313445 
Q 885.814619 549.313445 888.814619 549.313445 
z
" style="fill: #ffffff; opacity: 0.8; stroke: #000000; stroke-linejoin: miter"/>
    </g>
    <!-- 7,501 -->
    <g transform="translate(888.814619 544.413445) scale(0.1 -0.1)">
     <use xlink:href="#IPAexGothic-37"/>
     <use xlink:href="#IPAexGothic-2c" transform="translate(62.988281 0)"/>
     <use xlink:href="#IPAexGothic-35" transform="translate(89.404297 0)"/>
     <use xlink:href="#IPAexGothic-30" transform="translate(152.392578 0)"/>
     <use xlink:href="#IPAexGothic-31" transform="translate(215.380859 0)"/>
    </g>
   </g>
   <g id="text_61">
    <g id="patch_57">
     <path d="M 923.692268 568.860228 
L 951.528205 568.860228 
Q 954.528205 568.860228 954.528205 565.860228 
L 954.528205 556.469603 
Q 954.528205 553.469603 951.528205 553.469603 
L 923.692268 553.469603 
Q 920.692268 553.469603 920.692268 556.469603 
L 920.692268 565.860228 
Q 920.692268 568.860228 923.692268 568.860228 
z
" style="fill: #ffffff; opacity: 0.8; stroke: #000000; stroke-linejoin: miter"/>
    </g>
    <!-- 2,317 -->
    <g transform="translate(923.692268 563.960228) scale(0.1 -0.1)">
     <use xlink:href="#IPAexGothic-32"/>
     <use xlink:href="#IPAexGothic-2c" transform="translate(62.988281 0)"/>
     <use xlink:href="#IPAexGothic-33" transform="translate(89.404297 0)"/>
     <use xlink:href="#IPAexGothic-31" transform="translate(152.392578 0)"/>
     <use xlink:href="#IPAexGothic-37" transform="translate(215.380859 0)"/>
    </g>
   </g>
   <g id="text_62">
    <g id="patch_58">
     <path d="M 963.040229 574.900727 
L 981.935542 574.900727 
Q 984.935542 574.900727 984.935542 571.900727 
L 984.935542 562.510102 
Q 984.935542 559.510102 981.935542 559.510102 
L 963.040229 559.510102 
Q 960.040229 559.510102 960.040229 562.510102 
L 960.040229 571.900727 
Q 960.040229 574.900727 963.040229 574.900727 
z
" style="fill: #ffffff; opacity: 0.8; stroke: #000000; stroke-linejoin: miter"/>
    </g>
    <!-- 715 -->
    <g transform="translate(963.040229 570.000727) scale(0.1 -0.1)">
     <use xlink:href="#IPAexGothic-37"/>
     <use xlink:href="#IPAexGothic-31" transform="translate(62.988281 0)"/>
     <use xlink:href="#IPAexGothic-35" transform="translate(125.976562 0)"/>
    </g>
   </g>
   <g id="text_63">
    <g id="patch_59">
     <path d="M 1001.067097 577.223416 
L 1013.663972 577.223416 
Q 1016.663972 577.223416 1016.663972 574.223416 
L 1016.663972 564.832791 
Q 1016.663972 561.832791 1013.663972 561.832791 
L 1001.067097 561.832791 
Q 998.067097 561.832791 998.067097 564.832791 
L 998.067097 574.223416 
Q 998.067097 577.223416 1001.067097 577.223416 
z
" style="fill: #ffffff; opacity: 0.8; stroke: #000000; stroke-linejoin: miter"/>
    </g>
    <!-- 99 -->
    <g transform="translate(1001.067097 572.323416) scale(0.1 -0.1)">
     <use xlink:href="#IPAexGothic-39"/>
     <use xlink:href="#IPAexGothic-39" transform="translate(62.988281 0)"/>
    </g>
   </g>
   <g id="text_64">
    <g id="patch_60">
     <path d="M 1022.026776 65.658768 
L 1062.459589 65.658768 
Q 1065.459589 65.658768 1065.459589 62.658768 
L 1065.459589 53.268143 
Q 1065.459589 50.268143 1062.459589 50.268143 
L 1022.026776 50.268143 
Q 1019.026776 50.268143 1019.026776 53.268143 
L 1019.026776 62.658768 
Q 1019.026776 65.658768 1022.026776 65.658768 
z
" style="fill: #ffffff; opacity: 0.8; stroke: #000000; stroke-linejoin: miter"/>
    </g>
    <!-- 135,771 -->
    <g transform="translate(1022.026776 60.758768) scale(0.1 -0.1)">
     <use xlink:href="#IPAexGothic-31"/>
     <use xlink:href="#IPAexGothic-33" transform="translate(62.988281 0)"/>
     <use xlink:href="#IPAexGothic-35" transform="translate(125.976562 0)"/>
     <use xlink:href="#IPAexGothic-2c" transform="translate(188.964844 0)"/>
     <use xlink:href="#IPAexGothic-37" transform="translate(215.380859 0)"/>
     <use xlink:href="#IPAexGothic-37" transform="translate(278.369141 0)"/>
     <use xlink:href="#IPAexGothic-31" transform="translate(341.357422 0)"/>
    </g>
   </g>
   <g id="text_65">
    <!-- 年齢階級別の総人口分布 -->
    <g transform="translate(478.83375 22.18125) scale(0.2 -0.2)">
     <defs>
      <path id="IPAexGothic-5225" d="M 1922 2963 
Q 1906 2453 1894 2209 
L 3341 2209 
Q 3313 550 3175 63 
Q 3059 -366 2413 -366 
Q 2072 -366 1753 -313 
L 1691 134 
Q 2084 63 2413 63 
Q 2694 63 2759 319 
Q 2856 722 2888 1753 
Q 2888 1800 2894 1819 
L 1863 1819 
Q 1709 350 700 -481 
L 353 -147 
Q 1075 403 1306 1256 
Q 1450 1822 1478 2963 
L 700 2963 
L 700 4984 
L 3278 4984 
L 3278 2963 
L 1922 2963 
z
M 1141 4588 
L 1141 3353 
L 2838 3353 
L 2838 4588 
L 1141 4588 
z
M 3972 4597 
L 4425 4597 
L 4425 1159 
L 3972 1159 
L 3972 4597 
z
M 5309 5044 
L 5763 5044 
L 5763 191 
Q 5763 -141 5581 -263 
Q 5438 -359 5116 -359 
Q 4688 -359 4253 -313 
L 4156 178 
Q 4625 116 5072 116 
Q 5309 116 5309 353 
L 5309 5044 
z
" transform="scale(0.015625)"/>
      <path id="IPAexGothic-306e" d="M 3119 469 
Q 5275 766 5275 2425 
Q 5275 3453 4413 3925 
Q 4041 4116 3547 4159 
Q 3394 2525 2850 1400 
Q 2322 306 1722 306 
Q 1384 306 1084 666 
Q 609 1244 609 2003 
Q 609 3025 1397 3794 
Q 2184 4563 3431 4563 
Q 4306 4563 4928 4122 
Q 5813 3506 5813 2425 
Q 5813 438 3431 6 
L 3119 469 
z
M 3053 4147 
Q 2378 4044 1891 3641 
Q 1097 2981 1097 1991 
Q 1097 1366 1434 978 
Q 1581 813 1719 813 
Q 2022 813 2416 1625 
Q 2909 2638 3053 4147 
z
" transform="scale(0.015625)"/>
      <path id="IPAexGothic-5206" d="M 3031 2431 
Q 2916 1378 2528 759 
Q 1991 -81 941 -469 
L 625 -53 
Q 2356 488 2541 2431 
L 1375 2431 
L 1375 2772 
Q 1044 2431 653 2156 
L 313 2534 
Q 1600 3425 2219 5056 
L 2688 4875 
Q 2200 3672 1453 2847 
L 4966 2847 
Q 4878 559 4741 94 
Q 4666 -163 4459 -250 
Q 4288 -322 3941 -322 
Q 3525 -322 2981 -263 
L 2884 256 
Q 3441 138 3844 138 
Q 4213 138 4281 438 
Q 4388 931 4472 2431 
L 3031 2431 
z
M 5747 2303 
Q 4416 3238 3506 4934 
L 3934 5113 
Q 4747 3572 6084 2747 
L 5747 2303 
z
" transform="scale(0.015625)"/>
      <path id="IPAexGothic-5e03" d="M 3228 2741 
L 3228 3584 
L 3688 3584 
L 3688 2741 
L 5500 2741 
L 5500 750 
Q 5500 475 5353 369 
Q 5228 272 4900 272 
Q 4625 272 4269 291 
L 4188 775 
Q 4600 713 4834 713 
Q 5047 713 5047 956 
L 5047 2325 
L 3688 2325 
L 3688 -447 
L 3228 -447 
L 3228 2325 
L 2056 2325 
L 2056 91 
L 1603 91 
L 1603 2228 
Q 1159 1747 622 1313 
L 303 1691 
Q 1544 2625 2144 3847 
L 516 3847 
L 516 4275 
L 2338 4275 
Q 2506 4684 2656 5228 
L 3150 5153 
Q 2988 4581 2856 4275 
L 5984 4275 
L 5984 3847 
L 2669 3847 
Q 2369 3231 2009 2741 
L 3228 2741 
z
" transform="scale(0.015625)"/>
     </defs>
     <use xlink:href="#IPAexGothic-5e74"/>
     <use xlink:href="#IPAexGothic-9f62" transform="translate(100 0)"/>
     <use xlink:href="#IPAexGothic-968e" transform="translate(200 0)"/>
     <use xlink:href="#IPAexGothic-7d1a" transform="translate(300 0)"/>
     <use xlink:href="#IPAexGothic-5225" transform="translate(400 0)"/>
     <use xlink:href="#IPAexGothic-306e" transform="translate(500 0)"/>
     <use xlink:href="#IPAexGothic-7dcf" transform="translate(600 0)"/>
     <use xlink:href="#IPAexGothic-4eba" transform="translate(700 0)"/>
     <use xlink:href="#IPAexGothic-53e3" transform="translate(800 0)"/>
     <use xlink:href="#IPAexGothic-5206" transform="translate(900 0)"/>
     <use xlink:href="#IPAexGothic-5e03" transform="translate(1000 0)"/>
    </g>
   </g>
  </g>
 </g>
 <defs>
  <clipPath id="p3de085058b">
   <rect x="78.57375" y="42.18125" width="1020.52" height="537.534834"/>
  </clipPath>
 </defs>
</svg>
